<?xml version="1.0" standalone="no"?>
<!DOCTYPE svg PUBLIC "-//W3C//DTD SVG 20010904//EN"
 "http://www.w3.org/TR/2001/REC-SVG-20010904/DTD/svg10.dtd">
<svg version="1.0" xmlns="http://www.w3.org/2000/svg"
 width="500.000000pt" height="500.000000pt" viewBox="0 0 500.000000 500.000000"
 preserveAspectRatio="xMidYMid meet">
<metadata>
Created by potrace 1.15, written by Peter Selinger 2001-2017
</metadata>
<g transform="translate(0.000000,500.000000) scale(0.100000,-0.100000)"
fill="#000000" stroke="none">
<path d="M2790 4754 c-96 -25 -161 -64 -235 -138 -111 -112 -163 -247 -151
-396 10 -133 58 -240 152 -334 32 -32 60 -71 69 -97 22 -61 51 -89 92 -89 19
0 44 6 56 12 14 8 68 13 147 13 125 0 127 0 200 37 43 21 97 58 126 87 l50 49
27 -33 27 -34 -91 -365 -91 -364 -155 -213 c-85 -116 -159 -222 -164 -235 -4
-13 -16 -24 -24 -24 -32 0 -121 -50 -170 -96 -41 -38 -94 -66 -305 -161 l-255
-114 -369 -55 c-203 -30 -375 -59 -382 -65 -9 -8 -16 -4 -25 12 -9 17 -9 24 0
27 6 2 38 23 70 47 110 81 173 186 187 313 7 58 23 99 55 141 11 13 19 36 19
52 0 32 -47 92 -90 114 -15 8 -44 44 -66 80 -69 119 -196 215 -329 250 -33 8
-96 15 -140 15 -154 0 -279 -52 -385 -159 -109 -110 -160 -233 -160 -386 0
-153 51 -277 160 -385 113 -113 235 -162 398 -159 l93 2 26 -36 c22 -32 24
-39 13 -69 -10 -28 -2 -90 55 -438 58 -352 68 -440 83 -675 l18 -270 -22 -40
c-43 -79 -38 -164 12 -216 60 -63 159 -40 211 48 30 52 28 113 -6 161 -16 23
-21 45 -21 94 0 221 -58 761 -104 971 -2 9 -3 17 -1 17 1 0 146 -187 321 -417
188 -246 335 -428 358 -445 42 -30 108 -38 149 -17 12 7 75 66 139 133 l117
121 1 -40 c3 -180 40 -698 52 -721 25 -53 64 -69 229 -92 181 -26 230 -27 268
-8 87 45 87 186 0 231 -15 8 -76 22 -136 31 -59 9 -109 17 -111 18 -1 2 -13
207 -27 457 -14 250 -28 466 -31 481 -3 14 -16 38 -30 53 -13 14 -24 29 -24
33 0 5 20 28 45 52 34 33 45 40 45 26 0 -10 21 -223 46 -474 30 -301 51 -466
60 -484 8 -16 28 -37 44 -47 28 -17 355 -81 414 -81 97 0 159 120 106 205 -27
43 -64 59 -192 80 -59 10 -112 21 -119 25 -7 5 -31 204 -69 577 -61 608 -63
619 -120 648 -38 20 -105 19 -138 -1 -15 -9 -177 -180 -360 -380 l-333 -364
-312 360 c-172 199 -313 364 -315 368 -1 4 150 29 335 56 l337 50 266 118
c146 66 276 127 290 136 17 11 40 16 72 13 125 -8 238 86 210 176 -13 42 -13
42 172 296 l155 213 70 275 69 274 1 -230 1 -230 -107 -266 c-107 -263 -109
-267 -148 -288 -55 -29 -87 -80 -93 -146 -4 -52 -3 -56 31 -90 43 -43 79 -45
153 -11 70 33 84 55 84 138 0 38 5 76 10 86 6 9 57 134 115 277 l105 260 0
275 0 275 24 -30 c105 -129 212 -388 260 -630 9 -44 21 -101 26 -128 l10 -47
-205 -417 c-113 -230 -205 -426 -205 -438 0 -11 43 -154 96 -318 53 -164 94
-301 91 -303 -3 -3 -40 -8 -84 -11 -91 -7 -127 -22 -148 -63 -30 -58 -9 -127
46 -156 27 -14 52 -14 208 -5 l176 10 30 -29 c49 -47 70 -47 212 0 181 60 217
76 236 109 37 63 33 72 -218 469 l-235 372 139 378 c157 426 160 444 142 643
-13 135 -46 274 -94 393 -93 233 -301 463 -502 558 -59 27 -79 31 -145 31
l-76 -1 24 71 c32 95 33 222 3 318 -81 256 -363 412 -621 343z m252 -104 c71
-22 161 -81 200 -132 102 -134 121 -298 51 -446 -33 -70 -137 -180 -205 -218
-50 -28 -59 -29 -178 -30 -70 0 -137 -6 -153 -12 -37 -16 -35 -17 -43 26 -5
28 -23 54 -75 107 -37 39 -79 93 -93 120 -164 330 144 694 496 585z m-1929
-1575 c131 -28 242 -112 305 -233 25 -47 43 -67 73 -82 21 -11 39 -24 39 -29
0 -5 -12 -29 -26 -55 -16 -29 -29 -73 -35 -117 -12 -94 -38 -149 -99 -209 -64
-62 -192 -126 -280 -140 -286 -44 -544 211 -500 494 29 189 161 331 344 371
79 17 98 17 179 0z m2842 -1541 l145 -229 -40 -18 c-21 -9 -52 -20 -67 -23
-27 -5 -29 -3 -55 83 -16 48 -52 164 -82 256 -30 93 -53 167 -50 164 2 -2 70
-107 149 -233z"/>
</g>
</svg>
