<?xml version="1.0" standalone="no"?>
<!DOCTYPE svg PUBLIC "-//W3C//DTD SVG 20010904//EN"
 "http://www.w3.org/TR/2001/REC-SVG-20010904/DTD/svg10.dtd">
<svg version="1.0" xmlns="http://www.w3.org/2000/svg"
 width="500.000000pt" height="500.000000pt" viewBox="0 0 500.000000 500.000000"
 preserveAspectRatio="xMidYMid meet">
<metadata>
Created by potrace 1.15, written by Peter Selinger 2001-2017
</metadata>
<g transform="translate(0.000000,500.000000) scale(0.100000,-0.100000)"
fill="#000000" stroke="none">
<path d="M1365 4246 c-46 -20 -120 -106 -160 -186 -51 -101 -75 -203 -75 -318
0 -175 53 -305 208 -511 54 -72 116 -164 138 -203 56 -101 109 -226 100 -235
-10 -10 -236 -9 -397 1 -178 12 -262 -11 -388 -107 -82 -63 -127 -129 -146
-216 -26 -113 -1 -174 94 -227 l48 -27 -35 -35 c-53 -53 -76 -114 -76 -197 0
-83 23 -136 82 -186 l38 -32 -47 -47 c-33 -33 -50 -59 -55 -85 -19 -106 48
-248 147 -311 l38 -24 -24 -42 c-32 -56 -35 -160 -6 -216 29 -58 103 -119 197
-164 l85 -41 182 2 c166 2 191 0 287 -24 58 -14 155 -30 215 -35 61 -6 153
-17 205 -25 241 -38 570 -1 880 100 277 89 866 110 1313 46 65 -9 120 -14 122
-11 1 3 5 19 6 35 l4 30 -115 17 c-216 30 -421 41 -684 35 -331 -8 -474 -28
-711 -97 -315 -92 -575 -120 -795 -85 -52 8 -144 19 -205 24 -60 5 -156 21
-212 35 -62 16 -129 26 -173 26 l-71 0 3 32 3 33 90 5 c89 6 136 21 178 59 18
15 19 14 12 -34 -3 -28 -8 -60 -11 -72 -3 -18 0 -23 16 -23 11 0 20 3 20 8 0
37 24 186 36 220 10 31 12 63 8 106 -7 71 5 106 37 106 44 0 110 24 135 49 43
42 66 104 66 180 0 79 -19 131 -63 172 l-32 30 20 22 c11 12 25 30 30 41 9 16
13 13 37 -28 17 -29 32 -44 39 -40 36 21 36 25 3 77 -42 66 -125 231 -129 256
-2 10 -8 25 -13 33 -22 27 -46 105 -55 172 -17 134 -69 205 -173 241 -53 17
-220 45 -274 45 -18 0 -46 9 -61 21 -35 26 -204 90 -213 81 -3 -4 -8 -15 -10
-25 -2 -14 15 -25 85 -51 49 -19 98 -43 110 -53 17 -15 53 -24 157 -36 134
-16 258 -48 214 -55 -46 -7 -55 -31 -46 -128 5 -49 12 -97 17 -106 6 -16 1
-18 -49 -18 -36 0 -70 -7 -94 -19 -51 -26 -156 -44 -212 -36 -89 12 -365 69
-370 75 -3 4 -16 11 -30 15 -45 14 -130 67 -141 88 -14 25 -5 127 15 165 22
42 126 137 182 164 83 42 144 52 263 42 169 -13 389 -11 444 5 47 14 49 15 43
44 -9 46 -89 227 -135 306 -23 38 -83 126 -136 195 -143 191 -195 315 -195
467 0 214 128 449 245 449 26 0 26 0 -10 -31 -47 -41 -61 -89 -46 -160 7 -30
18 -67 25 -84 11 -27 17 -30 55 -30 l43 0 25 -85 c47 -166 140 -297 378 -536
233 -234 762 -699 991 -870 113 -84 162 -101 327 -114 211 -16 674 24 1065 91
59 11 62 12 62 39 0 16 -4 32 -10 35 -5 3 -84 -6 -175 -20 -288 -45 -503 -66
-727 -72 -234 -6 -343 4 -409 38 -77 39 -333 250 -709 584 -368 327 -564 532
-658 687 -56 94 -73 159 -88 334 -13 170 -27 221 -65 248 -28 19 -111 21 -154
2z m139 -133 c3 -21 6 -71 6 -110 l0 -73 -34 0 c-31 0 -34 3 -45 44 -18 72
-14 111 15 145 34 41 50 39 58 -6z m193 -1669 c27 -8 49 -61 59 -144 l7 -63
-48 5 c-67 8 -79 24 -83 114 -5 91 5 104 65 88z m-602 -295 c190 -37 285 -37
375 2 46 20 72 24 155 24 88 0 106 -3 145 -25 44 -24 44 -25 17 -28 -42 -5
-47 -27 -36 -138 12 -115 25 -141 71 -146 l33 -3 -35 -20 c-34 -19 -54 -20
-475 -20 l-440 0 -52 27 c-57 30 -86 63 -103 114 -17 50 3 136 42 180 37 42
95 74 123 68 11 -2 92 -18 180 -35z m758 -124 c26 -52 36 -129 20 -138 -5 -2
-20 -7 -36 -11 -35 -8 -42 9 -50 122 -6 80 -6 82 16 82 18 0 29 -13 50 -55z
m-67 -301 c-3 -9 -9 -60 -12 -114 l-7 -99 31 -30 c17 -17 40 -31 51 -31 30 0
26 -16 -6 -28 -55 -21 -76 -24 -204 -23 -115 0 -136 2 -177 23 -30 14 -71 24
-112 26 -58 4 -85 -2 -234 -51 l-168 -56 -52 34 c-75 47 -134 142 -136 215 0
36 32 84 76 111 l39 24 425 5 c234 3 440 6 459 8 27 2 32 -1 27 -14z m96 -26
c34 -28 48 -125 27 -187 -12 -33 -23 -37 -64 -21 -39 15 -48 50 -34 142 10 70
13 78 33 78 12 0 29 -6 38 -12z m-444 -327 c23 -12 50 -21 62 -21 39 0 60 -35
60 -98 0 -32 5 -63 12 -70 7 -7 34 -12 60 -12 26 0 48 -3 48 -7 0 -16 -46 -72
-76 -92 -45 -31 -92 -40 -202 -41 l-93 0 -50 -40 c-28 -22 -55 -40 -60 -40 -5
0 -9 -9 -9 -20 0 -30 -34 -26 -116 14 -123 59 -174 117 -174 201 0 61 23 103
66 121 19 8 32 19 29 24 -3 5 63 32 147 60 170 56 220 60 296 21z"/>
</g>
</svg>
