<?xml version="1.0" standalone="no"?>
<!DOCTYPE svg PUBLIC "-//W3C//DTD SVG 20010904//EN"
 "http://www.w3.org/TR/2001/REC-SVG-20010904/DTD/svg10.dtd">
<svg version="1.0" xmlns="http://www.w3.org/2000/svg"
 width="500.000000pt" height="500.000000pt" viewBox="0 0 500.000000 500.000000"
 preserveAspectRatio="xMidYMid meet">
<metadata>
Created by potrace 1.15, written by Peter Selinger 2001-2017
</metadata>
<g transform="translate(0.000000,500.000000) scale(0.100000,-0.100000)"
fill="#000000" stroke="none">
<path d="M3395 4859 c-510 -48 -995 -307 -1145 -612 -52 -107 -70 -181 -70
-292 1 -228 92 -428 284 -621 114 -114 236 -199 380 -265 113 -51 109 -41 75
-216 -35 -180 -136 -462 -217 -601 -13 -24 -22 -46 -19 -49 9 -8 148 81 232
148 142 115 313 317 425 504 29 50 54 92 56 93 1 2 69 17 151 33 471 93 717
181 926 330 139 99 263 242 322 372 74 161 74 353 0 514 -62 137 -214 305
-368 407 -310 206 -652 290 -1032 255z m480 -77 c124 -27 201 -54 331 -116
154 -74 253 -143 365 -255 103 -103 162 -192 200 -301 18 -52 23 -87 23 -170
0 -83 -5 -118 -23 -170 -70 -202 -264 -401 -513 -526 -37 -19 -73 -34 -79 -34
-6 0 -35 23 -62 52 -49 48 -174 138 -195 138 -5 0 -12 14 -14 30 -4 26 0 34
26 50 61 38 117 108 185 231 14 26 30 39 60 47 22 7 47 22 56 35 31 44 13 120
-42 179 -23 24 -26 35 -28 130 -3 175 -47 280 -166 400 -64 64 -93 84 -180
127 -57 27 -133 58 -169 67 -64 17 -66 17 -110 -4 -25 -12 -74 -42 -110 -67
-35 -25 -81 -50 -102 -56 -51 -13 -114 4 -149 42 -86 92 -224 -51 -314 -325
-67 -207 -56 -376 35 -562 67 -137 126 -182 328 -248 45 -15 82 -32 82 -37 0
-5 -21 -9 -47 -9 -75 0 -181 -27 -258 -64 -78 -38 -152 -56 -225 -56 -28 0
-50 -3 -50 -7 0 -5 25 -37 56 -73 31 -36 65 -78 76 -93 l21 -29 -54 27 c-238
120 -461 345 -541 546 -107 267 -59 514 138 714 199 201 543 353 914 405 112
15 432 4 535 -18z m-187 -156 c109 -37 190 -84 263 -153 107 -101 159 -221
159 -368 l0 -81 -35 4 c-28 3 -36 9 -41 31 -3 14 -12 47 -19 73 -11 43 -11 49
6 64 45 41 2 154 -98 256 -66 67 -102 82 -179 75 -36 -4 -66 -2 -69 3 -8 13
-71 -14 -117 -50 l-36 -30 -19 38 c-10 20 -28 42 -41 48 -13 6 -22 15 -21 20
5 19 125 94 150 94 14 0 58 -11 97 -24z m-542 -57 c10 -12 36 -30 57 -39 l38
-17 -33 -21 c-36 -22 -82 -81 -116 -147 -63 -125 -86 -303 -58 -442 16 -80 16
-83 -4 -120 -30 -56 -26 -89 14 -129 19 -19 48 -37 65 -40 17 -4 38 -18 47
-32 16 -25 16 -25 -12 -18 -111 28 -197 137 -245 312 -18 66 -21 96 -16 194 5
125 31 220 99 357 31 65 113 163 135 163 5 0 18 -10 29 -21z m269 -94 c0 -60
-2 -72 -12 -59 -10 14 -14 14 -37 -1 -31 -21 -86 -103 -120 -180 -30 -67 -96
-270 -96 -295 0 -20 -47 -66 -57 -56 -5 4 -8 69 -8 144 0 164 20 244 88 343
37 56 54 70 142 121 55 32 100 58 100 58 0 0 0 -34 0 -75z m403 -9 c70 -36
183 -192 168 -232 -11 -29 -76 -6 -131 47 -29 27 -32 28 -53 13 -12 -8 -20
-20 -16 -25 10 -16 -15 -75 -45 -103 -40 -38 -71 -32 -94 17 -25 53 -52 48
-52 -10 -1 -45 -17 -70 -52 -84 -43 -16 -96 20 -132 89 l-17 34 -27 -70 c-41
-104 -81 -162 -112 -162 l-25 0 6 -82 c6 -72 11 -88 35 -116 31 -35 37 -73 15
-91 -8 -6 -39 -17 -69 -23 -65 -14 -130 1 -147 32 -14 27 16 85 76 148 40 40
50 59 69 132 30 112 66 205 111 291 38 73 54 85 54 44 0 -22 4 -25 34 -25 41
0 82 42 92 96 l6 35 19 -31 c19 -30 72 -60 132 -74 32 -8 32 -9 8 47 -19 44
-19 45 -1 75 18 30 29 34 103 40 10 1 30 -4 45 -12z m147 -351 c71 -229 -31
-503 -223 -597 -59 -29 -76 -33 -147 -33 -70 0 -89 4 -145 32 -36 18 -82 50
-103 71 l-38 39 25 38 c14 21 26 44 26 52 0 19 -28 84 -44 103 -8 8 -16 35
-20 60 -6 42 -4 48 25 75 17 17 42 51 55 78 13 26 26 47 29 47 2 0 21 -11 41
-25 56 -38 133 -29 174 20 10 12 23 15 51 10 58 -10 115 28 152 101 l16 31 55
-26 c51 -24 57 -30 71 -76z m132 -145 c23 0 82 -61 94 -97 14 -44 0 -62 -56
-67 -34 -3 -39 -7 -51 -42 -8 -22 -14 -40 -14 -41 0 -10 -30 0 -43 15 -14 15
-14 23 -1 77 7 33 14 84 14 114 0 50 1 53 23 47 12 -3 27 -6 34 -6z m-737
-605 c0 -26 38 -37 101 -30 32 4 59 4 59 1 0 -3 -25 -47 -57 -97 -39 -63 -53
-93 -44 -98 9 -6 8 -16 -4 -44 -19 -46 -19 -67 0 -67 8 0 15 -4 15 -10 0 -5
-11 -10 -25 -10 -32 0 -44 -14 -122 -140 -83 -135 -158 -234 -258 -339 -77
-81 -205 -194 -212 -187 -2 1 8 29 22 60 93 210 188 601 156 640 -6 7 -9 15
-6 18 3 3 -15 13 -40 23 -44 16 -45 18 -29 36 16 18 14 21 -31 74 -26 31 -46
57 -44 59 2 2 29 9 59 15 30 7 86 27 125 45 38 19 95 39 125 45 30 6 64 13 75
15 11 2 46 4 78 5 44 1 57 -2 57 -14z m582 -38 c60 -33 168 -122 168 -137 0
-9 -116 -49 -212 -73 -56 -15 -56 -15 -61 9 -3 20 0 24 19 24 34 0 31 22 -20
117 l-44 82 26 4 c56 8 69 6 124 -26z m-254 -33 c15 -52 22 -208 10 -219 -10
-10 -129 -37 -135 -31 -5 4 73 280 84 299 11 18 28 -2 41 -49z"/>
<path d="M1295 3490 c-193 -41 -311 -113 -338 -208 l-14 -47 -99 -12 c-117
-15 -174 -32 -274 -84 -323 -166 -477 -550 -339 -843 l21 -46 -30 -34 c-52
-59 -67 -123 -67 -281 0 -120 3 -150 23 -210 53 -158 124 -240 275 -316 54
-27 104 -49 110 -49 7 0 29 -33 49 -73 253 -493 725 -729 1159 -582 132 45
275 139 375 248 109 117 231 328 275 477 7 23 20 44 28 47 172 58 240 146 249
325 l5 96 -42 86 c-23 47 -52 93 -65 101 l-23 15 48 93 c126 245 149 459 69
649 -51 123 -158 250 -284 337 -89 62 -154 83 -274 89 l-102 5 -50 62 c-77 97
-160 141 -310 165 -101 16 -273 11 -375 -10z m440 -60 c98 -25 134 -48 197
-123 l50 -61 -38 -19 c-20 -11 -101 -33 -178 -50 -132 -29 -154 -31 -336 -31
-194 1 -343 18 -404 45 -53 24 -21 112 58 164 145 95 440 129 651 75z m467
-221 c103 -21 175 -66 283 -174 145 -145 195 -253 195 -425 0 -151 -56 -323
-156 -482 -30 -47 -30 -55 -1 -63 36 -12 63 -43 93 -108 25 -54 28 -74 27
-147 -1 -127 -29 -181 -122 -241 -66 -42 -70 -39 -54 34 21 93 28 333 11 381
-12 36 -17 40 -73 56 -189 53 -426 200 -589 365 -74 75 -179 219 -205 283 -16
38 -27 41 -36 10 -15 -47 -79 -141 -139 -202 -135 -136 -321 -235 -661 -349
-265 -89 -299 -105 -314 -148 -26 -74 2 -305 58 -478 16 -50 25 -91 20 -91
-16 0 -122 57 -167 89 -126 93 -203 355 -158 545 20 85 47 130 86 146 17 7 30
14 30 16 0 2 -16 32 -35 68 -46 82 -69 189 -60 276 28 275 235 510 513 581
101 26 191 25 243 -2 69 -35 172 -50 394 -56 206 -5 213 -5 365 26 113 23 173
40 220 65 73 37 140 44 232 25z m-567 -671 c138 -214 454 -451 725 -543 74
-25 77 -31 79 -140 2 -173 -50 -389 -139 -570 -160 -330 -412 -530 -710 -564
-190 -21 -368 26 -544 143 -91 61 -219 188 -290 288 -98 139 -183 340 -221
519 -22 105 -37 248 -30 285 8 44 30 55 255 129 303 100 451 167 595 270 68
48 182 164 210 213 11 17 22 32 25 32 3 0 23 -28 45 -62z"/>
<path d="M1953 1901 c-70 -18 -184 -106 -168 -131 5 -8 21 1 49 28 22 22 51
45 64 51 21 11 22 10 22 -27 0 -58 31 -92 81 -92 55 0 89 34 89 90 0 22 3 40
8 40 11 0 74 -40 98 -62 17 -15 24 -16 30 -7 16 27 -117 104 -196 113 -25 2
-59 1 -77 -3z"/>
<path d="M1126 1844 c-60 -19 -188 -136 -169 -155 11 -11 23 -1 73 60 11 14
72 61 79 61 3 0 5 -18 3 -39 -5 -55 30 -91 88 -91 61 0 94 36 87 96 l-5 44 54
-29 c50 -27 64 -29 64 -9 0 16 -126 69 -176 73 -29 3 -69 -2 -98 -11z"/>
<path d="M1980 1175 c-36 -6 -99 -19 -140 -28 -126 -27 -304 -40 -497 -35
l-183 4 33 -34 c152 -157 447 -197 666 -89 65 32 163 114 202 168 24 34 23 34
-81 14z m-50 -85 c-44 -36 -130 -79 -195 -96 -67 -18 -217 -18 -288 1 -55 14
-157 60 -157 70 0 3 24 2 53 -1 75 -9 387 14 487 35 47 10 96 19 110 19 24 1
24 0 -10 -28z"/>
<path d="M3550 2281 c-175 -39 -270 -91 -416 -229 -71 -68 -95 -97 -88 -106 5
-7 17 -25 27 -39 l18 -26 -60 -71 c-64 -77 -110 -162 -136 -253 -11 -40 -35
-82 -78 -138 -102 -132 -118 -160 -115 -198 3 -39 31 -64 93 -85 45 -16 42
-10 81 -194 39 -191 91 -350 130 -403 50 -68 211 -175 314 -207 71 -23 176
-32 252 -22 40 6 82 11 93 13 18 2 21 -8 34 -89 l14 -91 171 -6 c94 -4 204 -7
244 -7 l72 0 0 123 0 122 86 65 c101 76 271 248 336 340 91 128 156 282 179
425 17 109 6 297 -24 408 l-24 87 27 0 c21 0 29 6 32 24 4 21 -3 30 -53 61
-33 20 -59 40 -59 44 0 5 5 32 10 61 6 29 8 55 6 57 -2 2 -23 -6 -46 -18 l-43
-23 -16 25 c-88 134 -311 266 -561 331 -154 40 -369 48 -500 19z m418 -56
c254 -48 508 -188 598 -327 19 -31 30 -38 55 -38 29 0 31 -2 25 -26 -5 -17 -2
-32 7 -43 20 -22 60 -138 83 -236 27 -115 24 -312 -5 -420 -60 -224 -221 -449
-453 -633 l-78 -61 -62 28 c-35 16 -82 35 -106 42 -26 7 -41 17 -38 24 57 151
79 341 50 442 -5 18 -1 25 22 33 104 40 167 209 116 310 -54 108 -219 105
-276 -5 l-21 -40 -27 55 c-39 80 -132 180 -167 180 -55 0 -82 50 -101 187 -19
139 -71 217 -167 253 -61 23 -156 26 -247 9 -32 -6 -60 -8 -62 -6 -3 2 38 42
90 89 206 184 449 243 764 183z m-597 -316 c63 -14 122 -63 143 -122 8 -23 20
-78 27 -122 18 -130 49 -184 118 -206 65 -21 145 -117 172 -207 9 -32 10 -51
1 -79 -6 -21 -8 -41 -4 -44 4 -4 31 -14 60 -23 l52 -15 -5 62 c-12 119 32 192
115 192 30 0 47 -7 67 -28 24 -23 28 -35 28 -85 0 -78 -39 -146 -98 -171 -62
-27 -71 -41 -56 -93 26 -94 6 -259 -50 -422 -12 -33 -20 -60 -19 -61 2 -1 30
-9 63 -18 33 -9 81 -25 108 -37 l47 -21 0 -109 0 -110 -189 0 -189 0 -11 63
c-6 34 -13 81 -17 105 -5 33 -10 41 -23 38 -128 -39 -233 -46 -339 -21 -75 18
-145 52 -230 112 -99 70 -116 102 -178 315 -5 16 0 15 43 -4 37 -17 68 -22
138 -23 116 0 168 10 163 33 -3 9 -11 15 -19 13 -8 -2 -57 -6 -109 -9 -79 -3
-104 0 -151 17 -31 12 -63 29 -71 39 -15 16 -33 90 -60 238 l-12 61 -48 13
c-26 6 -58 20 -69 29 -27 22 -21 35 68 146 76 93 93 125 122 221 13 45 39 97
72 143 61 87 161 188 192 194 43 8 97 7 148 -4z"/>
</g>
</svg>
