<?xml version="1.0" standalone="no"?>
<!DOCTYPE svg PUBLIC "-//W3C//DTD SVG 20010904//EN"
 "http://www.w3.org/TR/2001/REC-SVG-20010904/DTD/svg10.dtd">
<svg version="1.0" xmlns="http://www.w3.org/2000/svg"
 width="500.000000pt" height="500.000000pt" viewBox="0 0 500.000000 500.000000"
 preserveAspectRatio="xMidYMid meet">
<metadata>
Created by potrace 1.15, written by Peter Selinger 2001-2017
</metadata>
<g transform="translate(0.000000,500.000000) scale(0.100000,-0.100000)"
fill="#000000" stroke="none">
<path d="M2227 4765 c-772 -98 -1427 -562 -1772 -1257 -168 -338 -245 -699
-232 -1083 12 -346 80 -620 232 -930 329 -674 964 -1135 1725 -1252 159 -24
482 -24 640 1 506 78 939 295 1290 646 351 351 568 784 646 1290 25 158 25
481 1 640 -102 663 -451 1215 -1002 1582 -268 178 -586 302 -910 354 -138 22
-479 27 -618 9z m223 -345 c0 -77 3 -93 20 -110 11 -11 29 -20 40 -20 11 0 29
9 40 20 17 17 20 33 20 110 0 104 -14 96 138 79 213 -23 454 -89 645 -178 l88
-40 -51 -81 c-27 -44 -50 -90 -50 -102 0 -28 28 -58 54 -58 35 0 32 -3 132
157 l14 23 43 -27 c150 -94 326 -248 445 -390 69 -82 174 -225 169 -229 -1 -1
-67 -41 -147 -89 -80 -48 -148 -93 -152 -99 -22 -33 7 -86 48 -86 13 0 86 38
164 85 78 47 143 85 145 85 3 0 25 -39 49 -87 111 -223 176 -468 201 -755 l7
-78 -171 0 c-158 0 -173 -2 -191 -20 -11 -11 -20 -29 -20 -40 0 -11 9 -29 20
-40 18 -18 33 -20 190 -20 l171 0 -6 -62 c-23 -240 -70 -442 -144 -622 -22
-54 -42 -101 -45 -103 -2 -2 -74 31 -159 73 -153 77 -155 77 -181 61 -31 -21
-35 -66 -8 -89 9 -9 78 -46 152 -83 74 -37 137 -69 138 -70 7 -6 -124 -205
-185 -283 -76 -96 -264 -280 -357 -350 l-70 -53 -81 125 c-45 69 -90 134 -100
146 -35 39 -95 16 -95 -37 0 -16 32 -76 81 -150 45 -69 82 -132 83 -140 1 -20
-161 -107 -304 -163 -58 -23 -163 -57 -235 -75 -117 -30 -179 -40 -367 -60
l-58 -6 0 78 c0 90 -15 123 -57 123 -50 0 -63 -24 -63 -117 l0 -85 -77 7
c-273 23 -536 91 -726 186 -54 28 -57 31 -46 52 7 12 43 77 81 144 37 68 68
133 68 145 0 48 -61 76 -93 43 -8 -8 -49 -77 -92 -155 -42 -77 -80 -140 -84
-140 -4 0 -53 31 -109 69 -126 86 -266 206 -356 306 -71 79 -196 242 -196 256
0 4 66 47 146 96 158 94 178 115 150 158 -27 41 -58 32 -215 -61 -167 -101
-145 -105 -218 46 -57 120 -126 325 -152 455 -18 92 -41 266 -41 315 0 19 6
20 174 20 160 0 175 2 200 21 31 24 33 52 6 79 -19 19 -33 20 -200 20 l-180 0
0 39 c0 80 33 290 66 418 32 128 111 341 127 342 4 1 74 -33 157 -74 82 -41
161 -75 174 -75 49 0 75 61 40 91 -10 8 -86 50 -169 94 l-153 80 60 95 c88
141 161 232 278 351 103 105 265 240 285 238 5 0 44 -48 85 -106 88 -125 99
-134 138 -113 49 28 42 58 -42 177 -51 72 -73 110 -66 118 16 20 182 102 300
148 183 72 462 133 628 136 l52 1 0 -90z"/>
<path d="M2362 4260 c-273 -35 -484 -132 -658 -305 -148 -145 -226 -285 -278
-491 -34 -134 -43 -214 -25 -214 8 0 145 -20 304 -44 160 -25 292 -42 294 -40
3 2 15 41 28 87 71 245 201 394 383 438 78 18 222 16 294 -5 144 -42 245 -120
294 -224 23 -49 27 -70 27 -147 0 -82 -3 -97 -33 -158 -43 -86 -121 -170 -287
-307 -140 -116 -289 -264 -347 -345 -57 -80 -108 -191 -135 -294 -21 -81 -26
-126 -30 -288 l-6 -193 244 -2 c134 0 273 -2 309 -2 l65 -1 6 145 c10 236 42
292 293 509 291 250 423 400 502 566 76 159 97 307 70 482 -44 292 -226 534
-515 687 -106 55 -266 110 -386 131 -112 20 -316 27 -413 15z"/>
<path d="M1060 2738 c-62 -42 -75 -71 -75 -158 0 -88 13 -115 76 -158 27 -19
43 -23 82 -19 26 2 56 12 67 22 19 18 20 17 20 -6 0 -46 -21 -99 -45 -115 -33
-21 -72 -11 -87 22 -11 24 -16 26 -56 21 -23 -2 -46 -8 -49 -11 -4 -4 3 -26
15 -51 26 -54 68 -78 137 -78 125 0 195 98 195 274 0 145 -33 224 -111 265
-44 22 -130 18 -169 -8z m131 -87 c24 -25 29 -37 29 -80 0 -60 -24 -91 -68
-91 -46 0 -67 32 -67 102 0 51 4 63 24 79 32 26 48 24 82 -10z"/>
<path d="M3790 2742 c-23 -12 -43 -35 -59 -66 -13 -26 -22 -49 -19 -51 2 -2
23 -8 46 -13 41 -10 43 -9 58 19 22 43 56 56 89 35 48 -32 26 -116 -30 -116
-23 0 -35 -22 -35 -67 0 -19 4 -22 29 -17 85 17 122 -104 48 -159 -36 -28 -76
-15 -97 31 -15 33 -16 33 -65 27 -27 -3 -51 -8 -53 -10 -10 -10 39 -95 65
-113 31 -22 112 -45 135 -38 7 2 25 7 40 10 34 8 84 50 104 88 34 66 13 160
-43 188 -15 8 -30 15 -31 16 -2 2 10 15 28 31 63 56 47 155 -32 203 -43 26
-130 27 -178 2z"/>
<path d="M2383 1439 c-69 -27 -152 -103 -186 -171 -111 -220 1 -485 232 -544
160 -40 324 43 399 204 24 50 27 69 27 162 0 93 -3 112 -27 162 -33 71 -106
146 -173 177 -72 35 -199 39 -272 10z"/>
</g>
</svg>
