<?xml version="1.0" standalone="no"?>
<!DOCTYPE svg PUBLIC "-//W3C//DTD SVG 20010904//EN"
 "http://www.w3.org/TR/2001/REC-SVG-20010904/DTD/svg10.dtd">
<svg version="1.0" xmlns="http://www.w3.org/2000/svg"
 width="500.000000pt" height="500.000000pt" viewBox="0 0 500.000000 500.000000"
 preserveAspectRatio="xMidYMid meet">
<metadata>
Created by potrace 1.15, written by Peter Selinger 2001-2017
</metadata>
<g transform="translate(0.000000,500.000000) scale(0.100000,-0.100000)"
fill="#000000" stroke="none">
<path d="M4234 4568 c-57 -49 -78 -74 -149 -174 -75 -106 -148 -178 -173 -170
-9 3 -94 21 -189 41 -191 39 -219 38 -330 -8 -86 -36 -114 -41 -268 -41 -121
-1 -146 -4 -187 -23 -51 -23 -68 -46 -68 -93 0 -103 90 -171 246 -188 67 -7
95 -5 184 14 58 13 117 23 133 24 l27 0 -45 -55 c-24 -31 -51 -68 -59 -84 -24
-46 -150 -150 -306 -253 -215 -143 -333 -261 -361 -363 -17 -61 35 -135 95
-135 51 0 134 46 190 105 30 30 58 55 63 55 6 0 30 17 54 39 24 21 64 48 89
61 25 13 59 33 76 46 32 25 54 31 54 15 0 -14 -69 -98 -162 -198 -57 -60 -98
-116 -125 -169 -70 -135 -75 -188 -23 -244 23 -24 36 -30 72 -30 59 0 101 28
146 98 47 73 203 262 244 297 55 46 55 18 0 -138 -28 -79 -53 -164 -57 -189
-17 -116 47 -238 117 -224 71 14 106 74 141 241 30 142 56 207 93 231 25 17
27 17 40 -1 8 -10 14 -26 14 -34 1 -38 101 -307 121 -323 33 -28 110 -24 138
6 35 37 37 90 7 205 -14 56 -26 112 -26 125 0 25 52 110 130 213 64 85 142
237 181 354 17 52 41 110 54 130 13 19 73 82 134 139 159 148 216 239 155 248
-15 2 -28 -9 -49 -40 -16 -24 -92 -106 -170 -183 -81 -80 -146 -153 -152 -170
-5 -16 -21 -63 -34 -104 -31 -99 -115 -264 -170 -337 -108 -140 -133 -186
-137 -246 -3 -39 2 -78 17 -127 22 -72 29 -140 17 -159 -11 -18 -53 -14 -61 6
-18 43 -93 270 -100 299 -9 42 -48 73 -93 73 -26 0 -43 -8 -72 -37 -44 -45
-72 -115 -100 -254 -11 -57 -28 -119 -38 -138 -41 -84 -84 -61 -90 48 -4 63 1
82 53 230 51 146 55 163 43 188 -29 60 -88 67 -149 16 -42 -36 -206 -234 -248
-301 -50 -79 -91 -101 -125 -66 -25 25 -19 66 25 153 30 61 65 108 145 193
120 129 164 190 164 228 0 65 -93 83 -160 30 -21 -17 -58 -39 -82 -50 -24 -10
-55 -31 -68 -46 -14 -15 -44 -35 -67 -46 -25 -11 -49 -31 -57 -47 -27 -51
-136 -118 -171 -105 -53 21 -4 126 105 226 36 33 135 106 220 163 175 116 268
196 316 271 18 29 52 73 74 100 30 34 40 53 36 68 -3 12 -6 24 -6 28 0 4 -14
15 -31 23 -34 18 -58 16 -199 -17 -173 -41 -338 5 -356 99 -6 31 -4 34 31 49
28 11 79 16 194 18 155 2 157 2 250 40 114 45 135 45 359 -3 88 -19 164 -30
178 -27 38 10 117 89 181 180 31 45 86 112 122 149 53 55 63 71 55 84 -17 27
-30 26 -70 -9z"/>
<path d="M2161 2904 c-241 -52 -454 -257 -531 -510 l-21 -71 -82 -7 c-105 -9
-254 -39 -301 -61 -59 -28 -189 -204 -336 -455 -40 -69 -86 -146 -102 -171
-30 -49 -159 -168 -386 -356 -75 -63 -139 -121 -140 -130 -4 -14 13 -32 29
-33 10 0 332 270 435 365 79 73 101 101 159 202 137 240 264 429 333 496 32
32 51 40 128 57 49 10 126 22 172 26 l82 7 0 -92 c0 -51 7 -126 16 -168 l15
-76 -32 -33 c-18 -19 -36 -34 -39 -34 -7 0 -43 101 -60 168 -6 25 -17 42 -25
42 -23 0 -18 -40 16 -137 17 -48 33 -98 36 -110 9 -38 -26 -28 -74 22 -44 47
-69 56 -79 30 -17 -43 88 -135 153 -135 33 0 167 42 241 76 29 13 55 24 58 24
3 0 29 16 58 35 88 58 300 149 310 133 1 -2 10 -30 20 -62 11 -35 30 -72 48
-89 26 -27 33 -29 84 -25 43 4 52 2 42 -7 -16 -15 -257 -155 -266 -155 -21 0
-178 -70 -247 -111 -133 -78 -196 -131 -309 -263 -132 -153 -278 -294 -374
-361 -52 -37 -71 -55 -69 -70 3 -27 34 -31 60 -8 l22 18 -20 -24 c-34 -39 -96
-76 -180 -105 -113 -40 -159 -65 -250 -139 -145 -118 -179 -152 -172 -170 12
-32 42 -16 162 84 135 114 142 118 280 170 115 43 206 106 267 182 40 51 41
52 141 74 174 39 195 49 269 124 37 37 80 75 95 83 37 18 109 97 152 163 24
37 48 59 79 74 24 12 56 38 70 58 l26 36 130 0 c116 0 139 3 204 27 109 39
178 84 268 173 131 130 203 277 223 458 33 290 -108 575 -347 700 -136 72
-293 94 -441 61z m282 -59 c299 -78 496 -390 447 -710 -40 -264 -213 -484
-443 -565 -91 -32 -270 -39 -352 -13 l-60 19 64 24 c81 30 296 152 339 194 52
48 65 81 60 148 -5 65 -24 99 -79 136 -30 21 -42 23 -99 19 -123 -10 -335 -87
-464 -170 -28 -18 -68 -40 -89 -50 l-38 -17 -19 44 c-54 120 -68 295 -36 429
34 146 126 296 234 382 68 55 182 113 254 131 73 17 212 17 281 -1z m-70 -825
c30 -35 41 -78 32 -120 -7 -34 -30 -50 -72 -50 -43 0 -69 24 -93 86 -19 52
-19 58 -5 75 15 15 66 35 102 38 6 1 22 -12 36 -29z m-492 -697 c-5 -10 -28
-39 -50 -65 -33 -37 -57 -52 -122 -77 -44 -17 -85 -31 -91 -31 -5 0 -7 12 -3
29 4 19 1 33 -9 43 -12 13 -10 20 22 57 36 41 38 41 69 29 28 -11 44 -9 110 8
43 12 79 22 81 23 1 0 -2 -7 -7 -16z"/>
</g>
</svg>
