<?xml version="1.0" standalone="no"?>
<!DOCTYPE svg PUBLIC "-//W3C//DTD SVG 20010904//EN"
 "http://www.w3.org/TR/2001/REC-SVG-20010904/DTD/svg10.dtd">
<svg version="1.0" xmlns="http://www.w3.org/2000/svg"
 width="500.000000pt" height="500.000000pt" viewBox="0 0 500.000000 500.000000"
 preserveAspectRatio="xMidYMid meet">
<metadata>
Created by potrace 1.15, written by Peter Selinger 2001-2017
</metadata>
<g transform="translate(0.000000,500.000000) scale(0.100000,-0.100000)"
fill="#000000" stroke="none">
<path d="M875 4738 c-3 -7 -4 -789 -3 -1738 l3 -1725 63 -3 c34 -2 62 -7 62
-12 0 -4 -29 -136 -65 -293 l-65 -285 0 -200 c0 -110 3 -207 6 -216 6 -15 149
-16 1524 -16 1375 0 1518 1 1524 16 3 9 6 109 6 222 l0 207 -50 159 c-27 88
-47 162 -45 165 3 2 63 -11 133 -31 110 -31 129 -33 142 -21 13 13 13 16 -2
27 -36 27 -221 69 -308 70 -91 2 -145 21 -185 67 l-20 22 20 -8 c37 -14 60
-11 60 9 0 14 -24 29 -95 60 -102 45 -207 109 -280 171 -53 45 -223 128 -367
179 -212 74 -277 129 -227 192 15 18 15 18 5 -3 -24 -49 -4 -82 59 -98 23 -5
27 -1 52 55 l26 60 -31 9 -32 9 33 1 c42 1 164 -39 245 -81 55 -29 71 -33 147
-33 47 -1 102 -5 123 -9 33 -7 37 -6 37 12 0 31 -53 47 -147 45 l-81 -2 -7 38
c-13 79 -62 121 -142 121 -15 0 -31 13 -47 38 -30 47 -63 78 -99 91 -35 14
-107 14 -141 1 -21 -8 -27 -6 -37 11 -6 11 -8 23 -6 26 10 9 553 5 646 -5 l93
-11 77 -62 c42 -35 149 -128 239 -208 90 -80 195 -167 233 -193 78 -53 143
-78 160 -61 16 16 4 30 -46 52 -24 10 -71 38 -104 60 l-61 42 -2 1542 -3 1542
-1508 3 c-1201 2 -1509 0 -1512 -10z m2975 -1528 c0 -819 -4 -1490 -8 -1490
-4 0 -25 17 -45 38 l-37 38 -2 1144 -3 1145 -1359 3 c-996 1 -1362 -1 -1372
-9 -12 -10 -14 -241 -14 -1386 l0 -1374 -42 3 -43 3 -3 1688 -2 1687 1465 0
1465 0 0 -1490z m-1262 585 c89 -66 161 -123 162 -127 0 -4 -46 -7 -102 -7
-57 0 -102 -3 -101 -8 1 -4 37 -96 81 -203 l79 -195 -143 -3 c-79 -1 -209 -1
-288 0 l-143 3 79 195 c44 107 80 199 81 203 1 5 -44 8 -100 8 -57 0 -103 3
-102 7 0 9 322 251 330 249 3 -1 79 -56 167 -122z m542 -668 c0 -8 -100 -281
-105 -286 -4 -3 -285 -7 -625 -9 l-618 -3 -16 43 c-44 119 -86 241 -86 249 0
5 314 9 725 9 399 0 725 -1 725 -3z m-1436 -189 l49 -143 -77 -735 c-42 -404
-79 -747 -82 -762 l-6 -28 -89 0 c-64 0 -89 3 -89 13 -2 29 235 1805 240 1802
3 -2 27 -68 54 -147z m1540 -336 c37 -251 70 -469 73 -485 l6 -27 -89 6 c-49
4 -90 8 -92 10 -2 1 -16 164 -32 361 l-28 358 41 118 c22 64 43 117 46 117 3
0 37 -206 75 -458z m-1674 276 c0 -7 -48 -378 -106 -824 l-107 -810 84 -240
85 -239 914 0 913 0 58 165 c33 91 66 184 75 208 l16 43 64 -61 c64 -61 119
-93 185 -105 l36 -7 42 -132 c22 -73 41 -135 41 -139 0 -4 -657 -7 -1460 -7
-1195 0 -1460 2 -1460 13 0 11 72 334 115 512 8 33 93 409 190 835 97 426 178
781 180 788 3 8 26 12 70 12 45 0 65 -4 65 -12z m1895 -455 c67 -255 119 -463
116 -463 -2 0 -25 17 -50 38 -71 59 -107 82 -129 82 -11 0 -24 6 -29 13 -9 11
-123 736 -123 780 0 15 7 18 47 15 l47 -3 121 -462z m-421 325 c8 -60 46 -569
46 -612 l0 -36 -187 -1 c-186 -1 -404 -17 -419 -31 -4 -5 -18 -8 -31 -8 -13 0
-23 -4 -23 -9 0 -16 -53 -19 -77 -4 -13 9 -34 13 -48 11 -14 -3 -26 0 -29 8
-3 7 -18 16 -33 20 -15 4 -33 11 -40 16 -6 5 -32 6 -57 3 -45 -7 -46 -8 -46
-45 0 -23 7 -43 18 -52 9 -9 70 -33 136 -54 94 -31 120 -44 127 -61 5 -13 12
-23 17 -23 4 0 16 -14 26 -31 10 -16 34 -38 54 -47 21 -9 39 -18 41 -19 2 -1
-13 -21 -33 -44 -29 -31 -36 -47 -32 -64 3 -13 1 -27 -5 -30 -5 -4 -9 -17 -8
-28 3 -32 -10 -58 -48 -92 -18 -17 -33 -36 -33 -43 0 -6 -5 -12 -11 -12 -6 0
-27 -17 -46 -37 -27 -30 -33 -45 -31 -72 2 -29 8 -36 32 -42 28 -8 36 -2 126
86 75 74 100 93 117 89 11 -3 24 -1 27 4 3 6 15 8 27 5 12 -4 32 3 49 15 l29
22 6 -58 c12 -113 14 -121 45 -137 74 -38 139 0 159 93 6 29 11 64 11 77 0 22
2 24 24 14 17 -8 26 -22 30 -50 10 -63 45 -145 73 -173 l26 -26 -707 0 -706 0
1 28 c0 15 35 353 77 752 l77 725 205 5 c113 3 393 7 622 8 l417 2 5 -42z
m-465 -704 c17 -4 42 -17 56 -30 l25 -23 -30 -42 c-16 -23 -30 -50 -30 -61 0
-29 34 -21 48 12 8 17 18 30 23 30 19 0 -4 -56 -37 -87 -27 -26 -42 -33 -74
-33 -50 0 -100 24 -100 48 0 31 48 175 62 183 16 10 18 11 57 3z m26 -294 c3
-11 22 -38 41 -61 32 -38 35 -46 28 -83 -8 -49 -39 -78 -76 -71 -15 2 -30 0
-33 -5 -4 -7 -13 -7 -24 -1 -14 8 -35 -8 -117 -90 -54 -54 -102 -99 -106 -99
-21 0 0 37 48 84 76 75 124 141 124 170 0 17 0 45 1 63 0 26 9 40 47 73 54 46
58 47 67 20z m187 -181 l61 -31 -7 -61 c-8 -80 -27 -109 -69 -105 -31 3 -32 4
-38 63 -3 33 -9 84 -13 113 -5 28 -5 52 -2 52 4 0 34 -14 68 -31z m388 -159
c56 -28 84 -48 90 -65 11 -28 5 -51 -14 -58 -15 -6 -138 16 -177 31 -26 11
-60 73 -74 140 l-7 32 51 -20 c28 -10 87 -38 131 -60z m36 -225 c59 -48 88
-54 182 -36 23 5 42 5 42 1 0 -7 -74 -220 -107 -307 l-16 -43 -878 0 -877 0
-16 43 c-64 171 -132 373 -129 380 2 4 395 7 874 7 l869 0 56 -45z m664 -695
l0 -190 -1470 0 -1470 0 0 190 0 190 1470 0 1470 0 0 -190z"/>
<path d="M2192 4560 c-80 -49 -58 -167 35 -186 40 -8 88 17 109 58 23 44 5
101 -39 128 -40 25 -64 25 -105 0z"/>
<path d="M2474 4561 c-44 -27 -60 -77 -40 -124 30 -73 120 -86 171 -25 72 86
-37 209 -131 149z"/>
<path d="M1898 2759 c-10 -5 -22 -18 -27 -27 -5 -9 -17 -128 -27 -264 l-18
-248 24 -25 23 -25 504 0 c336 0 511 4 524 11 37 19 38 48 19 300 -19 239 -20
244 -45 267 l-26 22 -467 0 c-296 0 -473 -4 -484 -11z m971 -25 c14 -18 21
-68 35 -265 l19 -243 -27 -23 -27 -23 -490 0 -490 0 -25 25 c-21 22 -24 30
-19 77 3 29 12 139 20 243 14 185 15 191 40 213 l27 23 460 -3 c456 -3 460 -3
477 -24z"/>
<path d="M1907 2726 c-15 -15 -19 -50 -38 -323 -10 -140 -10 -174 0 -187 12
-14 71 -16 517 -16 483 0 504 1 513 19 14 26 -22 485 -39 506 -18 22 -931 23
-953 1z m135 -33 l1 -38 4 38 c3 29 9 37 24 37 17 0 19 -8 21 -67 l1 -68 6 65
6 65 312 3 311 2 6 -112 c3 -62 8 -179 12 -260 l6 -148 -341 0 -341 0 -2 33
-1 32 -4 -32 c-3 -25 -9 -33 -24 -33 -17 0 -19 8 -21 68 l-2 67 -3 -67 -4 -68
-59 0 c-46 0 -61 4 -69 18 -13 24 22 467 39 487 8 10 31 15 66 15 l54 0 2 -37z
m802 21 c9 -8 16 -23 16 -32 0 -9 7 -113 16 -229 19 -247 21 -243 -62 -243
l-54 0 -1 88 c0 48 -4 161 -8 252 -4 91 -6 168 -4 173 7 13 81 7 97 -9z"/>
<path d="M2506 2445 c-9 -24 -7 -168 2 -183 6 -9 34 -12 103 -10 l94 3 0 100
0 100 -96 3 c-81 2 -98 0 -103 -13z m194 -90 l0 -96 -92 3 -93 3 -3 79 c-2 44
-1 85 2 93 4 9 29 13 96 13 l90 0 0 -95z"/>
</g>
</svg>
