<?xml version="1.0" standalone="no"?>
<!DOCTYPE svg PUBLIC "-//W3C//DTD SVG 20010904//EN"
 "http://www.w3.org/TR/2001/REC-SVG-20010904/DTD/svg10.dtd">
<svg version="1.0" xmlns="http://www.w3.org/2000/svg"
 width="500.000000pt" height="500.000000pt" viewBox="0 0 500.000000 500.000000"
 preserveAspectRatio="xMidYMid meet">
<metadata>
Created by potrace 1.15, written by Peter Selinger 2001-2017
</metadata>
<g transform="translate(0.000000,500.000000) scale(0.100000,-0.100000)"
fill="#000000" stroke="none">
<path d="M3100 4533 c-353 -253 -468 -328 -775 -511 -353 -211 -659 -370 -964
-503 -139 -61 -194 -103 -267 -205 -93 -130 -217 -432 -260 -633 -16 -73 -16
-93 -5 -174 17 -127 29 -165 56 -193 48 -48 156 -21 191 49 26 50 34 84 48
223 17 157 26 177 143 326 87 111 137 158 168 158 25 0 17 -24 -78 -245 l-82
-190 1 -145 c0 -223 38 -371 104 -405 43 -22 112 -19 145 7 44 35 55 74 55
206 0 66 3 133 6 150 6 28 8 29 37 21 41 -12 103 -11 145 0 17 5 32 9 32 7 0
-1 -15 -48 -34 -103 -91 -270 -56 -403 106 -403 l44 0 -6 -52 -5 -53 -97 -7
c-125 -9 -212 -31 -316 -79 -307 -142 -492 -432 -492 -770 0 -398 286 -745
679 -824 132 -27 297 -17 423 25 227 76 394 221 503 439 60 121 78 204 78 366
0 124 -3 150 -27 230 -71 235 -226 420 -442 527 l-86 42 4 55 c4 75 -17 80
-27 6 -3 -30 -7 -55 -8 -55 -1 0 -27 7 -57 15 -30 8 -67 15 -82 15 l-28 0 7
63 c5 54 11 67 45 105 54 59 81 124 178 422 110 341 137 412 158 408 14 -3 17
-17 16 -89 -3 -130 -23 -194 -98 -303 -70 -104 -91 -164 -74 -222 6 -25 19
-39 42 -51 79 -37 144 12 275 207 76 113 186 320 231 433 38 96 143 189 325
287 44 24 102 59 128 79 93 69 256 284 332 437 39 79 50 91 358 384 175 167
316 308 314 313 -2 6 -10 15 -19 21 -13 8 -78 -50 -339 -300 -298 -286 -325
-314 -352 -374 -52 -115 -216 -342 -300 -416 -24 -22 -84 -61 -133 -88 -215
-117 -321 -212 -368 -332 -67 -168 -214 -420 -318 -546 -46 -55 -52 -59 -86
-56 -37 3 -37 3 -36 50 0 40 9 60 66 145 76 112 93 162 110 316 l12 110 -32
28 c-89 80 -124 21 -272 -446 -70 -222 -118 -346 -137 -358 -5 -3 -4 41 4 106
8 71 9 115 3 121 -5 5 -12 8 -14 5 -3 -2 -10 -62 -17 -133 -14 -148 -22 -161
-82 -153 -67 9 -82 34 -82 130 0 72 7 99 49 222 47 136 51 142 117 214 38 40
94 111 125 157 30 47 98 129 150 183 l94 99 193 95 c268 133 442 250 585 393
61 62 112 118 112 123 0 6 -10 15 -22 22 -19 10 -25 7 -57 -32 -129 -161 -373
-330 -690 -481 -142 -68 -148 -72 -241 -167 -52 -53 -128 -145 -169 -204 -131
-190 -250 -279 -352 -263 -44 7 -109 36 -109 48 0 10 -3 11 63 -12 92 -33 118
-27 149 33 11 23 23 70 26 104 5 60 3 64 -27 92 -17 16 -48 35 -69 42 -20 6
-40 14 -44 18 -17 15 84 143 207 266 72 72 152 158 178 191 l47 62 -24 15
c-23 15 -25 14 -56 -30 l-33 -46 -19 23 c-16 19 -20 21 -36 9 -9 -7 -18 -14
-20 -15 -1 -1 5 -15 15 -32 l18 -31 -131 -133 c-139 -142 -199 -227 -260 -367
-43 -100 -54 -179 -30 -215 13 -21 16 -53 16 -173 0 -170 -9 -215 -46 -231
-87 -40 -127 28 -155 267 -18 164 -13 192 86 423 97 227 108 264 80 284 -31
23 -94 17 -137 -12 -40 -28 -186 -206 -231 -282 -36 -61 -45 -99 -57 -224 -17
-175 -41 -231 -107 -244 -26 -5 -34 -2 -46 17 -18 28 -37 144 -37 224 0 139
136 517 241 672 81 120 122 152 274 218 308 134 563 266 930 484 331 196 434
264 800 525 231 164 421 300 423 302 5 3 -22 44 -28 44 -3 0 -192 -134 -420
-297z m-1398 -1742 c24 -10 50 -26 57 -35 20 -24 16 -96 -8 -150 -17 -40 -24
-46 -50 -46 -17 0 -55 9 -86 21 -64 24 -68 37 -34 116 11 26 27 63 34 81 16
37 27 39 87 13z m191 -1021 c-30 -268 -65 -632 -60 -637 4 -3 10 -3 14 0 6 6
72 579 73 630 0 11 8 17 23 17 23 0 138 -27 145 -34 2 -2 -20 -225 -49 -495
-29 -269 -50 -493 -46 -497 4 -4 10 -5 13 -1 4 3 30 222 58 486 29 264 56 484
60 488 12 12 146 -63 210 -118 89 -76 152 -156 200 -254 62 -125 80 -205 79
-345 -1 -139 -24 -235 -83 -349 -129 -247 -367 -402 -643 -418 -461 -26 -840
353 -814 814 10 171 81 344 197 475 135 154 373 259 575 254 38 -1 50 -5 48
-16z"/>
</g>
</svg>
