<?xml version="1.0" standalone="no"?>
<!DOCTYPE svg PUBLIC "-//W3C//DTD SVG 20010904//EN"
 "http://www.w3.org/TR/2001/REC-SVG-20010904/DTD/svg10.dtd">
<svg version="1.0" xmlns="http://www.w3.org/2000/svg"
 width="500.000000pt" height="500.000000pt" viewBox="0 0 500.000000 500.000000"
 preserveAspectRatio="xMidYMid meet">
<metadata>
Created by potrace 1.15, written by Peter Selinger 2001-2017
</metadata>
<g transform="translate(0.000000,500.000000) scale(0.100000,-0.100000)"
fill="#000000" stroke="none">
<path d="M1695 4417 c-66 -22 -106 -47 -163 -101 -62 -59 -92 -110 -92 -160 0
-43 43 -179 70 -224 11 -18 20 -35 20 -37 0 -3 -61 -5 -135 -5 -218 0 -257
-19 -690 -344 -110 -82 -264 -200 -341 -260 -78 -61 -169 -131 -203 -155 -34
-24 -75 -65 -91 -90 -35 -53 -35 -60 6 -286 43 -238 110 -429 173 -494 l36
-38 162 -22 c347 -47 772 -83 1183 -101 171 -7 286 -17 350 -30 52 -10 130
-26 173 -34 43 -8 103 -27 134 -41 30 -15 74 -33 97 -41 22 -8 97 -48 167 -89
69 -41 170 -95 225 -121 54 -25 144 -67 199 -92 81 -38 116 -62 186 -127 47
-44 121 -109 164 -145 43 -36 209 -202 369 -370 160 -168 320 -336 356 -373
65 -68 66 -68 84 -48 17 19 14 23 -155 203 -275 292 -628 645 -699 698 -36 27
-80 67 -98 89 -35 43 -127 101 -232 146 -138 58 -235 107 -361 180 -180 105
-320 163 -449 187 -193 37 -226 50 -320 128 -53 44 -89 82 -95 101 -6 16 -17
34 -24 38 -11 7 -10 11 6 20 16 8 31 5 69 -14 83 -41 164 -65 222 -65 51 0 58
-3 94 -41 28 -30 43 -39 58 -34 29 9 25 20 -26 75 -54 58 -84 73 -279 145 -81
30 -172 69 -202 87 -62 38 -176 139 -217 193 l-28 36 26 25 25 26 33 -25 c53
-40 169 -94 285 -133 59 -20 140 -51 179 -69 67 -31 71 -31 82 -14 7 10 12 21
12 25 0 10 -165 81 -250 107 -134 41 -234 96 -390 213 -80 60 -148 112 -153
115 -4 3 0 41 9 83 l18 78 35 -6 c19 -3 55 -19 80 -35 88 -58 227 -124 405
-193 194 -76 283 -97 329 -79 36 14 45 38 21 57 -27 22 -187 97 -264 124 -62
22 -136 66 -226 135 -23 17 -96 55 -162 85 l-121 53 20 25 c21 27 25 82 9 113
-9 16 -7 19 14 19 67 0 368 -103 586 -200 102 -46 253 -104 335 -131 115 -37
206 -77 393 -171 202 -103 244 -121 252 -108 5 8 10 20 10 25 0 6 -57 39 -126
74 -108 54 -128 68 -140 97 -30 71 -12 177 37 223 30 28 49 27 49 -3 0 -13 8
-34 18 -47 11 -13 22 -36 26 -51 8 -34 118 -171 311 -388 81 -91 198 -229 261
-307 123 -153 179 -206 409 -390 312 -249 976 -760 1000 -769 7 -3 18 3 24 14
13 24 16 21 -204 187 -255 193 -743 574 -750 585 -3 6 -3 10 2 10 24 0 262 24
513 51 270 30 286 32 312 56 58 55 134 243 173 433 35 168 54 301 46 324 -16
41 -63 87 -175 172 -61 46 -183 140 -271 209 -88 68 -224 171 -302 227 l-143
103 2 52 c1 41 -3 56 -19 70 -11 10 -44 46 -73 81 l-53 62 -133 0 -133 0 -38
-45 c-36 -44 -39 -45 -95 -45 -32 0 -58 4 -58 9 0 5 15 45 33 88 53 123 70
181 63 217 -10 54 -96 140 -184 183 -70 35 -83 38 -161 38 -77 0 -92 -4 -147
-32 -34 -18 -84 -54 -112 -81 -49 -48 -97 -127 -86 -143 9 -15 -3 -10 -41 16
-30 20 -77 40 -163 70 -8 3 -10 13 -6 29 12 49 -66 96 -161 96 -95 0 -163 -44
-152 -98 5 -26 3 -29 -40 -42 -25 -7 -74 -35 -109 -62 -35 -26 -65 -48 -67
-48 -1 0 -1 16 1 35 2 20 -1 49 -8 65 -18 44 -120 134 -187 166 -69 32 -175
42 -238 21z m212 -71 c29 -14 53 -27 53 -30 0 -13 -115 -37 -175 -37 -64 0
-165 25 -165 40 0 10 66 40 111 52 49 12 115 2 176 -25z m1431 -1 c28 -13 52
-26 52 -29 0 -13 -115 -37 -175 -37 -64 0 -165 25 -165 41 0 7 76 43 115 53
36 10 119 -4 173 -28z m-1693 -98 c78 -32 219 -30 303 5 l63 26 25 -26 c48
-51 49 -61 10 -77 -61 -26 -176 -38 -306 -32 -116 5 -222 26 -234 46 -3 5 8
27 25 51 22 31 35 40 47 35 9 -4 40 -17 67 -28z m1393 14 c95 -48 234 -51 343
-7 l59 24 30 -35 c16 -18 30 -40 30 -47 0 -53 -376 -75 -509 -29 -30 10 -56
23 -58 28 -3 10 53 85 63 85 3 0 22 -9 42 -19z m-577 -51 c5 0 9 -89 9 -210
l0 -210 30 0 30 0 0 209 c0 204 1 209 21 214 25 7 154 -25 201 -49 47 -24 138
-103 138 -120 0 -7 22 -56 49 -108 l49 -94 -43 -11 c-59 -15 -130 -14 -142 2
-6 6 -13 26 -17 42 -10 40 -34 65 -63 65 -26 0 -29 14 -9 52 16 30 11 68 -9
68 -15 0 -44 -41 -57 -84 -5 -17 -13 -103 -18 -191 -5 -118 -12 -173 -26 -210
l-20 -50 -80 -3 -81 -3 -17 53 c-22 69 -37 187 -30 241 12 87 -30 238 -68 245
-22 4 -29 -36 -12 -69 20 -39 18 -49 -9 -49 -30 0 -53 -25 -64 -70 -8 -30 -14
-35 -41 -38 -34 -3 -117 20 -146 41 -15 11 -13 19 20 93 30 65 44 84 75 102
22 13 54 35 71 51 58 50 199 107 236 95 8 -2 18 -4 23 -4z m-889 -166 c14 -38
30 -68 35 -67 45 11 44 7 24 65 l-18 53 156 -3 c86 -2 157 -5 159 -6 1 -2 -7
-23 -17 -47 -21 -45 -19 -55 12 -61 14 -2 25 12 46 59 32 73 28 68 63 77 l28
6 -25 -65 c-13 -36 -43 -101 -65 -145 -48 -91 -78 -111 -176 -118 -95 -6 -142
19 -199 107 -43 67 -95 184 -95 216 0 11 6 12 23 6 15 -6 30 -29 49 -77z
m1392 72 c28 -12 37 -24 56 -80 13 -36 27 -66 30 -66 3 0 14 6 25 13 18 14 18
21 -10 90 -7 16 4 17 153 17 l161 0 -21 -47 c-20 -45 -20 -47 -2 -60 10 -7 21
-13 24 -13 3 0 19 31 35 69 19 44 37 72 48 75 16 4 18 1 12 -22 -10 -43 -69
-173 -99 -220 -34 -55 -90 -81 -169 -82 -105 0 -163 48 -233 195 -18 39 -35
82 -38 97 -3 15 -7 32 -11 38 -8 13 -1 13 39 -4z m964 -233 l25 -33 -167 0
c-91 0 -166 3 -166 7 0 4 12 20 27 35 27 29 28 29 141 26 l114 -3 26 -32z
m-1620 -15 c7 -7 12 -37 12 -68 l0 -57 -192 -6 c-528 -18 -1005 -100 -1229
-213 -104 -52 -160 -121 -145 -179 11 -42 71 -100 138 -133 60 -29 210 -82
233 -82 6 0 16 -19 22 -43 12 -45 33 -71 98 -125 l40 -32 -150 5 c-82 3 -278
10 -435 15 -445 16 -549 22 -566 35 -15 10 -15 14 -1 41 8 16 37 45 64 63 26
19 127 96 223 171 430 335 624 473 746 532 l89 43 154 3 154 3 27 -29 c15 -17
47 -40 71 -53 88 -46 251 -23 310 45 l21 24 67 -25 c81 -31 161 -35 189 -10
11 10 23 34 26 53 7 36 15 41 34 22z m428 -25 c14 -56 49 -76 131 -75 37 1 89
7 114 15 42 13 48 13 70 -4 39 -30 126 -52 181 -46 65 8 152 49 173 81 15 22
25 26 67 26 34 0 47 -3 42 -11 -4 -7 -6 -43 -5 -82 l2 -70 -49 7 c-117 15
-347 35 -472 41 -74 3 -172 8 -217 11 l-83 6 0 53 c0 29 3 60 6 69 11 28 30
17 40 -21z m1272 -100 l3 -33 -225 0 -226 0 0 35 0 35 223 -2 222 -3 3 -32z
m-1672 -119 c7 -33 22 -84 34 -113 l23 -52 111 3 111 3 22 45 c12 25 27 74 34
109 l13 64 181 -6 c539 -19 993 -95 1205 -202 149 -75 151 -143 7 -213 -172
-84 -483 -149 -897 -186 -178 -16 -163 -21 -237 78 -39 53 -43 64 -43 115 0
90 -38 123 -119 101 -76 -20 -125 -105 -126 -217 0 -35 0 -63 -1 -63 -1 0 -39
18 -86 39 -47 22 -139 56 -204 77 -65 20 -214 79 -330 130 -223 98 -520 198
-624 210 -101 11 -180 -45 -180 -128 0 -68 33 -97 196 -168 88 -39 175 -85
213 -114 l66 -48 -56 5 c-60 6 -119 32 -219 96 -108 70 -189 75 -252 14 l-27
-26 -88 28 c-102 32 -195 77 -229 110 -139 139 356 305 1056 355 220 15 255
17 349 16 l84 -1 13 -61z m1564 26 l165 0 216 -163 c119 -89 267 -203 330
-252 63 -50 138 -108 166 -129 85 -61 118 -117 76 -130 -51 -15 -746 -43
-1313 -52 l-395 -6 -45 46 c-24 25 -41 46 -37 46 48 0 428 46 545 65 563 95
772 260 535 421 -63 43 -247 109 -373 134 -36 7 -69 17 -75 23 -7 6 -2 8 15 3
14 -3 99 -6 190 -6z m-3566 -740 c99 -5 364 -15 587 -21 l407 -13 -9 -25 c-16
-40 -1 -78 62 -155 71 -89 180 -183 261 -226 l60 -32 -29 -18 c-38 -23 -59
-73 -47 -108 5 -15 24 -36 42 -47 36 -22 155 -116 150 -119 -5 -3 -304 12
-493 24 -245 16 -558 46 -800 76 -239 30 -237 29 -285 129 -48 102 -106 326
-134 518 -5 38 -4 39 21 32 14 -3 107 -10 207 -15z m4552 -32 c-21 -163 -79
-383 -128 -491 -50 -108 -52 -109 -284 -136 -216 -25 -584 -60 -624 -61 -45 0
-254 187 -368 330 -55 69 -141 172 -191 230 l-92 105 48 7 c26 3 143 7 258 7
381 2 1249 35 1330 51 22 4 44 8 49 9 5 1 6 -23 2 -51z"/>
<path d="M1630 1744 c0 -11 325 -544 332 -544 5 0 29 31 54 70 l47 70 26 -19
c166 -116 996 -684 1005 -687 11 -4 117 136 115 153 0 5 -230 165 -510 357
-281 193 -512 353 -514 356 -2 4 16 36 40 73 l44 66 -27 5 c-66 14 -588 106
-599 106 -7 0 -13 -3 -13 -6z"/>
</g>
</svg>
