<?xml version="1.0" standalone="no"?>
<!DOCTYPE svg PUBLIC "-//W3C//DTD SVG 20010904//EN"
 "http://www.w3.org/TR/2001/REC-SVG-20010904/DTD/svg10.dtd">
<svg version="1.0" xmlns="http://www.w3.org/2000/svg"
 width="500.000000pt" height="500.000000pt" viewBox="0 0 500.000000 500.000000"
 preserveAspectRatio="xMidYMid meet">
<metadata>
Created by potrace 1.15, written by Peter Selinger 2001-2017
</metadata>
<g transform="translate(0.000000,500.000000) scale(0.100000,-0.100000)"
fill="#000000" stroke="none">
<path d="M105 3628 c-3 -7 -4 -519 -3 -1138 l3 -1125 1133 -3 1132 -2 0 1140
0 1140 -1130 0 c-895 0 -1132 -3 -1135 -12z m2165 -1128 l0 -1035 -1032 0
-1033 0 -3 1038 -2 1037 1035 -2 1035 -3 0 -1035z"/>
<path d="M3597 3604 c-347 -63 -656 -300 -802 -617 -219 -474 -79 -1034 338
-1348 102 -77 256 -152 382 -186 91 -24 116 -27 280 -27 151 0 192 4 255 21
308 85 535 253 692 513 114 189 166 424 146 660 -40 490 -417 900 -905 985
-105 18 -282 18 -386 -1z"/>
</g>
</svg>
