<?xml version="1.0" standalone="no"?>
<!DOCTYPE svg PUBLIC "-//W3C//DTD SVG 20010904//EN"
 "http://www.w3.org/TR/2001/REC-SVG-20010904/DTD/svg10.dtd">
<svg version="1.0" xmlns="http://www.w3.org/2000/svg"
 width="500.000000pt" height="500.000000pt" viewBox="0 0 500.000000 500.000000"
 preserveAspectRatio="xMidYMid meet">
<metadata>
Created by potrace 1.15, written by Peter Selinger 2001-2017
</metadata>
<g transform="translate(0.000000,500.000000) scale(0.100000,-0.100000)"
fill="#000000" stroke="none">
<path d="M3613 4705 c-115 -35 -210 -127 -243 -232 -21 -70 -25 -93 -12 -93 4
0 50 -7 102 -15 52 -8 98 -15 102 -15 3 0 12 17 18 38 32 99 88 142 185 142
101 0 168 -52 168 -130 0 -53 -17 -76 -117 -159 -143 -120 -174 -173 -179
-307 l-2 -69 106 -3 107 -3 7 58 c8 74 29 103 128 183 91 74 161 162 178 223
6 23 9 67 6 98 -11 129 -108 233 -258 280 -72 23 -231 25 -296 4z"/>
<path d="M2910 3775 l-105 -105 373 -373 372 -372 -372 -372 -373 -373 90 -91
c50 -50 98 -95 109 -101 16 -9 66 37 387 358 l369 369 370 -370 370 -370 105
105 105 105 -370 370 -370 370 372 372 373 373 -105 105 -105 105 -372 -372
-373 -373 -373 373 -372 372 -105 -105z"/>
<path d="M997 3769 c-110 -11 -187 -34 -302 -89 -231 -111 -405 -325 -472
-578 -31 -120 -36 -306 -10 -414 80 -331 319 -584 637 -673 l75 -21 -2 -75
c-2 -67 -6 -83 -47 -159 -77 -145 -83 -186 -90 -565 -3 -181 -9 -471 -13 -642
l-6 -313 273 0 273 0 -7 302 c-20 1004 -20 955 0 961 11 3 303 72 649 152 406
93 639 152 655 163 14 11 35 33 46 50 47 68 48 61 -131 640 -181 581 -222 688
-301 772 -37 40 -59 54 -110 70 -79 24 -215 50 -263 50 -30 0 -40 5 -52 26
-20 39 -168 174 -232 212 -173 104 -376 151 -570 131z m274 -194 c107 -29 250
-107 307 -167 l22 -24 -55 -23 c-31 -13 -69 -39 -89 -61 -46 -51 -55 -98 -30
-158 29 -70 59 -83 222 -95 75 -5 138 -11 140 -12 2 -2 12 -41 22 -87 20 -92
39 -141 76 -199 l24 -39 -37 -23 c-21 -12 -47 -27 -58 -33 -23 -13 -33 -31
-76 -138 -82 -204 -313 -338 -610 -353 -135 -7 -230 12 -359 74 -82 39 -107
58 -185 137 -134 135 -199 274 -212 455 -24 350 223 683 557 750 30 6 64 13
75 15 37 9 209 -4 266 -19z m754 -335 c44 -12 90 -31 102 -42 32 -30 97 -158
81 -158 -8 0 -30 -8 -51 -19 l-36 -19 -25 33 c-36 47 -86 95 -121 117 -24 15
-53 18 -155 19 -189 2 -275 11 -275 28 0 20 53 50 107 61 74 16 283 5 373 -20z
m195 -912 c41 -131 72 -239 69 -242 -10 -8 -1053 -245 -1060 -240 -5 3 -9 36
-9 74 l0 69 58 11 c106 21 196 51 292 98 78 38 110 61 181 132 75 73 93 99
135 186 44 90 54 104 98 130 57 34 103 84 113 121 8 33 12 21 123 -339z"/>
<path d="M1566 3009 c-55 -43 -21 -139 50 -139 60 0 97 55 74 110 -21 50 -80
64 -124 29z"/>
<path d="M3664 3737 c-110 -100 14 -270 147 -201 45 23 73 91 59 144 -15 55
-62 90 -124 90 -38 0 -52 -6 -82 -33z"/>
</g>
</svg>
