<?xml version="1.0" standalone="no"?>
<!DOCTYPE svg PUBLIC "-//W3C//DTD SVG 20010904//EN"
 "http://www.w3.org/TR/2001/REC-SVG-20010904/DTD/svg10.dtd">
<svg version="1.0" xmlns="http://www.w3.org/2000/svg"
 width="500.000000pt" height="500.000000pt" viewBox="0 0 500.000000 500.000000"
 preserveAspectRatio="xMidYMid meet">
<metadata>
Created by potrace 1.15, written by Peter Selinger 2001-2017
</metadata>
<g transform="translate(0.000000,500.000000) scale(0.100000,-0.100000)"
fill="#000000" stroke="none">
<path d="M2367 4866 c-109 -41 -192 -163 -238 -351 -22 -93 -26 -211 -6 -217
9 -4 12 -41 12 -140 l1 -135 -63 -32 -62 -32 -29 -83 c-126 -346 -240 -1137
-178 -1231 36 -54 117 -81 166 -55 11 6 25 29 32 53 7 23 17 47 23 53 7 7 17
71 25 143 7 72 15 131 19 131 29 -1 27 -25 -20 -260 -75 -384 -139 -783 -127
-796 3 -2 40 -7 82 -11 47 -4 80 -11 83 -18 2 -7 10 -123 16 -258 l12 -244
-52 -52 c-88 -88 -91 -161 -7 -177 82 -15 177 17 232 80 17 20 36 36 41 36 28
0 40 32 36 93 -2 34 5 162 16 285 10 122 19 225 19 228 0 6 129 -2 135 -8 4
-5 35 -410 38 -498 2 -76 4 -86 24 -96 12 -6 32 -23 44 -38 70 -89 276 -116
295 -39 10 39 -4 70 -61 131 l-54 59 11 250 12 251 50 11 c28 6 62 20 75 30
l23 18 -11 124 c-21 218 -82 669 -117 857 -4 20 -2 32 5 32 6 0 12 12 12 28 1
15 10 -44 21 -132 12 -102 24 -164 34 -173 8 -8 14 -23 14 -32 0 -10 9 -30 21
-45 56 -71 205 5 199 102 -1 15 -1 32 0 37 9 47 -20 317 -60 560 -36 216 -77
392 -127 539 -34 100 -40 110 -77 133 -22 14 -55 32 -73 39 l-33 14 0 134 c0
115 2 135 16 140 43 16 -22 316 -91 425 -31 50 -89 100 -144 124 -58 25 -163
32 -214 13z m198 -65 c49 -22 99 -70 125 -122 24 -47 25 -49 1 -49 -29 0 -69
37 -76 73 -11 50 -15 50 -45 8 -33 -44 -87 -84 -175 -128 -67 -34 -194 -78
-201 -70 -8 8 44 155 70 195 73 114 179 147 301 93z m46 -195 c15 -13 48 -27
71 -31 24 -4 46 -13 50 -19 4 -6 8 -38 8 -72 0 -158 -91 -293 -220 -324 -65
-15 -139 5 -197 55 -47 40 -98 135 -108 201 l-6 41 48 12 c59 15 235 99 282
135 19 14 37 26 39 26 2 0 17 -11 33 -24z m-383 -365 c18 -27 48 -61 67 -75
25 -20 35 -35 35 -55 0 -25 -5 -29 -47 -39 -27 -6 -58 -14 -70 -18 -23 -6 -23
-6 -23 115 0 66 1 121 3 121 2 0 18 -22 35 -49z m520 -186 c-2 -2 -31 4 -65
13 -58 15 -63 19 -63 44 0 19 10 35 34 53 18 14 47 44 62 67 l29 41 3 -108 c1
-59 1 -109 0 -110z m-182 30 c-2 -11 -21 -104 -42 -208 -20 -103 -39 -186 -41
-183 -9 9 -93 350 -93 379 l0 32 90 0 c86 0 91 -1 86 -20z m-177 -257 c29
-112 57 -220 62 -240 8 -32 14 -38 38 -38 l27 0 45 231 c24 127 47 235 50 241
9 14 134 -24 220 -68 63 -31 69 -37 87 -86 50 -135 99 -332 136 -553 27 -163
69 -515 62 -522 -2 -2 -32 -11 -67 -19 -56 -13 -65 -13 -74 0 -6 8 -17 68 -24
133 -18 169 -69 543 -87 643 -17 90 -26 110 -54 110 -14 0 -21 -19 -37 -99
l-20 -100 34 -222 c25 -166 31 -224 22 -230 -24 -14 -208 -31 -344 -32 -159 0
-314 18 -322 38 -2 8 14 113 37 233 l42 220 -32 96 c-17 53 -37 96 -43 96 -27
0 -38 -20 -52 -87 -14 -69 -72 -485 -96 -695 -9 -83 -16 -109 -28 -113 -16 -5
-118 18 -129 30 -8 7 13 219 39 395 35 247 76 431 136 618 l36 113 73 36 c58
28 170 68 205 72 3 1 29 -90 58 -201z m-102 -899 c114 -12 342 -7 448 11 32 5
63 6 67 2 15 -16 108 -675 124 -878 8 -110 10 -108 -117 -123 -146 -19 -592
-10 -783 15 l-48 6 7 57 c12 109 56 359 111 644 43 220 60 287 70 283 7 -3 62
-10 121 -17z m53 -1056 c5 -5 -30 -435 -37 -445 -2 -5 -10 -8 -17 -8 -6 0 -30
-18 -51 -40 -59 -60 -70 -55 -70 33 0 39 -4 164 -9 275 l-9 204 94 -7 c52 -4
96 -9 99 -12z m445 -110 c-17 -311 -20 -404 -11 -413 7 -7 2 -10 -12 -10 -13
0 -37 15 -55 33 -18 17 -43 39 -56 47 -20 14 -23 28 -36 175 -8 88 -17 186
-20 217 -6 56 -6 57 22 61 15 2 61 5 101 6 l73 1 -6 -117z"/>
<path d="M812 4834 c-65 -32 -115 -89 -159 -181 -33 -69 -35 -78 -34 -172 2
-151 36 -243 120 -326 23 -21 41 -46 41 -55 0 -11 -32 -25 -111 -49 -123 -38
-191 -76 -212 -118 -24 -45 -93 -268 -126 -403 -42 -173 -85 -393 -115 -595
-14 -93 -28 -182 -31 -197 -2 -16 -1 -28 4 -28 5 0 8 -17 7 -38 -1 -65 46
-117 117 -129 31 -5 41 -1 67 25 16 17 30 39 30 51 0 11 6 26 13 33 7 7 39
158 70 335 85 469 84 470 51 -57 -11 -191 -116 -1356 -138 -1541 -3 -34 -1
-37 25 -43 22 -4 30 -13 39 -44 5 -22 19 -51 30 -64 43 -55 145 -77 207 -44
37 18 91 78 98 109 4 12 21 29 38 37 31 14 32 18 34 80 2 36 10 299 18 584 9
286 16 521 18 521 1 1 14 5 30 9 24 6 27 4 28 -21 0 -16 19 -289 42 -608 l42
-580 32 -3 c29 -3 33 -8 39 -40 9 -50 29 -86 60 -111 22 -17 41 -21 100 -21
40 0 85 5 99 12 32 14 60 61 70 113 4 22 12 46 18 53 6 8 10 35 9 60 -3 64
-55 570 -98 947 -30 268 -50 547 -67 938 -7 159 -3 145 83 -332 27 -150 54
-279 59 -285 4 -6 14 -28 20 -48 23 -70 75 -85 146 -43 75 43 85 113 50 344
-58 375 -152 780 -226 971 l-30 78 -87 45 c-48 25 -120 55 -159 68 -40 13 -73
27 -73 31 0 5 22 31 49 58 88 87 126 207 117 362 -4 64 -11 94 -36 144 -80
162 -273 240 -418 168z m233 -53 l47 -21 -22 -30 c-37 -52 -169 -105 -322
-128 -68 -11 -70 -7 -29 63 78 135 192 175 326 116z m80 -165 c26 -24 55 -51
66 -60 16 -13 19 -29 19 -98 -1 -168 -90 -299 -223 -328 -152 -34 -296 102
-314 295 -10 108 -9 109 104 128 113 18 230 55 270 86 15 11 29 21 29 21 1 0
23 -20 49 -44z m-185 -541 c36 0 75 4 88 8 36 13 28 -16 -29 -109 l-52 -84
-58 78 c-62 82 -77 130 -36 115 12 -4 51 -8 87 -8z m258 -71 c35 -13 90 -38
122 -55 58 -31 58 -31 89 -117 70 -197 133 -466 191 -804 22 -131 40 -246 40
-257 0 -15 -14 -22 -72 -35 -39 -9 -72 -15 -73 -14 -1 2 -14 75 -29 163 -47
268 -125 654 -140 690 -16 38 -36 44 -56 20 -10 -13 -12 -72 -7 -278 4 -144
10 -299 13 -344 l7 -83 -157 0 -156 0 0 485 0 485 56 90 c63 102 52 99 172 54z
m-334 -63 l66 -88 0 -482 0 -481 -167 0 -166 0 6 98 c21 313 28 569 18 595
-13 33 -35 35 -55 5 -17 -27 -57 -216 -126 -592 -27 -148 -51 -270 -52 -272
-2 -1 -35 5 -73 14 -82 20 -77 -8 -39 237 49 310 116 602 186 813 46 139 61
157 164 193 54 19 150 47 165 48 4 1 37 -39 73 -88z m420 -1127 c3 -9 6 -39 6
-67 0 -29 22 -254 50 -502 81 -743 92 -865 80 -880 -6 -7 -15 -39 -20 -71 -5
-32 -16 -64 -24 -72 -16 -17 -102 -28 -140 -18 -33 8 -49 39 -56 106 -5 54 -6
55 -40 60 l-35 5 -43 610 c-23 335 -44 610 -46 612 -2 2 -37 -2 -79 -9 l-75
-11 -6 -81 c-3 -45 -10 -270 -16 -501 -6 -231 -13 -462 -16 -512 l-6 -93 -29
0 c-26 0 -29 -3 -29 -31 0 -18 -9 -47 -21 -66 -65 -105 -219 -69 -219 52 0 41
-2 45 -24 45 -14 0 -27 3 -29 8 -3 4 22 284 54 622 32 338 61 659 65 713 l7
97 342 0 c303 0 344 -2 349 -16z"/>
<path d="M3966 2094 c-189 -46 -379 -215 -491 -439 -76 -151 -143 -455 -152
-692 -6 -142 -6 -143 16 -143 12 0 23 -6 26 -12 2 -7 5 -116 7 -241 l4 -228
-61 -44 c-105 -74 -144 -132 -113 -163 18 -18 24 -16 77 37 27 27 77 68 111
91 64 43 328 176 335 168 2 -2 33 -71 67 -153 52 -122 68 -151 85 -153 13 -2
26 4 31 15 8 14 -4 54 -53 173 -75 184 -74 190 25 159 107 -35 257 -28 362 16
13 5 21 0 29 -18 9 -20 4 -46 -31 -160 -43 -135 -45 -162 -14 -174 26 -10 40
16 79 142 20 66 40 123 44 128 12 12 182 -77 266 -140 44 -34 97 -79 117 -102
40 -45 49 -48 72 -25 22 22 20 29 -17 71 l-33 38 -12 165 c-6 91 -19 212 -27
270 -23 150 -23 144 2 148 32 5 36 32 30 200 -6 175 -23 270 -83 480 -70 246
-150 391 -266 480 -139 105 -285 142 -432 106z m224 -76 c132 -39 252 -151
324 -300 52 -107 93 -256 87 -314 -1 -15 -66 -3 -143 26 -117 44 -187 127
-204 243 -3 26 -9 47 -13 47 -3 0 -22 -23 -41 -52 -80 -117 -295 -225 -558
-277 -152 -31 -166 -31 -171 -1 -5 37 18 127 50 198 76 168 217 325 352 392
118 58 212 70 317 38z m44 -502 c51 -88 156 -152 298 -183 l77 -16 6 -40 c16
-93 -24 -297 -81 -410 -111 -221 -291 -347 -495 -347 -103 0 -188 27 -275 88
-168 119 -274 341 -274 578 l0 103 38 7 c282 48 505 128 627 224 28 21 51 39
52 39 0 1 13 -19 27 -43z m-773 -600 c49 -146 128 -264 231 -344 l60 -46 -49
-23 c-26 -12 -94 -44 -150 -70 l-102 -48 -7 75 c-4 41 -4 151 -1 243 l6 168
-31 6 -31 6 7 114 c9 143 18 170 28 79 5 -38 22 -110 39 -160z m1172 -186 c33
-211 48 -410 32 -410 -3 0 -27 16 -54 35 -53 39 -229 125 -254 125 -9 0 -19
10 -23 22 -5 17 0 26 22 41 64 44 180 174 214 239 19 37 38 64 41 60 3 -4 14
-54 22 -112z"/>
<path d="M3825 790 c-10 -17 3 -29 68 -62 112 -56 261 -49 344 18 22 18 26 25
16 35 -10 10 -25 7 -74 -17 -88 -42 -169 -41 -263 4 -75 35 -82 37 -91 22z"/>
<path d="M884 904 c-60 -136 -110 -251 -112 -255 -2 -5 34 -9 80 -11 l83 -3 3
-248 2 -247 66 0 66 0 -4 245 -3 245 79 0 c59 0 77 3 73 13 -82 197 -210 494
-216 500 -4 4 -57 -103 -117 -239z"/>
<path d="M2373 897 l-112 -252 85 -3 84 -3 0 -249 0 -250 65 0 65 0 0 245 0
245 76 0 c68 0 75 2 69 18 -30 80 -211 502 -215 502 -3 0 -55 -114 -117 -253z"/>
</g>
</svg>
