<?xml version="1.0" standalone="no"?>
<!DOCTYPE svg PUBLIC "-//W3C//DTD SVG 20010904//EN"
 "http://www.w3.org/TR/2001/REC-SVG-20010904/DTD/svg10.dtd">
<svg version="1.0" xmlns="http://www.w3.org/2000/svg"
 width="500.000000pt" height="500.000000pt" viewBox="0 0 500.000000 500.000000"
 preserveAspectRatio="xMidYMid meet">
<metadata>
Created by potrace 1.15, written by Peter Selinger 2001-2017
</metadata>
<g transform="translate(0.000000,500.000000) scale(0.100000,-0.100000)"
fill="#000000" stroke="none">
<path d="M3716 4714 c-320 -72 -559 -296 -648 -609 -30 -106 -32 -314 -5 -420
46 -174 168 -361 303 -464 157 -118 317 -173 514 -174 184 -1 321 39 468 137
176 117 308 305 359 512 25 102 22 295 -6 399 -80 301 -305 527 -606 610 -87
23 -292 29 -379 9z m379 -104 c362 -114 589 -465 535 -825 -33 -224 -161 -420
-350 -537 -300 -186 -683 -140 -930 111 -157 160 -230 353 -217 573 20 335
263 618 593 692 98 22 276 15 369 -14z"/>
<path d="M440 4555 l-85 -85 423 -423 422 -422 -107 -107 c-59 -59 -105 -109
-103 -111 9 -6 783 -187 787 -184 3 4 -178 778 -184 786 -2 3 -52 -43 -111
-102 l-107 -107 -420 420 c-231 231 -422 420 -425 420 -3 0 -44 -38 -90 -85z"/>
<path d="M2400 3339 c-346 -40 -631 -291 -720 -634 -30 -112 -30 -279 -2 -397
138 -571 793 -831 1285 -509 331 218 465 647 318 1016 -141 351 -505 568 -881
524z m267 -105 c220 -49 404 -195 503 -399 65 -134 84 -225 77 -369 -10 -219
-103 -408 -265 -542 -132 -109 -273 -163 -448 -171 -144 -7 -234 12 -373 78
-88 43 -116 63 -186 132 -130 130 -202 274 -224 454 -28 227 49 445 218 614
191 191 435 262 698 203z"/>
<path d="M972 1949 c-423 -75 -722 -450 -699 -874 4 -60 14 -137 23 -170 81
-300 307 -525 609 -606 112 -31 306 -31 420 0 273 73 498 283 586 547 111 329
9 695 -255 916 -80 67 -237 148 -336 173 -77 20 -273 28 -348 14z m282 -93
c151 -29 272 -94 387 -206 251 -247 297 -630 111 -930 -200 -322 -606 -445
-950 -289 -419 190 -570 712 -317 1099 83 128 223 239 367 291 135 50 265 61
402 35z"/>
</g>
</svg>
