<?xml version="1.0" standalone="no"?>
<!DOCTYPE svg PUBLIC "-//W3C//DTD SVG 20010904//EN"
 "http://www.w3.org/TR/2001/REC-SVG-20010904/DTD/svg10.dtd">
<svg version="1.0" xmlns="http://www.w3.org/2000/svg"
 width="500.000000pt" height="500.000000pt" viewBox="0 0 500.000000 500.000000"
 preserveAspectRatio="xMidYMid meet">
<metadata>
Created by potrace 1.15, written by Peter Selinger 2001-2017
</metadata>
<g transform="translate(0.000000,500.000000) scale(0.100000,-0.100000)"
fill="#000000" stroke="none">
<path d="M2309 4850 c-128 -32 -241 -103 -351 -219 -168 -178 -273 -410 -329
-729 -18 -103 -23 -165 -23 -322 1 -348 57 -611 190 -879 100 -204 229 -361
395 -484 103 -76 151 -133 209 -252 92 -189 101 -318 46 -652 -52 -314 -61
-401 -60 -603 0 -251 31 -371 120 -469 59 -66 122 -94 227 -99 83 -4 91 -3
153 28 106 52 153 131 175 295 19 149 -21 416 -96 633 -18 53 -58 169 -89 257
-69 196 -86 283 -86 430 0 226 38 325 189 495 268 301 381 562 411 947 13 154
2 379 -25 536 -91 520 -365 932 -706 1062 -63 24 -91 28 -194 31 -66 2 -136
-1 -156 -6z m311 -69 c105 -36 197 -97 296 -195 227 -228 372 -572 415 -985
15 -142 6 -434 -16 -556 -50 -275 -175 -512 -393 -747 -126 -136 -177 -259
-188 -463 -10 -178 13 -279 165 -715 117 -336 144 -645 69 -795 -48 -95 -108
-130 -223 -129 -97 0 -143 20 -203 90 -76 85 -104 202 -104 424 0 177 12 290
60 575 58 351 49 510 -43 697 -57 117 -126 201 -231 279 -306 229 -490 581
-550 1052 -20 160 -15 463 10 600 88 470 328 805 634 882 80 20 219 14 302
-14z"/>
<path d="M2345 4720 c-290 -60 -522 -359 -615 -795 -27 -127 -38 -432 -21
-586 26 -229 85 -431 178 -610 76 -148 162 -257 314 -400 188 -177 283 -311
325 -459 21 -75 30 -366 15 -501 -7 -57 -28 -196 -48 -309 -58 -322 -51 -508
25 -669 64 -137 170 -195 294 -161 49 14 110 84 132 152 24 74 31 223 17 348
-10 84 -29 155 -96 361 -141 427 -168 574 -147 799 15 152 42 266 79 329 15
25 69 89 121 141 191 193 308 418 358 688 22 116 29 412 15 554 -33 316 -138
601 -299 813 -179 235 -423 350 -647 305z m282 -40 c274 -96 523 -446 611
-861 36 -169 45 -276 39 -501 -4 -181 -9 -229 -30 -318 -65 -272 -151 -429
-351 -638 -145 -152 -171 -214 -196 -472 -22 -218 20 -448 150 -811 73 -204
90 -281 97 -431 9 -203 -20 -319 -95 -376 -31 -24 -45 -27 -107 -27 -60 0 -78
4 -108 25 -74 50 -133 167 -156 311 -19 114 -13 217 29 461 53 319 64 432 57
612 -12 312 -70 417 -419 754 -225 216 -360 503 -413 873 -8 57 -14 129 -13
159 0 42 3 33 9 -39 47 -531 325 -974 674 -1077 83 -24 210 -22 297 5 261 83
470 386 543 788 22 121 30 356 16 482 -41 376 -171 676 -382 883 -112 110
-228 172 -356 190 -308 44 -590 -191 -723 -602 -37 -113 -66 -278 -79 -450
l-10 -125 5 135 c20 528 248 947 575 1056 64 21 87 24 174 20 68 -3 120 -11
162 -26z m-46 -56 c197 -58 390 -249 504 -498 294 -646 129 -1517 -330 -1735
-342 -163 -721 93 -903 610 -89 252 -115 596 -67 864 70 385 271 675 523 756
73 23 200 24 273 3z"/>
</g>
</svg>
