<?xml version="1.0" standalone="no"?>
<!DOCTYPE svg PUBLIC "-//W3C//DTD SVG 20010904//EN"
 "http://www.w3.org/TR/2001/REC-SVG-20010904/DTD/svg10.dtd">
<svg version="1.0" xmlns="http://www.w3.org/2000/svg"
 width="500.000000pt" height="500.000000pt" viewBox="0 0 500.000000 500.000000"
 preserveAspectRatio="xMidYMid meet">
<metadata>
Created by potrace 1.15, written by Peter Selinger 2001-2017
</metadata>
<g transform="translate(0.000000,500.000000) scale(0.100000,-0.100000)"
fill="#000000" stroke="none">
<path d="M3475 4581 c-42 -25 -61 -49 -86 -106 -45 -101 -7 -256 74 -306 44
-27 71 -32 115 -24 47 9 113 75 130 132 17 56 15 156 -4 201 -42 103 -151 152
-229 103z m139 -61 c82 -72 78 -234 -6 -305 -82 -69 -188 19 -188 155 0 144
107 226 194 150z"/>
<path d="M3952 4579 c-18 -12 -45 -42 -60 -68 -24 -41 -27 -56 -27 -137 0 -83
2 -94 30 -139 74 -120 211 -118 283 3 24 42 27 57 27 137 0 80 -3 95 -27 137
-15 25 -43 56 -62 67 -45 28 -120 28 -164 0z m144 -45 c69 -45 86 -200 31
-282 -36 -56 -91 -73 -138 -46 -106 62 -105 278 1 336 37 20 66 18 106 -8z"/>
<path d="M1225 4240 c-13 -14 -22 -17 -29 -10 -17 17 -48 11 -53 -9 -3 -11
-28 -31 -58 -45 -58 -29 -137 -107 -178 -177 -80 -136 -109 -514 -52 -654 32
-75 86 -155 105 -155 10 0 22 5 25 10 3 6 10 10 15 10 14 0 -8 -53 -28 -68 -9
-7 -46 -41 -82 -76 -61 -59 -71 -65 -180 -100 -153 -50 -270 -107 -308 -150
-27 -31 -31 -44 -37 -123 -7 -83 9 -1321 21 -1651 6 -142 8 -155 30 -181 13
-16 37 -34 54 -41 18 -7 30 -20 30 -31 0 -10 -11 -123 -25 -251 -23 -207 -24
-234 -10 -247 32 -32 42 4 67 247 14 128 28 235 31 239 4 3 17 2 30 -4 l23
-11 -17 -183 c-23 -241 -23 -288 -3 -296 8 -3 20 -1 25 4 5 5 19 110 30 234
12 123 22 225 24 227 1 2 38 -6 81 -17 93 -23 355 -75 470 -92 l82 -12 6 -36
c3 -20 6 -95 6 -167 0 -113 2 -133 16 -138 37 -14 42 8 36 169 l-5 155 37 0
c20 0 39 -6 41 -12 3 -7 8 -80 13 -163 7 -141 8 -150 27 -150 19 0 20 8 23
153 2 144 4 152 22 152 19 0 20 -7 20 -149 0 -130 2 -150 17 -155 32 -13 38
12 38 157 0 140 0 142 23 145 20 3 22 0 22 -50 0 -131 13 -247 28 -253 25 -9
44 15 38 49 -3 17 -6 83 -7 146 l-1 115 73 17 c41 9 79 17 86 18 17 0 29 -53
47 -204 9 -72 20 -134 25 -139 5 -5 17 -7 25 -4 20 8 21 53 1 199 -26 191 -38
211 -150 264 -122 57 -361 123 -807 223 -98 22 -190 46 -205 53 -50 24 -65
130 -39 278 l11 65 275 -4 c290 -3 416 6 551 40 l76 19 114 -51 c424 -187 682
-361 723 -489 23 -69 43 -190 61 -365 22 -213 24 -225 41 -232 36 -14 39 12
21 193 -23 224 -52 385 -81 450 -52 114 -230 245 -540 400 -105 52 -193 100
-198 107 -4 6 -8 51 -8 98 0 224 -47 819 -78 1006 l-18 102 26 6 c20 4 45 -5
97 -35 89 -51 161 -67 222 -50 48 13 101 58 101 85 0 36 -35 87 -101 150 -114
107 -166 125 -314 105 l-94 -13 -60 56 c-34 31 -95 73 -138 94 l-78 39 58 11
c108 21 221 118 289 249 20 38 55 128 78 199 37 113 41 138 37 195 -13 177
-148 386 -293 451 -67 30 -180 53 -217 44 -16 -4 -29 0 -41 14 -24 26 -38 26
-61 1z m40 -70 c4 -6 28 -8 60 -4 61 7 139 -8 205 -41 146 -74 279 -323 249
-465 -6 -27 -14 -50 -19 -50 -15 0 -34 32 -45 78 -7 26 -19 48 -26 50 -8 1
-41 -23 -73 -54 -65 -63 -65 -63 -86 23 -19 84 -25 88 -95 65 -33 -11 -75 -23
-92 -27 -31 -6 -33 -5 -33 23 0 16 -7 36 -16 43 -17 14 -31 2 -129 -114 l-40
-48 -41 21 c-46 23 -75 18 -109 -20 -28 -31 -29 -138 -1 -169 19 -20 19 -27 7
-99 -19 -115 -24 -118 -63 -37 l-33 70 1 160 c2 252 36 374 131 476 51 55 155
113 184 104 10 -3 23 1 31 9 15 18 25 20 33 6z m220 -517 c24 -94 32 -100 86
-73 24 12 55 32 68 44 20 17 25 18 29 6 3 -8 20 -30 39 -49 l34 -34 -17 -56
c-39 -138 -141 -278 -236 -325 -92 -46 -201 -31 -272 36 -41 40 -68 45 -74 16
-4 -23 50 -81 96 -102 30 -14 42 -27 55 -61 18 -51 12 -60 -37 -51 -34 6 -156
86 -189 124 -16 17 -17 26 -7 62 12 46 8 70 -19 94 -17 16 -17 20 1 113 20
106 19 123 -12 123 -17 0 -20 6 -20 44 0 28 6 48 16 57 24 20 49 -1 49 -42 0
-27 4 -35 21 -37 15 -2 36 17 82 78 58 74 82 95 82 70 0 -15 57 -11 130 10 36
10 68 18 71 19 3 1 14 -29 24 -66z m-422 -598 c57 -51 177 -115 213 -115 40 0
73 18 80 45 8 32 12 31 82 -4 68 -35 143 -100 124 -108 -7 -2 -26 -16 -42 -30
-17 -14 -30 -20 -30 -15 0 5 -6 12 -14 15 -15 6 -631 -266 -655 -288 -16 -16
-8 -45 13 -45 7 0 135 54 282 121 148 66 283 127 300 134 l31 13 32 -112 c17
-61 31 -116 31 -122 0 -12 -208 -114 -335 -165 -280 -111 -516 -169 -557 -137
-10 8 -21 42 -29 91 -11 68 -11 89 3 158 20 94 69 212 123 294 34 51 279 315
292 315 3 0 28 -20 56 -45z m-345 -173 c-66 -71 -127 -188 -167 -317 -26 -82
-30 -201 -11 -288 17 -75 43 -97 116 -97 l53 0 3 -412 c2 -327 0 -435 -12
-517 l-15 -104 -100 -28 c-55 -15 -109 -30 -121 -33 -21 -6 -21 -4 -27 312 -4
174 -10 549 -13 832 l-7 515 23 28 c12 15 41 37 63 49 56 29 231 97 236 92 3
-2 -7 -17 -21 -32z m1205 -53 c56 -29 180 -153 175 -176 -4 -24 -45 -43 -95
-43 -31 0 -65 12 -130 46 -79 42 -92 46 -140 42 -59 -5 -68 3 -23 22 42 17 70
56 70 96 l0 34 50 0 c32 0 66 -8 93 -21z m-254 -261 c22 -123 50 -397 65 -643
28 -469 28 -477 14 -473 -15 5 -15 15 -48 533 -11 187 -23 346 -25 353 -3 7
-15 12 -27 10 -22 -3 -23 -7 -20 -83 3 -102 40 -710 46 -752 5 -32 3 -33 -47
-48 -117 -35 -247 -48 -487 -48 -129 -1 -265 3 -302 7 l-68 8 0 378 0 378 33
7 c171 36 633 221 741 298 26 18 28 23 22 67 l-6 47 42 10 c24 6 46 11 49 12
4 0 12 -27 18 -61z m-834 -1628 c473 -94 786 -172 928 -232 26 -11 47 -24 47
-28 0 -4 -44 -15 -97 -24 -91 -16 -107 -16 -218 -1 -305 40 -718 122 -885 175
-116 36 -160 62 -160 92 0 13 -3 40 -7 62 -5 34 -4 38 13 33 10 -3 181 -38
379 -77z"/>
<path d="M2727 4063 c-4 -3 -7 -854 -7 -1890 0 -1739 1 -1884 16 -1890 45 -17
44 -79 44 1879 l0 1848 913 0 c501 0 918 4 925 9 8 5 12 17 10 27 -3 18 -32
19 -949 22 -520 1 -949 -1 -952 -5z"/>
<path d="M3056 3739 l-26 -31 0 -254 c0 -156 4 -263 10 -275 27 -49 23 -49
713 -49 446 0 654 3 676 11 57 20 61 40 61 319 l0 252 -29 29 -29 29 -675 0
-675 0 -26 -31z m1372 -31 c9 -9 12 -79 12 -254 0 -207 -2 -245 -16 -258 -14
-14 -87 -16 -660 -16 -426 0 -652 4 -665 10 -18 10 -19 24 -19 258 0 180 3
251 12 260 17 17 1319 17 1336 0z"/>
<path d="M3110 3455 l0 -115 90 0 c82 0 90 2 90 19 0 17 -8 19 -62 19 l-63 -1
-3 32 -3 31 60 0 c54 0 61 2 61 20 0 18 -7 20 -60 20 -57 0 -60 1 -60 25 0 24
2 25 65 25 58 0 65 2 65 20 0 19 -7 20 -90 20 l-90 0 0 -115z"/>
<path d="M3350 3550 c-43 -43 -17 -90 61 -113 32 -9 45 -19 47 -34 6 -40 -67
-42 -88 -3 -6 12 -17 16 -30 13 -27 -7 -25 -19 10 -55 28 -27 36 -30 76 -25
56 6 84 30 84 72 0 39 -21 60 -76 74 -54 14 -73 35 -45 50 22 12 52 5 64 -16
12 -20 47 -16 47 5 0 51 -108 74 -150 32z"/>
<path d="M3550 3455 l0 -115 25 0 c22 0 25 4 25 39 l0 39 50 7 c56 8 80 31 80
77 0 49 -30 68 -110 68 l-70 0 0 -115z"/>
<path d="M3770 3455 l0 -115 91 0 c81 0 90 2 87 18 -3 14 -14 17 -66 17 l-62
0 0 33 0 32 55 0 c48 0 55 2 55 20 0 18 -7 20 -55 20 -52 0 -55 1 -55 25 0 24
3 25 60 25 53 0 60 2 60 20 0 18 -7 20 -85 20 l-85 0 0 -115z"/>
<path d="M3990 3455 l0 -115 25 0 c23 0 25 4 25 45 0 38 3 45 20 45 11 0 31
-18 50 -45 22 -33 38 -45 55 -45 31 0 31 3 -4 54 l-28 43 23 21 c29 25 31 65
4 92 -16 16 -33 20 -95 20 l-75 0 0 -115z"/>
<path d="M4230 3455 l0 -115 85 0 c77 0 85 2 85 19 0 17 -8 19 -62 19 l-63 -1
-3 32 -3 31 60 0 c54 0 61 2 61 20 0 18 -7 20 -60 20 -57 0 -60 1 -60 25 0 24
2 25 65 25 58 0 65 2 65 20 0 18 -7 20 -85 20 l-85 0 0 -115z"/>
<path d="M4499 1673 c-88 -75 -93 -232 -9 -315 31 -31 45 -38 77 -38 51 0 83
21 65 43 -9 11 -24 14 -48 10 -99 -16 -143 167 -62 255 15 15 33 22 59 22 42
0 57 13 39 35 -21 25 -84 19 -121 -12z"/>
<path d="M1467 1313 c-4 -3 -7 -14 -7 -24 0 -13 18 -22 73 -38 299 -88 585
-234 736 -377 109 -102 142 -184 176 -439 19 -137 33 -171 60 -144 13 13 13
28 0 134 -20 150 -49 274 -80 343 -33 72 -139 180 -250 254 -158 106 -416 224
-606 277 -82 23 -92 24 -102 14z"/>
</g>
</svg>
