<?xml version="1.0" standalone="no"?>
<!DOCTYPE svg PUBLIC "-//W3C//DTD SVG 20010904//EN"
 "http://www.w3.org/TR/2001/REC-SVG-20010904/DTD/svg10.dtd">
<svg version="1.0" xmlns="http://www.w3.org/2000/svg"
 width="500.000000pt" height="500.000000pt" viewBox="0 0 500.000000 500.000000"
 preserveAspectRatio="xMidYMid meet">
<metadata>
Created by potrace 1.15, written by Peter Selinger 2001-2017
</metadata>
<g transform="translate(0.000000,500.000000) scale(0.100000,-0.100000)"
fill="#000000" stroke="none">
<path d="M1240 3490 l0 -660 -124 0 -125 0 -5 53 c-3 28 -13 124 -21 212 -20
201 -44 397 -49 403 -9 8 -46 -10 -46 -22 0 -7 11 -112 24 -232 14 -120 30
-280 36 -355 10 -128 9 -141 -11 -205 -42 -136 -160 -336 -242 -410 -24 -21
-99 -77 -167 -124 -153 -104 -454 -329 -459 -342 -8 -23 13 -80 40 -108 27
-27 37 -30 92 -30 68 0 152 33 237 94 25 17 88 55 140 83 52 28 133 74 179
102 46 28 88 51 93 51 5 0 -51 -117 -123 -260 -152 -301 -163 -338 -112 -389
53 -52 156 -64 223 -24 34 20 75 88 133 218 44 100 117 230 117 209 0 -21 -79
-280 -106 -344 -34 -84 -34 -129 0 -174 58 -77 195 -64 270 24 69 83 147 266
200 470 21 80 41 149 45 153 5 4 22 -4 39 -18 57 -47 86 -165 96 -388 7 -134
21 -179 65 -201 100 -52 248 26 268 141 15 87 6 310 -18 438 -25 136 -34 243
-25 280 5 21 12 25 42 25 60 0 95 -25 217 -154 136 -145 178 -171 263 -164 34
3 65 13 83 26 29 21 29 20 -15 -66 -60 -120 -62 -133 -27 -171 17 -19 46 -35
74 -43 40 -10 54 -9 95 7 59 22 102 65 212 211 88 118 119 143 178 147 33 2
38 -1 46 -28 5 -16 10 -122 13 -235 4 -199 24 -423 46 -503 5 -21 25 -55 43
-75 31 -33 39 -36 97 -40 55 -3 69 0 99 20 56 38 60 54 60 258 0 122 5 208 15
254 15 69 41 126 62 133 6 2 23 -28 38 -69 103 -275 182 -425 270 -514 53 -53
68 -63 115 -73 52 -11 79 -8 133 14 22 9 57 76 57 110 0 14 -18 61 -40 105
-48 96 -142 321 -136 327 6 7 87 -111 146 -212 97 -164 131 -195 217 -195 90
1 167 53 167 114 0 46 -33 105 -195 353 -77 118 -139 216 -137 218 2 2 41 -14
88 -37 47 -22 123 -55 170 -74 47 -20 136 -60 198 -91 99 -49 123 -57 186 -61
54 -3 80 0 103 11 46 24 79 109 55 142 -10 15 -295 184 -497 295 -129 71 -183
107 -224 149 -80 81 -166 202 -214 300 l-42 86 -3 378 -3 377 -29 0 -30 0 0
-280 0 -280 -140 0 -140 0 0 660 0 660 -75 0 -75 0 -2 -657 -3 -658 -124 -3
-124 -3 7 98 c3 54 9 180 13 281 l6 182 -25 0 -25 0 -12 -231 c-14 -272 -27
-418 -47 -513 -17 -84 -29 -98 -231 -267 -152 -127 -143 -116 -293 -374 -55
-95 -55 -95 -61 -61 -7 45 -53 119 -172 279 -53 73 -119 161 -145 197 -41 55
-72 82 -212 177 -219 148 -233 161 -258 248 -27 90 -65 287 -97 495 -37 246
-33 230 -56 230 -11 0 -22 -6 -25 -13 -7 -18 50 -386 87 -565 53 -258 61 -268
309 -435 165 -110 169 -114 315 -313 102 -138 98 -131 72 -130 -31 1 -34 -41
-5 -84 16 -24 40 -40 77 -55 30 -11 56 -25 58 -31 6 -17 -32 -44 -69 -51 -56
-9 -99 20 -219 145 -134 141 -157 158 -225 172 l-54 11 25 42 c22 38 61 174
52 183 -2 2 -14 5 -27 6 -21 3 -25 -3 -36 -58 -7 -34 -28 -91 -47 -127 -22
-40 -40 -93 -47 -138 -11 -66 -10 -85 9 -184 31 -159 40 -246 41 -370 0 -146
-7 -180 -42 -215 -33 -33 -95 -54 -133 -44 -34 9 -29 12 62 43 78 26 78 26 81
64 5 58 -18 87 -71 87 -59 0 -102 -29 -115 -77 -9 -35 -10 -32 -11 42 -2 165
-43 347 -91 408 -26 32 -104 70 -128 63 -15 -5 -28 -41 -61 -168 -49 -185 -74
-257 -132 -372 -61 -122 -112 -166 -193 -166 -32 0 -66 20 -66 40 0 4 30 11
66 15 86 9 114 34 114 98 0 56 -16 70 -80 71 -28 1 -50 4 -50 8 0 5 20 77 44
160 24 84 46 176 50 203 4 28 17 80 28 118 22 73 19 97 -11 97 -20 0 -24 -8
-36 -68 -4 -18 -43 -92 -87 -165 -45 -72 -105 -184 -134 -248 -91 -200 -99
-209 -182 -209 -59 0 -105 29 -100 64 3 24 20 25 124 12 l61 -8 7 48 c4 34 2
54 -9 70 -18 28 -74 41 -105 24 -16 -9 5 40 88 207 61 120 113 228 117 241 8
27 -9 52 -37 52 -21 0 -120 -48 -193 -94 -27 -18 -95 -56 -150 -86 -55 -29
-116 -65 -135 -80 -95 -74 -221 -110 -260 -75 -27 25 -25 37 5 23 19 -9 29 -8
49 6 36 23 61 65 61 100 0 27 12 39 100 103 55 40 159 113 231 163 134 91 174
131 253 248 58 86 129 237 150 316 l17 65 158 -235 c88 -129 163 -234 167
-234 4 0 89 120 189 268 l180 267 -145 3 -145 3 0 659 0 660 -80 0 -80 0 0
-660z m2672 -782 c3 -85 7 -101 44 -178 83 -172 245 -362 358 -421 34 -17 145
-79 248 -137 175 -99 187 -108 186 -134 -1 -32 41 -84 81 -99 18 -7 28 -5 42
7 17 15 19 15 19 1 0 -24 -40 -47 -81 -47 -45 0 -135 31 -202 69 -29 16 -92
46 -142 66 -49 21 -132 57 -182 81 -123 58 -179 72 -200 51 -10 -9 -13 -24
-10 -39 4 -12 65 -113 137 -223 l130 -200 -44 -5 c-67 -8 -79 -24 -73 -88 3
-30 8 -57 12 -60 3 -3 39 2 80 12 85 20 108 16 103 -15 -4 -31 -45 -58 -98
-65 -40 -5 -50 -3 -78 21 -18 15 -67 85 -109 155 -42 71 -116 180 -165 242
-56 71 -96 134 -109 171 -22 58 -26 62 -53 51 -21 -8 -21 -13 13 -102 16 -42
39 -108 51 -147 12 -38 44 -123 72 -189 27 -65 47 -120 45 -122 -2 -2 -26 -8
-52 -13 -27 -5 -55 -17 -63 -28 -18 -24 -9 -80 19 -109 20 -21 32 -24 96 -24
77 0 86 -7 53 -40 -26 -26 -88 -26 -140 0 -70 36 -184 223 -261 425 -22 61
-50 134 -61 163 -18 49 -21 52 -54 52 -49 0 -71 -14 -94 -60 -41 -81 -54 -165
-54 -343 1 -166 0 -168 -15 -125 -14 37 -22 45 -60 57 -53 17 -101 5 -118 -29
-7 -14 -13 -20 -13 -15 0 6 -5 42 -11 80 -5 39 -13 183 -18 320 -9 277 -12
292 -81 397 -22 35 -49 89 -58 120 -16 53 -19 57 -42 51 -14 -3 -26 -7 -28 -8
-7 -5 42 -126 69 -169 16 -27 28 -49 27 -50 -2 -2 -22 -8 -45 -14 -58 -17 -92
-49 -180 -166 -123 -163 -160 -196 -222 -196 -38 0 -81 19 -81 36 0 8 23 25
50 39 58 29 92 76 88 120 -2 24 -8 30 -25 29 -22 -1 -22 0 8 50 16 28 42 73
57 99 97 172 119 203 188 262 316 270 307 258 327 388 8 48 16 90 19 92 3 3
78 -103 168 -235 l163 -240 91 134 c50 73 129 190 176 259 47 70 88 127 92
127 3 0 8 -42 10 -92z m-2762 -1283 c18 -22 0 -77 -30 -92 -14 -7 -49 -13 -78
-13 -51 0 -53 1 -46 23 3 12 15 39 25 60 18 35 22 37 68 37 31 0 53 -5 61 -15z
m2886 -146 c14 -28 23 -54 20 -57 -3 -3 -30 -7 -60 -10 -48 -4 -57 -1 -80 21
-52 52 -27 95 56 96 35 1 39 -2 64 -50z"/>
<path d="M100 915 l0 -65 2415 0 2415 0 0 65 0 65 -2415 0 -2415 0 0 -65z"/>
</g>
</svg>
