<?xml version="1.0" standalone="no"?>
<!DOCTYPE svg PUBLIC "-//W3C//DTD SVG 20010904//EN"
 "http://www.w3.org/TR/2001/REC-SVG-20010904/DTD/svg10.dtd">
<svg version="1.0" xmlns="http://www.w3.org/2000/svg"
 width="500.000000pt" height="500.000000pt" viewBox="0 0 500.000000 500.000000"
 preserveAspectRatio="xMidYMid meet">
<metadata>
Created by potrace 1.15, written by Peter Selinger 2001-2017
</metadata>
<g transform="translate(0.000000,500.000000) scale(0.100000,-0.100000)"
fill="#000000" stroke="none">
<path d="M2475 4814 c-219 -32 -375 -106 -522 -247 -131 -126 -223 -288 -260
-461 -23 -107 -20 -281 6 -391 68 -283 280 -525 548 -627 76 -29 83 -34 83
-59 0 -23 -6 -28 -44 -38 -39 -10 -87 -55 -512 -488 l-469 -478 -180 3 -180 3
97 -93 c80 -76 97 -97 92 -115 -22 -79 80 -183 359 -367 166 -110 206 -140
211 -163 12 -47 56 -101 112 -138 30 -20 54 -37 54 -39 0 -2 -81 -228 -180
-502 -99 -274 -179 -501 -178 -505 3 -5 182 133 578 445 l63 49 -6 -74 c-4
-41 -9 -118 -13 -171 l-6 -98 381 0 381 0 0 24 c0 13 -5 82 -11 153 -6 72 -9
140 -7 152 3 19 48 -14 328 -233 179 -140 326 -253 328 -251 2 1 -94 271 -213
600 -118 328 -213 601 -210 605 3 5 239 167 525 361 286 193 520 354 520 356
0 3 -106 2 -235 -2 -226 -7 -235 -6 -235 12 0 33 -41 78 -225 250 -99 92 -297
286 -439 431 -143 144 -270 265 -283 268 -15 4 -23 14 -23 28 0 20 8 25 58 35
253 56 484 238 604 476 57 113 80 210 86 362 4 123 1 156 -17 237 -91 392
-433 675 -836 690 -55 3 -113 2 -130 0z m274 -198 c343 -93 570 -423 531 -770
-35 -302 -262 -556 -555 -621 -111 -25 -273 -17 -380 19 -228 77 -416 281
-471 511 -22 91 -22 250 0 335 73 286 305 496 601 544 52 8 218 -3 274 -18z
m396 -2514 c-2 -3 -33 -6 -67 -7 -37 -1 -94 -12 -138 -27 -41 -15 -76 -25 -78
-24 -1 2 -31 104 -67 227 -35 124 -67 233 -71 244 -4 11 91 -77 209 -195 119
-118 214 -216 212 -218z m-880 291 c-7 -66 -90 -380 -105 -396 -8 -9 -381 3
-379 12 1 8 478 451 485 451 3 0 3 -30 -1 -67z m841 -504 c46 -77 44 -118 -13
-167 -69 -61 -183 -77 -265 -38 -102 49 -80 135 54 206 64 35 168 71 180 64 4
-3 23 -32 44 -65z m-1028 -431 c72 -36 132 -96 132 -134 0 -59 -106 -113 -196
-100 -90 12 -184 83 -184 139 0 10 18 49 41 87 l40 69 52 -16 c29 -8 80 -29
115 -45z"/>
<path d="M2222 3997 c-101 -57 -59 -207 58 -207 34 0 48 6 76 34 28 28 34 42
34 76 0 34 -6 48 -34 76 -27 27 -42 34 -72 34 -22 -1 -49 -6 -62 -13z"/>
<path d="M2793 3986 c-116 -52 -55 -235 70 -212 62 12 106 83 87 141 -22 68
-93 100 -157 71z"/>
<path d="M2760 3545 c-63 -51 -142 -85 -200 -85 -57 0 -135 33 -191 80 -53 45
-68 48 -92 22 -27 -29 -20 -47 33 -95 155 -139 359 -135 522 11 52 47 59 69
30 95 -27 25 -41 21 -102 -28z"/>
</g>
</svg>
