<?xml version="1.0" standalone="no"?>
<!DOCTYPE svg PUBLIC "-//W3C//DTD SVG 20010904//EN"
 "http://www.w3.org/TR/2001/REC-SVG-20010904/DTD/svg10.dtd">
<svg version="1.0" xmlns="http://www.w3.org/2000/svg"
 width="500.000000pt" height="500.000000pt" viewBox="0 0 500.000000 500.000000"
 preserveAspectRatio="xMidYMid meet">
<metadata>
Created by potrace 1.15, written by Peter Selinger 2001-2017
</metadata>
<g transform="translate(0.000000,500.000000) scale(0.100000,-0.100000)"
fill="#000000" stroke="none">
<path d="M1007 4700 c-194 -24 -374 -116 -513 -262 -106 -112 -172 -236 -210
-394 -25 -101 -22 -286 5 -389 27 -102 97 -242 161 -322 103 -128 277 -241
435 -282 l70 -18 3 -62 3 -61 -31 0 c-45 0 -92 -23 -124 -61 l-28 -33 6 -1006
c3 -553 9 -1056 12 -1117 7 -132 22 -164 94 -200 39 -20 59 -23 169 -23 143 0
192 16 226 72 19 32 20 56 23 906 l2 874 267 -321 266 -321 136 0 c75 0 159
-3 187 -6 l50 -6 1 -162 c0 -151 10 -249 34 -340 7 -27 35 -63 94 -125 72 -75
88 -98 120 -176 69 -165 104 -227 171 -292 103 -101 319 -195 544 -239 130
-24 390 -25 515 0 333 65 559 193 798 453 83 90 117 136 147 198 54 110 64
166 57 310 -13 241 -96 493 -222 670 -91 128 -231 231 -340 250 -50 9 -100 37
-240 136 -123 86 -233 148 -315 175 -82 28 -235 24 -370 -9 -196 -48 -209 -55
-349 -196 -118 -118 -134 -130 -250 -191 -80 -42 -145 -85 -186 -123 l-63 -57
-150 0 c-82 0 -171 3 -197 7 l-48 6 -228 275 c-126 152 -227 277 -226 278 1 2
135 -40 297 -92 l295 -96 133 7 c72 4 132 4 132 -1 0 -4 -18 -40 -40 -80 -56
-103 -55 -108 36 -150 41 -19 85 -34 97 -32 17 2 38 33 90 131 63 118 71 127
97 127 77 0 202 76 249 153 43 71 32 171 -25 216 l-25 19 87 159 c47 87 96
169 108 183 13 14 37 48 55 77 17 28 39 54 48 57 9 4 48 -11 91 -34 42 -23 82
-38 92 -35 20 6 120 184 120 213 0 16 -24 34 -107 78 -60 32 -137 75 -172 96
-100 59 -165 80 -251 81 -83 0 -150 -22 -188 -64 -28 -29 -28 -73 -1 -93 18
-12 25 -12 55 0 18 8 41 14 50 14 21 0 84 -63 84 -85 0 -9 -20 -53 -45 -97
-25 -44 -45 -89 -45 -100 0 -11 -51 -110 -112 -220 -103 -183 -117 -203 -163
-233 -27 -19 -66 -50 -84 -69 l-35 -36 -150 0 -151 0 -447 142 -448 143 0 66
0 67 48 6 c87 13 195 47 267 84 90 47 200 152 245 232 48 86 95 137 158 173
116 65 122 162 18 300 -17 24 -25 51 -31 106 -29 315 -218 582 -502 707 -119
53 -304 80 -436 64z m315 -197 c251 -87 434 -316 453 -567 11 -144 14 -154 56
-202 21 -25 39 -51 39 -57 0 -7 -12 -20 -28 -29 -63 -37 -123 -102 -159 -171
-69 -132 -183 -221 -338 -263 -94 -25 -296 -30 -389 -10 -124 28 -228 86 -322
180 -130 130 -191 265 -201 446 -15 278 139 529 398 649 148 69 334 78 491 24z
m1688 -1004 c19 -5 62 -25 95 -44 33 -19 104 -58 157 -86 l97 -52 -26 -46
c-15 -25 -28 -47 -29 -49 -1 -2 -29 10 -63 27 -33 17 -71 31 -84 31 -34 0 -87
-39 -120 -88 l-28 -42 -40 20 c-21 11 -39 23 -39 26 0 2 18 36 40 75 22 39 40
77 40 85 0 27 -43 99 -78 131 l-35 32 39 -5 c21 -3 55 -10 74 -15z m-61 -415
c1 -1 -36 -75 -84 -163 -86 -160 -99 -174 -134 -152 -11 7 6 44 80 174 86 153
95 165 114 155 11 -6 22 -12 24 -14z m-178 -483 c22 -17 22 -21 10 -45 -30
-54 -131 -101 -195 -89 -18 4 -25 13 -29 36 -6 38 1 47 61 87 55 36 117 41
153 11z m440 -787 c16 -15 29 -36 29 -46 0 -26 -55 -50 -120 -51 -79 0 -95 11
-95 68 -1 41 2 46 25 51 14 3 30 7 35 10 31 11 98 -6 126 -32z"/>
<path d="M1504 4020 c-32 -13 -54 -50 -54 -91 0 -29 7 -43 31 -63 41 -35 83
-34 120 3 47 48 38 116 -21 146 -32 17 -45 18 -76 5z"/>
</g>
</svg>
