<?xml version="1.0" standalone="no"?>
<!DOCTYPE svg PUBLIC "-//W3C//DTD SVG 20010904//EN"
 "http://www.w3.org/TR/2001/REC-SVG-20010904/DTD/svg10.dtd">
<svg version="1.0" xmlns="http://www.w3.org/2000/svg"
 width="500.000000pt" height="500.000000pt" viewBox="0 0 500.000000 500.000000"
 preserveAspectRatio="xMidYMid meet">
<metadata>
Created by potrace 1.15, written by Peter Selinger 2001-2017
</metadata>
<g transform="translate(0.000000,500.000000) scale(0.100000,-0.100000)"
fill="#000000" stroke="none">
<path d="M1660 4563 c-120 -42 -210 -146 -254 -292 -40 -134 -1 -277 117 -434
42 -55 56 -67 73 -63 13 4 28 -1 39 -14 15 -17 16 -23 3 -62 -12 -36 -23 -47
-69 -72 -237 -128 -569 -398 -664 -542 -81 -122 -123 -291 -132 -535 -7 -201
-2 -239 32 -239 19 0 28 -8 39 -33 32 -79 122 -103 177 -48 19 20 29 40 29 60
0 23 5 30 23 33 21 3 22 9 29 128 17 279 56 461 110 512 29 27 147 98 163 98
6 0 0 -720 -8 -835 -2 -27 -15 -86 -30 -130 -29 -87 -103 -350 -137 -483 l-21
-83 -220 -266 c-122 -146 -223 -272 -226 -280 -3 -7 1 -20 8 -29 11 -13 8 -19
-17 -39 -16 -14 -32 -24 -36 -25 -3 0 -15 -14 -26 -32 -19 -30 -19 -34 -5 -62
9 -17 29 -50 45 -73 26 -38 33 -43 68 -43 62 0 70 -7 70 -57 0 -119 90 -177
295 -189 92 -6 101 -5 118 14 28 31 33 92 11 137 -19 41 -93 95 -130 95 -39 0
-36 17 11 72 61 72 244 343 350 519 106 176 224 414 263 532 l30 88 92 -153
c182 -302 297 -568 396 -912 19 -66 38 -124 43 -129 5 -5 24 -12 43 -16 32 -7
33 -9 39 -66 10 -90 43 -155 80 -155 10 0 57 25 104 55 70 45 85 59 85 80 0
29 0 28 35 15 24 -9 42 0 196 107 93 64 169 123 169 131 0 26 -83 99 -128 112
-51 16 -105 3 -150 -35 -17 -14 -34 -25 -39 -25 -5 0 -82 174 -172 388 -145
342 -182 419 -316 658 l-152 271 -6 327 c-4 179 -5 326 -2 326 3 0 23 -37 46
-81 22 -45 60 -102 83 -128 23 -25 89 -104 146 -176 57 -71 135 -163 174 -203
68 -70 70 -72 93 -57 22 15 26 14 54 -9 56 -47 142 -28 174 40 14 30 15 43 6
81 -10 39 -10 47 5 57 15 11 -8 42 -195 269 -195 237 -217 268 -292 409 -183
343 -258 450 -385 544 l-76 56 49 17 c87 29 164 108 193 197 8 25 22 39 46 49
47 19 51 38 27 109 -12 34 -27 93 -33 131 -6 39 -22 94 -36 124 -13 29 -24 64
-24 76 0 52 -128 151 -241 186 -75 23 -196 24 -259 2z m255 -50 c46 -15 157
-81 169 -101 3 -5 -34 -12 -82 -15 -160 -12 -230 -46 -272 -132 -19 -38 -24
-43 -40 -35 -47 25 -96 -1 -119 -63 -17 -45 -13 -75 17 -108 l27 -30 -14 -95
c-8 -52 -18 -94 -21 -94 -3 0 -25 30 -49 66 -89 134 -112 266 -70 381 78 208
249 293 454 226z m220 -217 c15 -30 31 -85 36 -123 6 -37 17 -88 26 -113 24
-70 22 -82 -14 -92 -18 -5 -33 -14 -33 -20 0 -23 -53 -128 -65 -128 -15 0 -64
45 -87 80 -8 14 -19 22 -23 18 -11 -11 22 -64 60 -95 34 -28 35 -30 17 -46
-38 -34 -115 -60 -182 -60 -78 -1 -147 27 -201 79 l-35 35 8 67 c5 37 15 90
22 118 l12 51 -28 11 c-15 5 -31 17 -34 26 -13 34 24 105 48 90 5 -3 17 -19
26 -34 14 -22 21 -26 40 -19 14 5 22 17 22 31 1 33 33 99 61 125 34 31 119 52
216 52 l82 1 26 -54z m-303 -626 c33 0 78 -33 78 -56 0 -24 -51 -74 -75 -74
-13 0 -52 22 -87 48 -51 39 -62 53 -60 73 5 47 8 49 62 28 27 -10 65 -19 82
-19z m-137 -110 c52 -45 114 -80 142 -80 28 0 79 36 99 69 10 17 24 31 30 31
21 0 120 -97 172 -168 50 -68 165 -269 242 -422 32 -64 91 -144 242 -328 109
-133 196 -247 193 -252 -7 -12 -105 -79 -157 -108 l-36 -20 -74 86 c-41 48
-111 133 -156 189 -45 56 -100 123 -123 149 -22 25 -70 106 -106 178 -36 72
-66 132 -67 133 -1 1 -12 0 -25 -4 l-22 -6 2 -348 c1 -192 0 -351 -2 -353 -5
-6 -416 -52 -543 -62 l-89 -7 6 59 c14 133 19 393 12 608 l-7 228 -27 -7 c-97
-23 -241 -119 -270 -180 -28 -60 -58 -213 -71 -360 -6 -71 -13 -149 -16 -172
l-5 -43 -104 0 -104 0 -6 54 c-10 79 12 310 39 419 43 167 102 258 262 400
153 135 469 354 516 357 4 0 28 -18 53 -40z m367 -1334 c3 -13 73 -145 156
-292 131 -234 170 -316 302 -627 l151 -357 -21 -36 c-30 -47 -109 -106 -202
-149 -42 -19 -81 -35 -86 -35 -5 0 -26 60 -47 133 -73 255 -187 536 -295 729
-118 211 -232 389 -248 386 -10 -2 -23 -32 -38 -88 -28 -105 -58 -179 -136
-334 -114 -228 -412 -698 -492 -775 l-35 -34 -56 27 c-56 28 -225 178 -225
200 0 6 97 128 215 270 179 216 217 268 229 310 8 28 33 121 56 206 32 121
118 415 125 427 1 2 82 10 181 18 98 9 224 22 279 29 160 21 182 20 187 -8z
m914 -1339 l37 -33 -64 -45 c-35 -25 -99 -70 -143 -99 l-78 -54 -42 15 c-56
20 -66 15 -66 -34 0 -40 -3 -44 -62 -82 -34 -22 -65 -42 -70 -43 -14 -6 -35
59 -42 128 l-6 65 67 35 c37 19 95 61 130 93 35 33 63 55 63 49 0 -5 14 -15
30 -22 34 -14 47 -10 109 35 49 36 92 33 137 -8z m-2150 -28 c44 -47 144 -119
192 -140 28 -12 42 -24 42 -37 0 -26 16 -38 69 -52 24 -6 57 -25 73 -41 24
-23 29 -36 26 -66 l-3 -38 -96 1 c-156 1 -239 47 -239 134 0 75 -36 110 -111
110 -23 0 -33 9 -55 45 -30 52 -27 67 18 95 43 26 49 25 84 -11z"/>
<path d="M3940 3370 l0 -110 -350 0 -350 0 0 -55 0 -55 350 0 349 0 3 -108 3
-107 199 134 198 134 -28 21 c-16 12 -106 74 -201 138 l-173 117 0 -109z"/>
</g>
</svg>
