<?xml version="1.0" standalone="no"?>
<!DOCTYPE svg PUBLIC "-//W3C//DTD SVG 20010904//EN"
 "http://www.w3.org/TR/2001/REC-SVG-20010904/DTD/svg10.dtd">
<svg version="1.0" xmlns="http://www.w3.org/2000/svg"
 width="500.000000pt" height="500.000000pt" viewBox="0 0 500.000000 500.000000"
 preserveAspectRatio="xMidYMid meet">
<metadata>
Created by potrace 1.15, written by Peter Selinger 2001-2017
</metadata>
<g transform="translate(0.000000,500.000000) scale(0.100000,-0.100000)"
fill="#000000" stroke="none">
<path d="M2505 4796 c-82 -20 -146 -56 -206 -115 -169 -169 -167 -427 5 -589
210 -199 549 -137 678 125 31 64 33 73 33 178 0 99 -3 116 -27 168 -84 179
-292 280 -483 233z m210 -61 c157 -47 267 -209 252 -373 -12 -126 -97 -245
-215 -300 -50 -24 -69 -27 -157 -27 -87 0 -107 3 -157 27 -73 34 -142 103
-176 176 -23 49 -27 70 -27 152 0 114 19 163 92 241 98 105 250 146 388 104z"/>
<path d="M1534 4249 c-48 -14 -99 -77 -118 -145 -17 -60 -75 -192 -88 -200 -4
-3 -16 13 -28 35 -11 22 -36 53 -55 68 -25 20 -33 33 -29 49 4 17 -4 27 -46
54 -73 47 -115 59 -201 60 -96 0 -184 -26 -265 -78 -59 -39 -144 -122 -144
-142 0 -5 -9 -10 -20 -10 -19 0 -24 -9 -21 -41 1 -8 -8 -24 -19 -34 -24 -21
-26 -43 -5 -51 11 -4 15 -21 15 -59 0 -77 33 -174 84 -243 42 -56 137 -135
199 -163 34 -15 34 -22 -3 -100 -85 -185 -144 -585 -145 -984 0 -266 10 -349
46 -398 15 -20 35 -108 79 -339 l59 -311 -46 -470 c-37 -376 -44 -470 -34
-477 7 -4 34 -10 59 -14 24 -3 50 -13 56 -21 21 -29 184 -49 404 -49 188 -1
205 0 217 18 12 16 12 22 -3 41 -30 41 -105 84 -201 116 l-93 31 7 77 c3 42
22 200 41 351 l35 275 -4 630 c-4 480 -8 668 -21 790 -18 184 -44 406 -52 451
-6 30 -4 32 70 67 227 108 380 253 569 542 47 72 96 144 110 160 57 70 69 122
42 175 -19 38 -63 60 -115 60 -71 0 -114 -33 -166 -125 -29 -53 -238 -325
-249 -325 -2 0 20 51 50 113 30 61 76 173 104 247 27 74 59 155 70 180 39 86
19 155 -55 186 -37 16 -46 16 -90 3z m-445 -154 l35 -17 -49 -17 c-67 -22 -88
-54 -89 -135 -1 -57 -4 -67 -27 -85 -15 -11 -32 -34 -39 -50 -10 -25 -15 -29
-30 -21 -49 26 -105 -1 -115 -54 -8 -42 16 -92 56 -114 22 -13 29 -24 29 -47
0 -16 11 -54 25 -82 l24 -52 -30 -21 -29 -21 -58 32 c-87 50 -174 142 -202
214 -33 85 -32 203 1 270 46 93 169 185 285 214 58 15 173 7 213 -14z m462
-26 c35 -15 49 -27 49 -41 0 -27 -104 -296 -152 -393 -22 -44 -62 -117 -89
-162 -49 -81 -50 -82 -152 -136 -70 -38 -104 -51 -109 -43 -14 21 -8 57 10 63
212 74 228 87 247 208 8 50 15 109 15 133 0 29 5 44 15 48 39 15 38 70 -3 100
-12 9 -8 23 27 92 23 45 41 87 41 95 0 17 29 57 41 57 6 0 33 -10 60 -21z
m-369 -82 c24 -18 52 -48 63 -67 11 -19 41 -55 67 -81 l48 -47 -25 -16 c-23
-15 -25 -23 -25 -86 0 -60 -3 -71 -21 -80 -11 -6 -33 -9 -49 -5 -15 3 -31 2
-34 -4 -8 -12 28 -24 66 -23 30 1 32 -5 22 -57 -6 -26 -16 -36 -68 -60 -33
-16 -86 -37 -116 -46 -76 -24 -81 -30 -73 -77 3 -23 2 -39 -3 -37 -48 22 -104
54 -104 61 0 4 9 12 20 18 26 14 25 30 -6 92 -14 28 -28 75 -31 104 -5 43 -10
55 -27 60 -33 10 -56 35 -56 60 0 49 46 39 56 -12 8 -41 17 -48 51 -39 23 5
25 10 20 42 -7 41 12 94 40 114 32 22 43 54 43 117 0 44 5 63 18 74 41 37 71
35 124 -5z m665 -202 l37 -32 -54 -87 c-87 -139 -234 -329 -302 -391 -132
-120 -319 -223 -448 -247 -50 -10 -62 -9 -96 8 -55 27 -56 53 -2 97 62 50 138
97 280 172 108 56 137 77 197 140 77 82 219 256 259 319 47 74 64 77 129 21z
m-869 -519 l53 -27 -53 -41 c-72 -55 -88 -77 -88 -119 0 -77 65 -116 182 -106
37 3 68 5 68 4 0 -1 11 -99 24 -217 14 -118 30 -291 37 -383 14 -192 18 -181
-71 -194 -116 -17 -270 -6 -404 29 l-39 10 7 131 c21 400 76 717 154 890 33
74 36 77 56 64 12 -8 45 -26 74 -41z m-143 -1132 c87 -16 274 -15 347 2 24 6
27 3 34 -30 3 -20 4 -267 1 -549 -5 -504 -5 -515 -36 -742 -39 -288 -50 -446
-30 -461 8 -6 57 -25 109 -43 52 -17 108 -40 124 -50 l29 -19 -58 -7 c-60 -8
-192 -1 -338 17 -76 9 -88 13 -92 32 -3 11 7 218 23 459 l29 439 -34 121 c-96
345 -160 531 -198 583 -27 36 -45 121 -45 212 0 62 1 64 23 58 12 -3 63 -13
112 -22z m64 -879 l24 -90 -29 -430 -29 -430 -30 3 c-16 2 -32 6 -35 8 -2 3
16 208 40 455 l43 451 -17 92 c-9 50 -19 102 -22 116 -6 40 30 -77 55 -175z"/>
<path d="M3334 4206 c-41 -41 -45 -91 -14 -158 11 -24 43 -106 71 -183 28 -77
73 -186 100 -243 26 -56 43 -100 38 -96 -16 9 -194 235 -213 269 -53 96 -76
125 -116 145 -145 74 -267 -76 -159 -195 10 -11 48 -67 84 -125 204 -320 370
-484 605 -597 41 -20 76 -36 77 -37 1 -1 -7 -69 -17 -151 -50 -392 -53 -446
-57 -1115 l-5 -645 36 -280 c19 -154 36 -311 38 -349 l3 -69 -80 -27 c-105
-35 -153 -61 -195 -104 -32 -34 -33 -37 -17 -54 43 -42 578 -19 618 27 9 11
36 22 68 26 29 4 55 13 57 19 3 7 -16 221 -41 477 l-46 464 60 313 c41 214 65
320 77 333 76 84 67 687 -17 1104 -26 128 -54 224 -89 301 l-27 61 61 36 c159
91 256 239 256 391 0 23 7 47 17 58 15 17 15 20 -5 41 -12 13 -22 36 -22 50 0
18 -7 30 -19 35 -10 4 -34 27 -52 51 -71 93 -217 168 -346 178 -89 7 -150 -7
-226 -54 -50 -30 -58 -39 -54 -60 3 -18 -3 -29 -24 -44 -16 -11 -41 -40 -55
-65 -14 -24 -28 -44 -30 -44 -8 0 -71 137 -88 190 -34 113 -84 160 -169 160
-42 0 -54 -5 -83 -34z m786 -112 c121 -27 233 -109 283 -207 36 -71 38 -187 5
-274 -38 -102 -226 -262 -275 -234 -46 26 -46 26 -24 70 12 22 24 61 28 86 3
25 11 45 18 45 18 0 53 42 66 77 22 64 -40 129 -101 106 -29 -11 -31 -10 -50
27 -11 22 -29 44 -40 50 -17 9 -20 21 -20 75 0 54 -4 68 -26 94 -14 17 -43 36
-65 42 -47 15 -40 26 28 45 64 17 92 17 173 -2z m-575 -64 c6 -19 28 -68 48
-109 l38 -73 -25 -27 c-32 -34 -33 -51 -2 -80 19 -18 24 -35 29 -104 3 -45 11
-106 17 -135 14 -64 44 -87 173 -134 88 -31 89 -32 83 -61 -4 -17 -8 -32 -10
-34 -4 -5 -177 87 -199 106 -25 21 -120 185 -167 286 -54 118 -132 332 -128
352 4 24 66 54 103 51 24 -3 31 -9 40 -38z m361 -30 c8 0 23 -9 34 -20 16 -16
20 -33 20 -86 0 -60 3 -69 28 -92 41 -39 54 -68 50 -115 -3 -36 0 -43 22 -54
29 -14 39 -7 54 39 14 41 56 53 56 16 0 -31 -9 -42 -45 -59 -26 -12 -31 -22
-37 -67 -4 -29 -21 -78 -37 -110 -31 -62 -30 -71 8 -92 25 -13 24 -13 -30 -41
-30 -15 -58 -28 -62 -29 -5 0 -8 15 -7 33 1 17 2 37 1 44 -1 6 -31 21 -68 33
-155 51 -193 80 -193 144 0 19 4 22 23 19 28 -6 80 14 72 27 -3 6 -17 7 -31 4
-13 -3 -35 -3 -48 0 -21 5 -24 12 -28 83 -4 63 -9 79 -26 91 -20 13 -19 15 26
61 26 26 56 62 67 81 25 42 103 103 122 96 8 -4 21 -6 29 -6z m-641 -222 c17
-41 199 -270 286 -359 49 -51 86 -77 156 -112 192 -97 353 -207 353 -241 0
-25 -40 -49 -88 -54 -34 -3 -69 3 -127 23 -186 62 -369 198 -510 380 -73 94
-215 307 -215 324 0 17 80 71 107 71 18 0 28 -9 38 -32z m887 -545 c79 -174
148 -600 148 -909 l0 -121 -32 -7 c-170 -37 -278 -43 -403 -25 l-75 11 0 47
c0 97 44 565 66 702 l5 36 68 -5 c115 -8 181 30 181 106 0 28 -8 43 -42 76
-24 22 -56 50 -73 62 l-30 21 70 36 c39 20 74 36 78 37 5 0 22 -30 39 -67z
m148 -1135 c-1 -96 -19 -188 -44 -221 -40 -54 -112 -267 -205 -601 l-30 -108
29 -444 c16 -244 27 -450 24 -458 -6 -16 -30 -21 -169 -36 -117 -13 -305 -13
-305 0 0 14 61 43 157 74 45 15 87 34 94 42 17 20 7 153 -33 439 l-31 230 -4
559 -5 559 29 -7 c15 -4 91 -10 168 -12 113 -4 156 -1 225 14 47 11 88 20 93
21 4 0 7 -23 7 -51z m-168 -802 l-17 -89 42 -426 c23 -234 42 -438 43 -453 0
-22 -6 -28 -31 -33 -17 -4 -32 -5 -34 -3 -1 1 -15 197 -31 435 l-27 432 34
128 c37 142 49 147 21 9z"/>
</g>
</svg>
