<?xml version="1.0" standalone="no"?>
<!DOCTYPE svg PUBLIC "-//W3C//DTD SVG 20010904//EN"
 "http://www.w3.org/TR/2001/REC-SVG-20010904/DTD/svg10.dtd">
<svg version="1.0" xmlns="http://www.w3.org/2000/svg"
 width="500.000000pt" height="500.000000pt" viewBox="0 0 500.000000 500.000000"
 preserveAspectRatio="xMidYMid meet">
<metadata>
Created by potrace 1.15, written by Peter Selinger 2001-2017
</metadata>
<g transform="translate(0.000000,500.000000) scale(0.100000,-0.100000)"
fill="#000000" stroke="none">
<path d="M1593 4825 c-151 -41 -262 -154 -320 -324 -59 -174 -1 -376 165 -571
25 -29 32 -33 45 -22 13 11 21 9 47 -15 27 -24 31 -33 26 -62 -8 -51 -31 -78
-94 -110 -31 -16 -98 -56 -148 -89 -87 -57 -93 -63 -114 -119 -12 -32 -26 -83
-32 -113 -16 -84 -4 -329 21 -428 38 -151 57 -826 25 -913 -19 -54 -122 -415
-159 -560 l-27 -106 -255 -307 -254 -308 17 -25 c15 -25 15 -26 -2 -36 -11 -6
-39 -29 -63 -52 -53 -50 -52 -62 11 -157 42 -62 44 -63 93 -66 27 -2 55 -8 62
-14 7 -6 13 -32 13 -59 0 -92 60 -155 176 -183 73 -18 213 -30 251 -22 58 13
82 106 45 176 -23 42 -104 100 -141 100 -15 0 -31 3 -34 6 -10 10 11 44 58 94
23 26 96 127 162 225 261 391 435 710 513 942 l28 84 19 -28 c32 -46 175 -291
230 -393 110 -205 222 -493 299 -770 38 -133 55 -159 106 -160 25 0 27 -3 33
-57 9 -89 24 -134 56 -166 35 -34 34 -35 151 41 74 47 88 60 88 82 0 37 7 40
43 25 32 -13 33 -12 224 118 106 73 193 138 193 146 0 8 -24 38 -53 66 -95 93
-164 93 -289 3 -11 -8 -21 -9 -27 -3 -10 11 -350 815 -514 1216 l-105 257 -3
128 -3 129 74 3 c58 2 76 0 82 -12 13 -23 132 -56 223 -63 277 -18 539 172
609 443 20 79 20 219 0 298 -48 188 -196 347 -384 413 -64 22 -92 26 -190 26
-127 0 -196 -17 -298 -75 -29 -17 -54 -29 -56 -27 -2 2 -21 31 -44 65 -61 91
-136 169 -224 232 -64 45 -76 58 -61 63 10 4 39 14 64 23 83 30 166 118 203
216 14 36 25 48 56 62 54 22 59 50 26 133 -14 36 -26 78 -26 95 0 49 -21 132
-50 197 -17 36 -26 71 -23 83 5 17 -8 35 -56 80 -132 126 -335 186 -488 145z
m251 -65 c36 -11 100 -44 143 -73 l78 -52 -127 -12 c-184 -17 -245 -48 -295
-148 -32 -63 -28 -60 -55 -41 -34 24 -56 20 -93 -17 -59 -59 -64 -152 -11
-194 l23 -18 -18 -110 c-9 -61 -17 -112 -18 -114 -1 -2 -17 16 -36 40 -71 90
-135 250 -135 339 0 154 127 347 262 399 73 27 193 28 282 1z m246 -222 c27
-43 59 -150 64 -213 2 -27 14 -74 25 -103 28 -70 27 -77 -10 -88 -35 -10 -34
-9 -78 -106 -16 -38 -33 -68 -36 -68 -20 0 -65 38 -91 75 -16 24 -32 41 -36
38 -19 -11 -4 -38 47 -89 l55 -56 -22 -18 c-59 -49 -109 -65 -208 -65 -108 0
-157 18 -232 84 l-41 37 13 95 c7 52 18 115 25 142 11 42 10 47 -4 47 -29 0
-61 30 -61 57 0 34 30 83 51 83 10 0 27 -16 39 -36 15 -23 28 -33 37 -30 8 3
18 6 23 6 4 0 10 19 14 42 10 59 54 137 91 156 47 25 132 40 228 41 l87 1 20
-32z m-330 -753 c19 -3 51 -18 70 -34 l34 -29 -28 -41 c-50 -71 -95 -66 -191
22 -55 52 -55 52 -44 88 l11 35 57 -18 c31 -10 72 -20 91 -23z m-53 -191 c36
-18 61 -24 78 -20 31 8 102 70 110 97 8 25 31 13 104 -55 55 -52 171 -199 171
-218 0 -5 -20 -33 -45 -61 -102 -117 -149 -251 -143 -415 l3 -103 -40 7 c-97
16 -270 82 -328 126 -15 11 -23 50 -43 203 -13 105 -24 191 -24 193 0 7 -40 0
-45 -8 -3 -6 4 -97 17 -203 21 -178 24 -194 48 -216 61 -56 254 -131 398 -153
l75 -12 -6 -111 c-3 -60 -13 -134 -22 -162 -19 -64 -16 -63 -187 -27 -218 46
-395 112 -445 165 -50 55 -142 332 -164 496 -15 114 -6 259 21 345 20 66 23
69 96 118 41 28 107 68 146 90 l71 39 51 -45 c28 -25 75 -56 103 -70z m938
-134 c201 -28 378 -188 429 -386 98 -381 -261 -738 -637 -633 -35 9 -37 12
-24 27 24 27 40 96 33 137 -4 20 -22 53 -42 75 -32 35 -33 39 -15 45 29 9 44
31 36 55 -16 50 -121 64 -260 33 -107 -23 -110 -19 -109 135 0 98 4 127 23
175 69 176 227 306 407 336 68 12 80 12 159 1z m-310 -690 c-3 -5 -19 -10 -36
-10 -25 0 -29 -4 -29 -29 0 -22 6 -31 30 -41 17 -7 44 -25 60 -40 25 -23 30
-36 30 -73 0 -29 -7 -53 -19 -68 -18 -23 -26 -24 -157 -28 l-137 -3 6 58 c4
33 9 92 13 131 l7 73 40 11 c102 27 203 37 192 19z m-996 -184 c60 -69 288
-150 565 -201 97 -18 129 -13 141 24 4 14 15 21 31 21 l24 0 0 -128 0 -129
125 -304 c69 -167 212 -508 318 -758 185 -439 193 -454 225 -468 33 -14 36
-13 96 27 53 36 67 41 102 37 40 -4 98 -38 108 -62 2 -8 -62 -58 -157 -122
l-162 -110 -50 23 c-27 12 -53 23 -57 23 -5 1 -8 -25 -8 -57 l0 -57 -71 -45
c-40 -25 -75 -45 -78 -45 -14 0 -41 73 -41 111 0 82 -49 194 -66 150 -3 -9
-14 -16 -24 -16 -14 0 -23 14 -35 57 -76 271 -143 461 -235 664 -70 154 -133
270 -294 534 -105 173 -121 196 -124 170 -21 -232 -202 -604 -541 -1115 -64
-96 -137 -198 -163 -227 -52 -58 -78 -102 -78 -133 0 -29 35 -60 68 -60 38 0
105 -49 121 -89 8 -17 10 -42 7 -57 l-7 -27 -112 6 c-136 6 -196 25 -237 75
-25 30 -30 45 -30 90 0 69 -25 97 -99 107 -49 7 -55 11 -82 53 -16 25 -29 52
-29 59 0 16 67 61 114 77 l35 12 -24 37 c-14 20 -25 38 -25 41 0 3 109 137
243 298 l243 294 53 199 c29 110 76 274 104 365 l52 165 -2 250 c-1 138 -4
275 -7 305 l-6 55 26 -50 c14 -27 34 -58 43 -69z"/>
<path d="M4140 3126 l0 -116 -372 -2 -373 -3 -3 -62 -3 -63 375 0 375 0 3
-115 3 -114 209 142 c115 78 209 146 209 152 0 5 -95 74 -212 153 l-211 143 0
-115z"/>
</g>
</svg>
