<?xml version="1.0" standalone="no"?>
<!DOCTYPE svg PUBLIC "-//W3C//DTD SVG 20010904//EN"
 "http://www.w3.org/TR/2001/REC-SVG-20010904/DTD/svg10.dtd">
<svg version="1.0" xmlns="http://www.w3.org/2000/svg"
 width="500.000000pt" height="500.000000pt" viewBox="0 0 500.000000 500.000000"
 preserveAspectRatio="xMidYMid meet">
<metadata>
Created by potrace 1.15, written by Peter Selinger 2001-2017
</metadata>
<g transform="translate(0.000000,500.000000) scale(0.100000,-0.100000)"
fill="#000000" stroke="none">
<path d="M4150 4254 c-281 -54 -923 -165 -1040 -180 -69 -8 -190 -24 -270 -35
-175 -23 -227 -24 -322 -4 -40 9 -154 30 -253 47 -174 30 -190 32 -480 32
-228 1 -309 4 -339 15 -74 26 -251 -4 -385 -65 -123 -57 -191 -149 -191 -261
0 -48 -8 -75 -54 -172 -69 -147 -86 -214 -86 -337 0 -91 -2 -100 -29 -143 -54
-84 -74 -141 -75 -212 -1 -61 2 -71 37 -121 45 -66 46 -93 16 -258 -44 -238 1
-355 160 -427 112 -50 194 -65 401 -73 202 -9 240 -14 240 -34 0 -7 -32 -57
-71 -112 -127 -179 -230 -365 -283 -514 -97 -270 -66 -554 71 -640 58 -37 104
-46 155 -31 71 22 80 39 128 254 52 235 163 376 708 900 173 166 364 356 425
422 60 66 124 130 142 142 113 77 383 197 510 226 80 19 985 115 1098 117 13
0 17 9 17 36 l0 37 -97 -7 c-54 -4 -201 -18 -328 -31 -126 -13 -327 -34 -445
-45 -189 -19 -230 -26 -340 -61 -127 -40 -342 -139 -437 -201 -29 -18 -112
-97 -185 -174 -73 -78 -277 -281 -453 -451 -176 -171 -358 -354 -404 -406
l-84 -96 -89 3 c-81 3 -88 2 -88 -15 0 -17 8 -19 76 -19 l75 0 -22 -32 c-12
-18 -23 -34 -24 -36 -1 -1 -24 2 -50 8 -58 13 -106 5 -98 -16 3 -8 19 -14 42
-14 20 0 46 -3 57 -6 21 -6 21 -7 -16 -87 -20 -45 -40 -90 -43 -100 -6 -15
-17 -17 -84 -15 l-77 3 -24 -43 c-14 -26 -26 -68 -31 -110 l-7 -67 -21 40
c-34 67 -46 139 -41 249 11 206 120 450 341 760 75 104 87 145 57 182 -32 37
-80 47 -280 54 -218 8 -308 26 -415 83 -107 57 -130 135 -96 327 12 63 21 145
21 181 0 60 -4 72 -35 119 -19 29 -38 62 -40 74 -9 36 19 120 66 197 l44 73
-2 96 c-3 120 12 180 82 329 47 101 55 126 55 177 0 142 111 230 341 270 81
14 97 14 168 -1 62 -12 132 -15 342 -13 285 2 268 4 712 -76 137 -25 146 -25
312 -1 55 8 150 19 210 25 217 21 1265 209 1272 227 6 16 -5 63 -15 62 -4 -1
-63 -12 -132 -25z m-2740 -3238 c0 -8 -9 -56 -21 -106 -17 -73 -26 -94 -46
-107 -18 -12 -31 -14 -51 -7 -51 18 -61 104 -25 197 l15 37 64 0 c49 0 64 -3
64 -14z"/>
</g>
</svg>
