<?xml version="1.0" standalone="no"?>
<!DOCTYPE svg PUBLIC "-//W3C//DTD SVG 20010904//EN"
 "http://www.w3.org/TR/2001/REC-SVG-20010904/DTD/svg10.dtd">
<svg version="1.0" xmlns="http://www.w3.org/2000/svg"
 width="500.000000pt" height="500.000000pt" viewBox="0 0 500.000000 500.000000"
 preserveAspectRatio="xMidYMid meet">
<metadata>
Created by potrace 1.15, written by Peter Selinger 2001-2017
</metadata>
<g transform="translate(0.000000,500.000000) scale(0.100000,-0.100000)"
fill="#000000" stroke="none">
<path d="M4395 4666 c-634 -163 -1079 -328 -1390 -516 -44 -27 -129 -88 -189
-137 -60 -48 -120 -97 -134 -107 -24 -19 -26 -19 -166 5 -265 45 -550 29 -767
-42 -136 -45 -221 -111 -234 -182 -24 -129 210 -273 514 -318 107 -15 380 -6
480 16 174 39 240 102 316 304 65 173 288 333 631 451 292 101 805 219 1082
250 55 6 110 19 132 30 98 50 154 209 97 276 -41 47 -88 43 -372 -30z m317
-56 c-5 -43 -22 -78 -55 -108 -20 -19 -46 -26 -134 -38 -489 -64 -1126 -237
-1383 -376 -226 -123 -338 -236 -398 -404 -37 -104 -76 -155 -141 -189 -146
-73 -519 -84 -711 -20 -37 12 -39 14 -12 10 200 -29 363 -30 507 -5 168 30
288 96 301 165 8 44 -30 94 -96 127 -95 48 -198 69 -375 76 -145 5 -154 7 -95
14 79 10 262 -4 423 -32 142 -25 139 -26 277 91 233 197 490 327 953 485 337
114 821 245 897 241 l45 -2 -3 -35z m-2297 -829 c50 -10 113 -30 140 -44 110
-55 112 -101 5 -155 -108 -54 -186 -67 -420 -66 -178 1 -215 3 -285 23 -146
39 -221 93 -196 139 26 49 167 102 322 121 107 14 328 5 434 -18z"/>
<path d="M2182 3314 l-22 -15 0 -370 0 -369 -91 0 c-82 0 -91 -2 -87 -17 9
-34 222 -513 228 -513 6 0 219 479 228 513 4 15 -5 17 -87 17 l-91 0 0 369 0
370 -22 15 c-12 9 -25 16 -28 16 -3 0 -16 -7 -28 -16z"/>
<path d="M1520 3005 l0 -95 -95 0 -95 0 0 -65 0 -65 95 0 95 0 0 -100 0 -100
65 0 64 0 3 98 3 97 98 3 97 3 0 64 0 65 -100 0 -100 0 0 95 0 95 -65 0 -65 0
0 -95z"/>
<path d="M1850 1909 c-628 -37 -1184 -161 -1444 -323 -81 -51 -160 -129 -182
-181 -34 -82 -2 -188 81 -264 24 -22 67 -74 95 -116 211 -312 471 -516 799
-625 220 -73 426 -104 811 -122 295 -13 674 -2 900 27 560 72 908 270 1203
685 33 47 88 114 122 150 70 72 85 97 96 153 56 304 -623 556 -1666 617 -197
11 -605 11 -815 -1z m905 -80 c859 -59 1505 -275 1505 -503 0 -28 -35 -106
-48 -106 -4 0 -22 23 -40 50 -147 225 -733 393 -1537 440 -739 43 -1518 -57
-1949 -250 -133 -60 -261 -160 -302 -235 -10 -19 -21 -35 -24 -35 -13 1 -68
88 -75 118 -9 44 24 111 78 158 236 202 882 346 1697 378 127 5 536 -4 695
-15z m-45 -169 c549 -39 1016 -141 1255 -274 79 -45 160 -118 186 -167 l19
-39 -42 -31 c-175 -126 -604 -244 -1084 -298 -303 -34 -535 -44 -894 -38 -539
9 -978 63 -1330 165 -210 61 -402 150 -408 188 -7 51 119 165 264 237 228 115
648 211 1069 246 72 6 146 13 165 14 86 9 669 6 800 -3z m-2140 -675 c268
-113 706 -198 1215 -236 207 -16 776 -16 975 0 517 40 927 119 1198 229 39 17
72 28 72 25 0 -12 -135 -166 -203 -230 -267 -253 -593 -373 -1122 -413 -181
-13 -690 -13 -870 0 -532 40 -861 162 -1128 419 -84 81 -216 231 -202 231 3 0
32 -11 65 -25z"/>
</g>
</svg>
