<?xml version="1.0" standalone="no"?>
<!DOCTYPE svg PUBLIC "-//W3C//DTD SVG 20010904//EN"
 "http://www.w3.org/TR/2001/REC-SVG-20010904/DTD/svg10.dtd">
<svg version="1.0" xmlns="http://www.w3.org/2000/svg"
 width="500.000000pt" height="500.000000pt" viewBox="0 0 500.000000 500.000000"
 preserveAspectRatio="xMidYMid meet">
<metadata>
Created by potrace 1.15, written by Peter Selinger 2001-2017
</metadata>
<g transform="translate(0.000000,500.000000) scale(0.100000,-0.100000)"
fill="#000000" stroke="none">
<path d="M1780 4495 c-450 -55 -865 -225 -1064 -436 l-68 -72 -36 18 c-20 9
-53 30 -73 46 -20 16 -40 29 -43 29 -4 0 -6 -50 -4 -112 l3 -111 -122 -56
c-119 -54 -123 -57 -123 -87 0 -36 16 -44 87 -44 l42 0 -49 -103 c-62 -132
-122 -312 -151 -452 -27 -137 -37 -419 -19 -561 58 -464 313 -924 763 -1379
l129 -130 -31 -214 c-17 -118 -29 -217 -26 -219 3 -3 182 -29 398 -58 215 -29
409 -55 429 -58 42 -7 29 -32 108 221 l41 132 56 -25 c151 -67 372 -101 543
-83 164 16 291 55 465 142 210 104 290 182 377 365 89 187 176 389 189 436 13
50 139 388 148 398 3 4 41 14 83 22 177 34 230 103 180 233 -10 27 -61 120
-114 208 -52 88 -105 187 -117 220 -27 71 -51 190 -51 249 0 73 -101 291 -211
456 -35 52 -68 101 -73 109 -6 10 -3 11 14 6 18 -6 32 3 75 45 l53 53 -159
198 c-90 112 -186 221 -221 250 -243 202 -558 330 -910 368 -127 14 -386 12
-518 -4z m529 -71 c325 -37 599 -147 835 -333 79 -62 350 -399 336 -416 -8
-10 -34 -5 -123 26 -254 87 -435 89 -589 7 -113 -60 -201 -196 -247 -378 -38
-151 -79 -237 -141 -295 -28 -27 -38 -30 -98 -31 l-66 -1 -84 -69 c-140 -114
-228 -228 -290 -374 -9 -21 -11 -16 -11 37 -2 181 -138 312 -311 300 -140 -9
-224 -95 -252 -256 -14 -82 -4 -159 32 -254 36 -95 77 -140 193 -212 15 -9 13
-20 -18 -112 -49 -140 -63 -277 -47 -461 11 -123 34 -289 48 -334 4 -13 0 -18
-16 -18 -43 0 -227 -42 -320 -73 l-94 -31 -109 115 c-377 397 -600 782 -689
1192 -19 87 -22 134 -23 312 0 181 3 226 23 324 35 172 96 346 182 518 l78
155 -31 -5 c-24 -5 -16 2 31 26 l62 31 0 63 0 63 26 -10 c61 -24 81 -15 167
74 93 95 183 157 331 227 200 94 494 173 731 197 144 15 340 13 484 -4z m895
-753 c68 -16 79 -23 125 -72 142 -151 331 -497 331 -606 0 -59 26 -183 55
-259 13 -34 68 -138 123 -231 100 -168 130 -237 118 -268 -9 -25 -83 -53 -179
-66 -81 -12 -88 -15 -94 -39 -3 -14 -28 -83 -56 -155 -27 -71 -62 -168 -77
-215 l-28 -85 -59 -19 c-44 -14 -90 -19 -188 -20 -71 -1 -144 2 -161 6 -30 7
-32 5 -38 -24 -3 -18 -2 -36 3 -41 16 -16 250 -21 326 -8 37 7 69 10 72 8 5
-5 -54 -138 -135 -308 -53 -109 -69 -133 -121 -181 -103 -93 -322 -202 -498
-249 -101 -27 -313 -37 -421 -19 -94 15 -230 58 -311 100 -46 22 -63 27 -66
18 -3 -8 -30 -92 -60 -187 -30 -96 -56 -176 -58 -177 -4 -4 -727 93 -732 98
-2 2 11 99 28 216 l31 212 77 25 c42 13 138 34 213 46 75 13 136 26 136 31 0
5 -11 68 -24 141 -59 317 -55 516 13 714 45 131 43 140 -34 190 -88 56 -104
73 -134 136 -60 125 -62 258 -5 354 63 108 205 123 308 31 63 -55 81 -112 73
-237 -3 -53 -13 -120 -21 -148 -17 -62 -24 -59 102 -41 79 12 83 13 77 35 -17
70 -16 110 5 172 28 83 72 149 155 234 122 123 148 141 226 148 144 13 215
107 289 381 36 132 78 216 138 276 48 48 128 89 200 102 62 11 183 3 276 -19z"/>
<path d="M3475 3040 c-119 -16 -229 -75 -329 -178 -51 -52 -57 -63 -46 -76 19
-24 29 -20 84 37 97 100 200 154 319 165 55 5 58 6 55 30 -4 31 -7 31 -83 22z"/>
<path d="M3375 2804 c-43 -22 -65 -54 -65 -97 0 -53 23 -91 66 -112 47 -22
101 -8 138 36 46 54 25 148 -38 174 -45 19 -64 19 -101 -1z"/>
<path d="M4510 2851 l0 -91 -296 0 -295 0 3 -47 3 -48 293 -3 292 -2 0 -91 0
-90 158 106 c86 59 163 113 170 119 10 10 -20 35 -150 122 -90 60 -166 111
-170 112 -5 2 -8 -37 -8 -87z"/>
</g>
</svg>
