<?xml version="1.0" standalone="no"?>
<!DOCTYPE svg PUBLIC "-//W3C//DTD SVG 20010904//EN"
 "http://www.w3.org/TR/2001/REC-SVG-20010904/DTD/svg10.dtd">
<svg version="1.0" xmlns="http://www.w3.org/2000/svg"
 width="500.000000pt" height="500.000000pt" viewBox="0 0 500.000000 500.000000"
 preserveAspectRatio="xMidYMid meet">
<metadata>
Created by potrace 1.15, written by Peter Selinger 2001-2017
</metadata>
<g transform="translate(0.000000,500.000000) scale(0.100000,-0.100000)"
fill="#000000" stroke="none">
<path d="M3645 3614 c-11 -2 -45 -9 -75 -15 -370 -71 -691 -353 -818 -719 -46
-133 -57 -209 -56 -375 1 -126 5 -165 27 -246 87 -330 292 -584 591 -729 188
-92 418 -129 630 -101 404 54 748 336 889 728 78 218 79 507 0 726 -159 448
-574 740 -1045 736 -67 -1 -132 -3 -143 -5z"/>
<path d="M1053 3586 c-543 -103 -931 -597 -900 -1146 26 -447 321 -837 743
-981 574 -195 1191 104 1397 678 78 216 79 496 3 719 -117 346 -410 618 -764
711 -120 32 -361 41 -479 19z"/>
</g>
</svg>
