<?xml version="1.0" standalone="no"?>
<!DOCTYPE svg PUBLIC "-//W3C//DTD SVG 20010904//EN"
 "http://www.w3.org/TR/2001/REC-SVG-20010904/DTD/svg10.dtd">
<svg version="1.0" xmlns="http://www.w3.org/2000/svg"
 width="500.000000pt" height="500.000000pt" viewBox="0 0 500.000000 500.000000"
 preserveAspectRatio="xMidYMid meet">
<metadata>
Created by potrace 1.15, written by Peter Selinger 2001-2017
</metadata>
<g transform="translate(0.000000,500.000000) scale(0.100000,-0.100000)"
fill="#000000" stroke="none">
<path d="M2392 4063 c-95 -33 -181 -143 -197 -253 l-7 -45 -54 -2 c-78 -3
-144 -36 -205 -100 -49 -52 -54 -55 -108 -58 -82 -4 -153 -38 -210 -101 -46
-50 -81 -122 -81 -166 0 -14 -8 -18 -34 -18 -30 0 -38 6 -66 50 -60 94 -163
145 -278 138 -81 -4 -144 -33 -201 -89 -65 -65 -86 -119 -86 -219 0 -73 4 -92
28 -137 15 -29 27 -54 27 -56 0 -3 -22 -7 -48 -9 -67 -6 -137 -44 -188 -101
-57 -64 -78 -127 -72 -226 5 -79 21 -122 65 -175 l25 -30 -53 -13 c-67 -17
-109 -43 -158 -99 -45 -52 -73 -124 -74 -193 l-1 -47 -115 0 -116 1 -3 -32
c-2 -17 11 -74 28 -125 159 -476 532 -851 950 -958 72 -18 267 -38 615 -61
262 -17 1032 -23 1295 -10 267 13 559 36 670 52 448 65 875 463 1046 974 57
172 59 170 -151 160 l-156 -7 8 28 c4 16 8 57 7 92 -2 124 -96 250 -211 282
l-43 13 0 67 c0 36 -7 87 -16 113 -20 60 -93 141 -154 172 -43 22 -47 27 -59
78 -22 99 -83 171 -181 216 -57 26 -172 28 -230 5 l-40 -16 -46 42 c-69 64
-124 85 -219 85 -61 0 -90 -5 -121 -21 l-42 -21 -4 71 c-11 164 -136 287 -295
290 -52 1 -62 4 -57 16 29 68 35 101 32 170 -5 122 -62 208 -173 261 -49 24
-72 29 -130 28 -38 0 -89 -7 -113 -16z m195 -68 c96 -40 153 -123 153 -223 0
-151 -140 -265 -285 -232 -148 33 -229 194 -167 332 22 50 82 106 133 124 48
17 123 17 166 -1z m-365 -352 c12 -27 44 -69 70 -95 51 -50 56 -58 35 -58 -25
0 -109 -68 -143 -115 -20 -29 -35 -42 -37 -34 -29 104 -68 165 -135 210 -26
18 -49 34 -51 36 -3 2 9 17 25 34 40 44 99 69 161 69 l53 0 22 -47z m-269
-141 c135 -72 162 -257 54 -371 -69 -73 -178 -92 -272 -47 -60 28 -87 56 -114
116 -38 83 -23 180 37 250 75 89 189 109 295 52z m962 13 c89 -36 139 -116
140 -221 0 -61 -4 -77 -30 -120 -19 -29 -49 -60 -77 -77 -40 -25 -57 -29 -115
-29 -99 0 -96 0 -142 30 -84 56 -123 152 -102 247 33 147 186 227 326 170z
m-1671 -87 c59 -18 138 -99 155 -161 43 -154 -69 -301 -229 -301 -138 0 -234
97 -234 234 0 164 149 275 308 228z m1261 2 c22 -8 26 -15 21 -33 -31 -103
-11 -210 54 -296 40 -52 41 -54 23 -73 -57 -63 -188 -83 -268 -41 -86 45 -129
117 -129 213 0 78 25 133 83 181 64 54 151 74 216 49z m-966 -222 c24 -78 88
-155 161 -193 26 -13 29 -20 24 -43 -12 -51 -17 -53 -63 -22 -56 38 -100 50
-184 50 l-68 0 19 28 c29 41 52 116 52 172 0 46 2 50 23 50 19 0 26 -8 36 -42z
m1827 -3 c204 -61 229 -339 39 -438 -29 -15 -59 -21 -111 -21 -62 -1 -77 3
-120 29 -124 77 -152 251 -57 356 72 80 152 103 249 74z m451 -110 c57 -29 96
-74 118 -136 8 -23 15 -43 15 -44 0 -1 -23 -5 -52 -8 -110 -13 -217 -95 -254
-195 -10 -26 -19 -49 -20 -51 -6 -7 -74 41 -94 66 l-21 26 25 26 c58 61 86
181 64 279 -7 31 -5 34 25 47 53 23 136 19 194 -10z m-1649 -127 c110 -52 160
-199 106 -314 -80 -168 -320 -179 -419 -20 -26 43 -30 59 -30 120 0 57 5 80
25 115 65 115 196 156 318 99z m763 -1 c24 -13 49 -34 55 -48 6 -13 26 -54 44
-91 39 -79 38 -124 -7 -196 -79 -127 -262 -150 -366 -46 -91 91 -98 228 -18
325 66 80 199 105 292 56z m-1939 -49 c53 -16 122 -79 143 -130 47 -117 2
-244 -106 -303 -120 -65 -272 -14 -330 110 -36 78 -16 198 44 264 55 59 163
85 249 59z m571 1 c48 -13 112 -70 139 -123 49 -95 17 -227 -71 -291 -105 -78
-240 -63 -323 35 -156 181 21 444 255 379z m947 -64 c6 -3 7 -31 3 -65 -5 -51
3 -113 22 -161 4 -11 -14 -14 -95 -14 -73 0 -99 3 -96 12 20 52 27 107 22 165
-6 63 -5 67 16 71 27 6 114 0 128 -8z m1530 -45 c82 -42 135 -137 128 -230
l-3 -44 -62 -22 c-64 -21 -138 -66 -152 -91 -5 -10 -13 -2 -26 27 -26 57 -113
134 -175 155 -58 19 -62 34 -29 102 55 114 204 162 319 103z m-602 -159 c20
-10 45 -28 55 -39 18 -19 17 -20 -15 -40 -74 -46 -137 -149 -138 -227 l-1 -40
-16 25 c-38 57 -122 129 -172 147 -28 10 -51 21 -51 26 0 18 40 84 67 108 49
46 83 58 161 59 52 0 83 -5 110 -19z m-2168 -186 c0 -3 -10 -5 -22 -5 -36 0
-140 -54 -174 -91 -18 -19 -38 -47 -47 -63 l-14 -30 -13 25 c-7 13 -24 36 -38
51 l-25 27 29 6 c86 19 160 66 204 130 l31 45 35 -45 c18 -25 34 -47 34 -50z
m1245 74 c57 -15 137 -100 154 -162 25 -89 -5 -188 -76 -246 -177 -147 -437
16 -383 239 9 37 25 65 59 101 67 73 147 95 246 68z m1230 -13 c125 -58 175
-205 109 -325 -79 -147 -265 -171 -381 -49 -109 113 -74 301 69 372 67 34 135
34 203 2z m-1767 -98 c115 -54 163 -209 99 -323 l-23 -40 -180 -3 c-203 -3
-202 -3 -230 75 -22 62 -17 123 14 183 62 123 194 167 320 108z m2316 0 c80
-40 126 -116 126 -206 0 -33 -5 -73 -11 -89 l-10 -31 -157 -6 c-86 -3 -179 -8
-205 -11 l-48 -4 -19 42 c-37 81 -22 183 37 248 77 86 187 107 287 57z m-1147
-29 c111 -54 162 -193 114 -311 l-11 -28 -205 0 -206 0 -16 38 c-22 52 -20
139 5 188 25 49 76 98 122 118 52 23 145 20 197 -5z m-2346 -21 c52 -15 117
-73 140 -122 12 -26 19 -65 19 -105 l0 -64 -182 7 c-101 4 -207 9 -235 12
l-53 6 0 40 c0 163 152 274 311 226z m587 -4 c47 -19 98 -68 125 -119 21 -42
29 -147 12 -174 -11 -18 -445 -6 -457 12 -13 21 -9 106 7 144 52 125 194 187
313 137z m-738 -364 c1256 -62 2567 -60 3784 5 149 8 272 12 274 10 9 -9 -51
-163 -103 -263 -140 -269 -352 -482 -599 -602 -168 -82 -238 -94 -741 -132
-227 -17 -1202 -17 -1465 0 -415 27 -556 42 -645 67 -164 48 -339 152 -482
288 -151 143 -302 380 -368 576 l-25 73 83 -6 c45 -3 174 -11 287 -16z"/>
</g>
</svg>
