<?xml version="1.0" standalone="no"?>
<!DOCTYPE svg PUBLIC "-//W3C//DTD SVG 20010904//EN"
 "http://www.w3.org/TR/2001/REC-SVG-20010904/DTD/svg10.dtd">
<svg version="1.0" xmlns="http://www.w3.org/2000/svg"
 width="500.000000pt" height="500.000000pt" viewBox="0 0 500.000000 500.000000"
 preserveAspectRatio="xMidYMid meet">
<metadata>
Created by potrace 1.15, written by Peter Selinger 2001-2017
</metadata>
<g transform="translate(0.000000,500.000000) scale(0.100000,-0.100000)"
fill="#000000" stroke="none">
<path d="M2628 4042 c-15 -26 -38 -64 -51 -85 l-23 -38 -69 56 c-37 31 -71 52
-75 48 -4 -4 -15 -31 -24 -59 l-17 -51 -106 -17 c-262 -43 -462 -142 -617
-306 -164 -175 -252 -377 -302 -700 -14 -91 -28 -174 -30 -185 -2 -11 -27 -33
-56 -50 -109 -62 -147 -216 -82 -334 32 -61 93 -111 133 -111 25 0 29 -6 54
-97 48 -169 127 -330 229 -467 68 -91 194 -215 273 -268 l64 -43 1 -121 c0
-127 8 -152 44 -138 13 5 16 23 16 110 0 57 4 104 9 104 4 0 38 -13 74 -30
253 -115 575 -113 839 4 l57 25 3 -107 c3 -107 3 -107 28 -107 l25 0 3 125 3
125 65 44 c238 161 442 460 520 762 17 65 21 72 54 85 153 64 171 295 32 415
l-39 34 -2 110 c-5 364 -138 670 -371 856 -130 103 -314 186 -502 225 -45 10
-85 19 -87 20 -8 6 -30 132 -31 172 0 23 -3 42 -7 42 -5 0 -20 -21 -35 -48z
m-122 -167 c28 -25 57 -45 63 -45 6 0 19 16 28 35 21 44 30 44 39 0 3 -19 10
-38 16 -41 5 -3 51 -14 103 -25 436 -89 708 -333 804 -720 24 -100 44 -243 39
-290 l-3 -34 -58 82 c-73 103 -144 236 -178 333 l-26 74 -59 -59 c-33 -33 -70
-82 -83 -109 l-23 -48 -70 68 c-74 73 -145 172 -179 248 -11 25 -22 46 -24 46
-2 0 -29 -37 -60 -81 -71 -102 -191 -228 -256 -269 -46 -30 -132 -63 -141 -54
-2 2 1 36 8 76 19 104 16 232 -5 298 l-17 55 -29 -55 c-61 -120 -153 -234
-259 -322 -32 -27 -60 -47 -62 -46 -2 2 10 46 27 98 29 89 29 95 13 107 -29
21 -38 16 -86 -50 -57 -77 -180 -196 -268 -259 -78 -55 -297 -182 -342 -197
l-31 -11 7 91 c20 265 101 517 220 683 50 70 149 167 219 215 122 83 307 148
492 172 52 7 95 16 95 20 0 15 20 59 26 59 4 0 31 -20 60 -45z m436 -695 c42
-61 230 -251 246 -250 4 1 27 42 52 92 25 51 50 93 55 95 6 1 29 -37 52 -85
44 -92 147 -254 215 -334 l41 -49 -6 -172 c-3 -102 -12 -202 -22 -247 -54
-247 -185 -499 -343 -664 -128 -132 -330 -253 -497 -297 -103 -27 -297 -36
-402 -19 -251 40 -476 176 -662 400 -183 220 -301 554 -301 855 l0 91 133 67
c171 86 328 190 427 284 44 41 80 72 80 69 0 -3 -11 -30 -25 -58 l-25 -53 22
-17 c13 -10 26 -18 29 -18 3 0 37 22 75 49 91 64 200 166 254 238 24 32 48 63
53 68 11 12 0 -101 -19 -205 -21 -110 -24 -103 56 -98 129 10 264 101 402 275
28 36 54 61 58 56 3 -4 27 -37 52 -73z m-1638 -857 c7 -50 -4 -54 -40 -18 -71
71 -72 207 -2 277 l23 23 7 -120 c3 -66 9 -139 12 -162z"/>
<path d="M2065 2633 c-118 -26 -265 -106 -265 -143 0 -29 23 -25 83 15 74 49
158 77 257 84 78 6 85 8 88 29 3 21 1 22 -70 21 -40 -1 -82 -3 -93 -6z"/>
<path d="M2845 2631 c-27 -5 -50 -40 -28 -42 4 0 42 -2 83 -3 93 -4 175 -27
258 -72 71 -39 92 -42 92 -15 0 23 -69 68 -151 99 -46 17 -194 45 -217 41 -4
-1 -20 -4 -37 -8z"/>
<path d="M2063 2514 c-20 -10 -40 -33 -53 -59 -18 -37 -20 -50 -11 -82 14 -51
49 -83 100 -90 82 -11 141 39 141 121 0 92 -96 151 -177 110z"/>
<path d="M2914 2516 c-48 -21 -74 -61 -74 -115 0 -53 18 -84 60 -106 60 -31
137 -10 165 45 34 66 10 141 -55 175 -35 18 -56 18 -96 1z"/>
<path d="M2669 1984 c-79 -85 -194 -88 -281 -7 -26 25 -48 24 -48 -2 0 -16 47
-54 100 -80 53 -27 127 -23 188 10 62 34 97 69 89 89 -9 22 -20 20 -48 -10z"/>
<path d="M2400 1640 c-69 -11 -164 -45 -181 -66 -9 -11 -9 -18 -1 -26 8 -8 32
-4 91 15 147 49 292 43 444 -18 99 -39 136 -15 50 33 -89 49 -288 80 -403 62z"/>
<path d="M455 2539 c-88 -60 -188 -129 -223 -153 l-63 -44 228 -154 228 -155
5 116 5 116 243 3 243 2 -3 73 -3 72 -242 3 -243 2 0 115 c0 63 -3 115 -7 114
-5 0 -80 -50 -168 -110z"/>
<path d="M4360 2536 l0 -116 -240 0 -240 0 0 -75 0 -75 240 0 240 0 0 -121 c0
-66 4 -119 8 -117 5 2 110 72 235 157 l227 154 -88 60 c-178 122 -353 238
-367 244 -13 4 -15 -14 -15 -111z"/>
</g>
</svg>
