<?xml version="1.0" standalone="no"?>
<!DOCTYPE svg PUBLIC "-//W3C//DTD SVG 20010904//EN"
 "http://www.w3.org/TR/2001/REC-SVG-20010904/DTD/svg10.dtd">
<svg version="1.0" xmlns="http://www.w3.org/2000/svg"
 width="500.000000pt" height="500.000000pt" viewBox="0 0 500.000000 500.000000"
 preserveAspectRatio="xMidYMid meet">
<metadata>
Created by potrace 1.15, written by Peter Selinger 2001-2017
</metadata>
<g transform="translate(0.000000,500.000000) scale(0.100000,-0.100000)"
fill="#000000" stroke="none">
<path d="M3645 4228 c-217 -41 -386 -246 -504 -608 -45 -141 -75 -349 -64
-453 5 -52 8 -59 32 -63 l26 -6 0 -201 c1 -111 4 -217 8 -235 6 -32 5 -33 -49
-57 -104 -46 -148 -86 -192 -178 -77 -159 -188 -499 -322 -987 -62 -224 -62
-226 -55 -320 8 -122 31 -222 57 -256 29 -36 133 -84 184 -84 35 0 57 11 150
77 60 43 130 101 157 128 l48 50 -7 -110 c-4 -60 -7 -121 -8 -135 l-1 -25 550
-3 c303 -2 677 0 833 4 l282 6 0 517 c-1 284 -5 577 -9 651 -19 292 -98 462
-281 607 l-55 43 0 260 0 260 29 6 29 6 -6 127 c-9 190 -53 348 -157 566 -119
247 -260 371 -468 411 -83 16 -134 16 -207 2z m278 -87 c124 -43 239 -154 318
-307 42 -81 96 -241 85 -252 -11 -11 -124 -5 -174 9 -65 18 -116 71 -137 142
l-17 58 -37 -53 c-93 -135 -400 -292 -664 -341 -94 -18 -97 -15 -97 91 0 94
37 220 106 361 93 188 223 300 372 319 74 10 173 -1 245 -27z m198 -606 c34
-12 86 -19 139 -19 47 -1 88 -5 92 -11 12 -16 8 -164 -6 -245 -58 -318 -282
-539 -547 -540 -226 0 -449 183 -532 440 -14 41 -27 94 -31 117 l-6 42 37 6
c223 38 504 156 650 274 l57 46 46 -46 c31 -31 64 -52 101 -64z m-776 -648
c30 -36 75 -81 100 -99 24 -18 44 -35 44 -38 0 -3 -63 -25 -139 -50 l-140 -46
-4 31 c-11 71 -15 240 -9 339 l6 107 43 -89 c24 -48 69 -118 99 -155z m1010
-245 c-3 -3 -44 13 -92 36 -49 23 -100 44 -116 48 -40 9 -42 22 -10 46 57 44
134 135 175 209 l43 76 3 -205 c1 -113 0 -207 -3 -210z m-688 32 c69 -20 236
-15 303 9 24 9 46 14 48 12 3 -2 -38 -141 -91 -307 l-95 -303 -19 45 c-78 183
-76 177 -64 211 20 59 14 107 -18 140 -16 16 -40 29 -53 29 -22 0 -35 23 -96
179 -4 10 -1 13 12 8 9 -4 42 -14 73 -23z m-107 -99 c43 -106 43 -106 23 -128
-11 -12 -50 -70 -87 -129 -38 -60 -72 -108 -76 -108 -5 0 -12 9 -15 21 -8 25
-61 59 -92 59 -13 0 -41 -7 -63 -16 -36 -15 -40 -20 -36 -43 19 -97 18 -117
-8 -156 -39 -56 -50 -109 -49 -220 l1 -100 -150 -90 c-176 -106 -222 -142
-213 -167 12 -29 36 -21 136 45 53 34 130 82 172 106 l77 43 37 -32 c20 -18
70 -49 111 -68 l74 -35 -7 -46 c-12 -86 -100 -207 -292 -403 -121 -123 -302
-268 -335 -268 -25 0 -121 44 -136 62 -21 26 -42 147 -42 244 0 80 7 116 56
295 124 454 240 809 313 958 40 83 78 114 202 166 84 36 342 123 350 119 4 -2
26 -51 49 -109z m676 46 c115 -55 188 -104 261 -174 77 -73 116 -132 147 -223
54 -156 57 -186 63 -806 l6 -578 -111 0 c-111 0 -112 0 -112 24 0 65 -71 1160
-76 1167 -9 15 -44 10 -50 -6 -6 -14 47 -955 62 -1127 l7 -68 -633 0 -632 0 6
63 c3 34 8 96 11 136 6 73 8 76 58 130 62 69 162 202 187 251 10 19 21 57 25
82 6 42 14 53 64 93 60 50 157 156 199 218 22 33 26 51 30 142 5 124 -1 161
-33 210 -17 25 -23 41 -17 52 7 11 22 -17 56 -103 53 -133 67 -154 93 -138 14
9 132 360 219 653 l16 53 36 -6 c20 -3 73 -23 118 -45z m-539 -197 c8 -21 -20
-109 -62 -196 l-32 -68 33 -19 c44 -26 58 -79 51 -194 -6 -85 -8 -91 -47 -142
-53 -69 -137 -156 -172 -179 -27 -18 -28 -18 -110 22 -123 59 -131 72 -136
190 -5 111 7 168 44 212 24 28 26 37 22 100 l-4 70 28 0 c33 0 48 -24 48 -78
0 -41 20 -68 43 -59 15 6 97 121 166 232 70 112 112 149 128 109z"/>
<path d="M3592 2953 c2 -10 25 -31 52 -48 47 -28 55 -30 150 -30 86 0 108 4
149 24 47 23 67 45 53 58 -3 4 -25 -3 -49 -14 -116 -58 -220 -55 -307 7 -34
25 -53 26 -48 3z"/>
<path d="M1363 4165 c-192 -42 -368 -206 -447 -416 -30 -80 -56 -212 -56 -286
0 -48 -3 -57 -30 -79 -40 -34 -57 -92 -42 -143 14 -46 56 -90 92 -98 20 -4 30
-15 44 -51 40 -110 134 -238 228 -313 l48 -37 -33 -11 c-17 -5 -95 -29 -172
-51 -168 -50 -290 -98 -356 -141 -42 -27 -55 -44 -89 -113 -71 -150 -169 -499
-275 -986 -45 -205 -47 -220 -41 -325 6 -115 25 -209 51 -249 18 -28 142 -86
183 -86 30 0 70 22 152 85 30 23 88 65 129 94 l74 53 -7 -121 -7 -121 623 0
c343 0 714 3 826 7 l202 6 0 511 c0 281 -5 574 -10 651 -15 235 -69 381 -187
506 -104 110 -260 210 -397 255 -28 9 -54 21 -57 26 -3 5 33 48 81 96 72 72
94 103 133 182 26 52 52 118 58 146 9 38 18 54 39 66 83 48 92 175 17 235 -17
13 -26 33 -31 68 -46 325 -257 584 -523 640 -83 18 -138 18 -220 0z m323 -94
c128 -64 217 -156 283 -294 59 -122 80 -199 88 -327 17 -270 -96 -528 -284
-653 -215 -143 -463 -110 -650 84 -138 144 -207 333 -207 559 1 308 161 570
402 657 58 20 82 23 173 21 102 -3 109 -5 195 -47z m33 -1418 c-96 -36 -187
-48 -278 -35 -95 13 -218 59 -202 75 8 8 23 8 54 -1 129 -38 191 -45 269 -34
42 6 103 22 135 34 l58 24 12 -21 c11 -18 7 -22 -48 -42z m-497 -22 c104 -54
205 -75 327 -68 92 4 147 19 286 77 28 12 37 9 115 -30 247 -124 360 -251 420
-475 27 -96 38 -375 39 -947 l1 -358 -115 0 -115 0 0 33 c0 46 -59 1032 -66
1095 -5 47 -8 52 -30 52 -18 0 -24 -5 -24 -22 0 -13 16 -277 35 -587 19 -310
32 -567 29 -572 -3 -5 -281 -9 -631 -9 l-625 0 7 132 c7 123 10 136 35 173 15
22 52 78 82 125 30 47 73 100 95 118 41 32 63 84 63 146 0 18 12 33 43 55 49
33 167 156 210 218 22 32 30 60 39 131 14 104 2 177 -36 232 l-23 34 28 67
c43 101 52 152 35 194 -25 58 -85 65 -140 17 -10 -9 -57 -75 -103 -146 l-84
-128 -18 33 c-26 48 -75 66 -133 48 l-43 -14 3 -76 c4 -68 1 -81 -21 -115 -37
-57 -49 -115 -46 -221 l3 -94 -133 -79 c-205 -124 -223 -137 -211 -161 6 -10
15 -19 19 -19 5 0 65 35 133 78 67 44 142 89 165 102 l42 23 37 -33 c21 -18
71 -48 111 -68 79 -37 81 -41 64 -116 -7 -26 -26 -54 -60 -88 -28 -28 -79 -95
-113 -150 -79 -128 -137 -192 -255 -275 -52 -38 -115 -83 -140 -101 -51 -36
-57 -36 -142 6 -66 33 -76 54 -92 213 -12 122 -9 138 77 519 86 377 169 666
229 796 48 105 103 135 410 230 77 24 140 43 141 44 0 0 34 -18 76 -39z m172
-241 c0 -30 -14 -77 -42 -139 -23 -52 -41 -95 -39 -96 67 -35 81 -73 75 -206
-5 -97 -5 -99 -46 -152 -23 -29 -75 -85 -116 -125 l-74 -73 -51 20 c-63 23
-130 62 -154 88 -58 64 -40 297 28 353 13 11 14 26 9 86 l-7 74 30 0 c40 0 53
-16 53 -69 0 -26 4 -52 9 -59 20 -32 49 -2 148 148 115 173 139 202 162 198
12 -3 16 -15 15 -48z"/>
<path d="M1281 2966 c-9 -11 -4 -20 26 -46 78 -69 181 -94 276 -66 55 16 136
69 145 93 8 26 -28 24 -70 -5 -108 -73 -219 -71 -318 8 -44 35 -44 35 -59 16z"/>
</g>
</svg>
