<?xml version="1.0" standalone="no"?>
<!DOCTYPE svg PUBLIC "-//W3C//DTD SVG 20010904//EN"
 "http://www.w3.org/TR/2001/REC-SVG-20010904/DTD/svg10.dtd">
<svg version="1.0" xmlns="http://www.w3.org/2000/svg"
 width="500.000000pt" height="500.000000pt" viewBox="0 0 500.000000 500.000000"
 preserveAspectRatio="xMidYMid meet">
<metadata>
Created by potrace 1.15, written by Peter Selinger 2001-2017
</metadata>
<g transform="translate(0.000000,500.000000) scale(0.100000,-0.100000)"
fill="#000000" stroke="none">
<path d="M2770 4675 c-435 -54 -827 -214 -1063 -436 -521 -485 -287 -1142 513
-1440 59 -22 68 -28 45 -29 -75 -1 -163 -72 -186 -149 -25 -85 20 -190 100
-231 59 -29 142 -27 197 5 116 68 130 239 26 325 l-35 29 94 -25 c190 -48 355
-67 604 -68 134 0 269 5 325 12 458 61 828 216 1069 447 184 177 266 347 265
555 0 124 -19 200 -74 310 -171 339 -617 596 -1190 685 -147 23 -538 29 -690
10z m655 -109 c315 -47 594 -146 810 -287 44 -29 123 -96 175 -148 165 -166
234 -339 210 -528 -18 -143 -84 -266 -210 -393 -284 -286 -772 -453 -1330
-453 -281 -1 -510 34 -750 113 -245 80 -431 189 -580 339 -145 146 -207 270
-217 431 -20 323 248 624 717 806 160 61 385 112 590 134 117 12 464 4 585
-14z m-1110 -1911 c61 -30 74 -107 26 -156 -49 -49 -126 -35 -156 28 -22 45
-6 97 39 124 38 23 49 23 91 4z"/>
<path d="M1405 2755 c-65 -118 -53 -112 -125 -55 -35 28 -65 49 -67 47 -2 -2
-11 -28 -21 -57 l-18 -54 -93 -17 c-279 -54 -495 -184 -630 -382 -52 -76 -118
-224 -146 -327 -19 -72 -65 -361 -65 -412 0 -4 -9 -10 -20 -13 -93 -30 -152
-173 -118 -287 17 -58 82 -126 132 -140 l41 -11 28 -91 c62 -199 181 -392 330
-533 127 -120 262 -200 424 -250 81 -25 102 -27 263 -27 141 -1 187 3 235 17
200 60 314 127 460 272 63 62 133 143 160 185 100 154 172 344 202 528 16 108
17 109 52 128 132 71 129 311 -6 393 -38 24 -42 30 -48 81 -19 152 -89 344
-166 457 -134 196 -354 329 -644 388 -44 9 -81 18 -83 20 -2 2 -12 50 -21 107
l-17 103 -39 -70z m-97 -166 l55 -42 18 24 c10 13 19 28 19 32 0 19 18 -5 23
-31 6 -27 10 -30 67 -36 205 -23 417 -117 551 -243 155 -147 244 -350 273
-623 l5 -55 -20 25 c-83 104 -172 253 -204 346 l-23 66 -47 -43 c-26 -24 -61
-68 -77 -96 -35 -62 -38 -61 -114 19 -58 62 -101 122 -138 196 -14 28 -28 52
-30 52 -1 0 -27 -37 -57 -82 -96 -147 -237 -278 -316 -294 l-30 -6 10 69 c12
94 4 228 -18 281 l-18 44 -41 -79 c-23 -43 -57 -101 -78 -128 -33 -46 -170
-185 -181 -185 -3 0 6 36 20 81 14 45 21 85 16 89 -4 5 -19 11 -33 14 -22 5
-30 -1 -65 -55 -81 -123 -301 -301 -486 -395 l-69 -34 0 43 c0 71 19 206 45
312 95 401 349 634 765 702 96 16 99 17 105 45 4 15 9 28 12 28 4 0 31 -19 61
-41z m362 -558 c0 -22 110 -149 188 -215 l87 -75 42 90 c23 49 45 89 50 89 5
0 23 -30 41 -66 42 -84 110 -188 184 -278 l58 -71 0 -135 c0 -225 -40 -402
-133 -586 -107 -211 -252 -366 -439 -469 -134 -73 -266 -106 -426 -106 -245 0
-457 88 -641 265 -226 217 -350 499 -375 853 l-6 83 72 36 c162 82 319 188
426 288 55 52 61 53 37 7 -13 -27 -13 -30 10 -51 l25 -23 57 39 c79 53 187
157 240 228 l43 58 0 -38 c0 -22 -7 -79 -15 -129 -8 -49 -15 -94 -15 -99 0
-18 121 3 184 32 72 34 188 138 251 226 38 52 55 67 55 47z"/>
<path d="M1861 1656 c-31 -17 -50 -53 -51 -94 0 -49 54 -102 105 -102 54 0
105 53 105 108 0 79 -87 128 -159 88z"/>
<path d="M1034 1576 c-45 -45 -47 -101 -6 -147 61 -69 182 -20 182 73 0 33
-36 87 -66 98 -46 18 -75 11 -110 -24z"/>
<path d="M1534 759 c-111 -8 -333 -37 -346 -45 -4 -3 -8 -12 -8 -21 0 -18 1
-18 250 11 74 9 216 19 315 23 160 7 180 10 183 26 3 16 -9 17 -145 16 -81 -1
-193 -5 -249 -10z"/>
</g>
</svg>
