<?xml version="1.0" standalone="no"?>
<!DOCTYPE svg PUBLIC "-//W3C//DTD SVG 20010904//EN"
 "http://www.w3.org/TR/2001/REC-SVG-20010904/DTD/svg10.dtd">
<svg version="1.0" xmlns="http://www.w3.org/2000/svg"
 width="500.000000pt" height="500.000000pt" viewBox="0 0 500.000000 500.000000"
 preserveAspectRatio="xMidYMid meet">
<metadata>
Created by potrace 1.15, written by Peter Selinger 2001-2017
</metadata>
<g transform="translate(0.000000,500.000000) scale(0.100000,-0.100000)"
fill="#000000" stroke="none">
<path d="M1636 3525 c-75 -29 -130 -80 -173 -160 -38 -70 -39 -187 -4 -260 14
-27 25 -54 25 -60 1 -5 -21 -13 -47 -17 -101 -14 -188 -82 -232 -181 -24 -53
-27 -69 -23 -143 l4 -84 -52 0 -53 0 10 32 c37 132 -35 284 -165 348 -211 104
-456 -54 -444 -288 l3 -64 -140 7 c-123 6 -142 5 -154 -9 -18 -22 -9 -76 35
-195 169 -454 531 -809 931 -911 74 -19 266 -39 593 -60 265 -18 1085 -24
1346 -11 461 24 680 48 803 88 396 128 736 488 886 935 19 58 35 115 35 126 0
45 -10 46 -341 28 -171 -9 -312 -16 -313 -14 -21 49 -49 90 -79 121 -92 93
-237 115 -355 56 -70 -34 -124 -91 -148 -156 -15 -39 -20 -43 -51 -43 l-33 0
25 38 c13 21 32 68 41 105 16 62 16 72 1 133 -29 116 -106 198 -214 230 -140
41 -284 -17 -355 -143 l-31 -54 -36 34 c-79 76 -186 98 -313 62 -28 -7 -28 -6
-28 39 0 113 -86 234 -195 275 -103 39 -219 23 -297 -39 -20 -17 -39 -30 -41
-30 -3 0 -8 17 -12 37 -16 85 -75 163 -157 208 -43 24 -67 29 -133 32 -53 2
-93 -2 -119 -12z m211 -78 c72 -38 120 -107 130 -187 20 -170 -138 -303 -302
-255 -143 41 -212 202 -144 337 22 43 83 97 130 115 43 16 145 11 186 -10z
m540 -190 c39 -21 89 -70 109 -109 22 -43 29 -128 14 -174 -17 -53 -73 -120
-120 -144 -59 -30 -110 -34 -175 -16 -143 42 -213 203 -145 336 23 45 83 99
131 117 43 16 145 11 186 -10z m946 -211 c65 -19 103 -50 137 -109 25 -43 30
-63 30 -118 0 -81 -28 -140 -89 -186 -42 -32 -45 -33 -145 -33 -98 0 -105 1
-143 29 -24 18 -51 50 -67 82 -66 133 -1 291 138 335 54 17 83 17 139 0z
m-1295 -195 l32 -39 -50 -17 c-61 -20 -138 -88 -171 -149 -18 -34 -30 -46 -47
-46 -21 0 -22 3 -15 38 20 93 5 190 -39 253 l-18 26 48 7 c57 8 140 45 166 75
l20 22 21 -65 c12 -36 36 -83 53 -105z m-1152 90 c101 -46 158 -155 136 -260
-6 -30 -13 -55 -14 -56 -8 -6 -434 18 -442 25 -14 14 -19 93 -7 136 37 136
199 213 327 155z m692 3 c71 -29 131 -106 146 -185 7 -42 -10 -133 -28 -148
-9 -7 -79 -9 -216 -4 l-202 6 -14 33 c-43 104 13 240 120 290 60 28 139 32
194 8z m1236 2 c52 -22 113 -83 132 -131 21 -55 16 -160 -9 -199 l-17 -26
-195 0 -195 0 -17 26 c-22 35 -30 143 -13 187 21 52 76 113 122 135 51 25 143
29 192 8z m1151 -195 c39 -17 115 -91 115 -111 0 -14 -46 -18 -247 -25 -206
-7 -204 -7 -154 62 60 83 192 117 286 74z m-1721 -45 c41 -24 96 -87 96 -110
0 -9 -420 1 -429 10 -11 11 61 82 110 107 47 25 62 28 116 24 43 -3 76 -13
107 -31z m-1614 -156 c1339 -64 2570 -62 3820 5 140 7 257 11 259 9 9 -8 -32
-115 -86 -226 -72 -149 -161 -275 -273 -389 -183 -184 -402 -306 -610 -338
-328 -52 -1218 -77 -1783 -51 -329 16 -704 47 -772 65 -383 100 -736 451 -881
877 l-23 70 67 -6 c37 -3 164 -11 282 -16z"/>
</g>
</svg>
