<?xml version="1.0" standalone="no"?>
<!DOCTYPE svg PUBLIC "-//W3C//DTD SVG 20010904//EN"
 "http://www.w3.org/TR/2001/REC-SVG-20010904/DTD/svg10.dtd">
<svg version="1.0" xmlns="http://www.w3.org/2000/svg"
 width="500.000000pt" height="500.000000pt" viewBox="0 0 500.000000 500.000000"
 preserveAspectRatio="xMidYMid meet">
<metadata>
Created by potrace 1.15, written by Peter Selinger 2001-2017
</metadata>
<g transform="translate(0.000000,500.000000) scale(0.100000,-0.100000)"
fill="#000000" stroke="none">
<path d="M4075 4876 c-21 -31 -121 -101 -188 -131 -85 -37 -621 -220 -779
-266 -79 -22 -160 -52 -181 -65 -24 -16 -61 -60 -101 -122 -35 -53 -118 -167
-186 -252 -68 -85 -132 -170 -144 -189 -29 -50 -27 -116 8 -175 25 -42 26 -50
15 -83 -7 -21 -10 -68 -7 -117 4 -66 12 -99 46 -180 23 -55 41 -100 39 -102
-1 -1 -37 -25 -80 -53 -92 -60 -229 -190 -298 -281 -92 -122 -148 -252 -170
-390 -27 -176 51 -341 196 -414 69 -34 125 -45 225 -46 214 0 463 112 662 298
144 135 253 306 294 462 23 85 23 229 0 289 l-16 45 36 37 c20 21 51 43 68 50
17 7 60 32 96 55 84 54 256 154 393 229 83 45 123 74 171 126 72 76 184 239
220 320 40 91 107 163 364 391 35 31 37 51 8 56 -44 9 -370 -310 -411 -401
-30 -69 -75 -143 -140 -232 -85 -115 -132 -156 -250 -219 -61 -33 -186 -105
-280 -161 -93 -56 -190 -113 -215 -127 -25 -15 -70 -55 -100 -90 -93 -107
-232 -228 -308 -267 -23 -12 -23 -12 -8 18 21 39 21 71 0 71 -9 0 -43 27 -75
60 -32 33 -61 60 -65 60 -3 0 -24 -14 -45 -31 -21 -17 -39 -27 -39 -24 0 17
67 123 121 191 55 68 149 154 170 154 17 0 229 213 229 230 0 10 -22 34 -50
54 -27 20 -50 40 -50 46 0 12 -141 80 -167 80 -12 0 -38 -21 -63 -51 -29 -35
-61 -59 -97 -75 -51 -23 -53 -25 -53 -62 0 -22 -11 -60 -25 -88 -25 -47 -25
-52 -14 -127 6 -43 10 -79 8 -81 -2 -2 -46 -20 -97 -39 l-93 -35 -25 55 c-35
81 -64 180 -64 222 0 55 25 130 97 291 47 105 66 159 69 197 3 61 17 89 98
205 34 48 70 102 81 120 25 40 75 75 129 89 213 57 826 268 921 317 84 44 189
140 179 165 -9 25 -41 21 -59 -7z m-995 -1236 c0 -15 20 -50 50 -87 l49 -61
-38 -35 c-74 -67 -78 -67 -133 -6 -33 38 -48 64 -49 87 -1 17 -3 38 -3 45 -1
8 24 34 54 59 57 46 70 46 70 -2z m-180 -396 c0 -3 -14 -24 -31 -45 -17 -22
-49 -73 -70 -115 -44 -85 -52 -159 -23 -220 36 -75 120 -115 203 -94 60 14
226 126 318 213 51 49 74 64 79 55 17 -27 16 -182 0 -246 -63 -239 -276 -490
-529 -623 -321 -168 -608 -135 -718 81 -30 60 -37 180 -15 272 68 291 359 588
681 697 95 32 105 35 105 25z m119 -297 c22 -14 23 -19 12 -45 -18 -43 -53
-72 -93 -78 -29 -5 -41 -1 -71 25 -38 34 -63 91 -50 115 4 8 28 30 53 50 l45
35 40 -43 c22 -23 51 -50 64 -59z"/>
<path d="M1835 1850 c-115 -154 -213 -280 -217 -280 -4 0 -40 25 -79 55 -39
30 -74 55 -78 55 -3 0 -29 -135 -57 -300 -28 -165 -50 -300 -49 -300 4 0 534
238 550 247 11 7 -5 24 -70 73 -47 36 -83 70 -81 77 4 9 338 460 408 550 6 7
-10 26 -51 57 -33 25 -61 46 -63 46 -2 0 -98 -126 -213 -280z"/>
<path d="M1471 940 l-334 -219 -41 23 c-70 41 -707 387 -731 398 -19 9 -32 4
-89 -34 l-66 -45 390 -213 c214 -117 390 -216 390 -219 0 -4 -151 -105 -335
-225 l-335 -220 80 -43 80 -44 330 216 c181 118 335 218 343 221 7 2 190 -92
406 -210 l393 -215 64 42 c35 23 64 45 64 48 0 3 -176 102 -390 219 -215 117
-389 214 -388 216 2 1 152 100 333 219 182 118 331 219 332 223 3 9 -131 82
-149 82 -7 0 -163 -99 -347 -220z"/>
</g>
</svg>
