<?xml version="1.0" standalone="no"?>
<!DOCTYPE svg PUBLIC "-//W3C//DTD SVG 20010904//EN"
 "http://www.w3.org/TR/2001/REC-SVG-20010904/DTD/svg10.dtd">
<svg version="1.0" xmlns="http://www.w3.org/2000/svg"
 width="500.000000pt" height="500.000000pt" viewBox="0 0 500.000000 500.000000"
 preserveAspectRatio="xMidYMid meet">
<metadata>
Created by potrace 1.15, written by Peter Selinger 2001-2017
</metadata>
<g transform="translate(0.000000,500.000000) scale(0.100000,-0.100000)"
fill="#000000" stroke="none">
<path d="M1493 3770 c-70 -43 -67 -19 -73 -580 l-5 -505 -632 -5 -632 -5 -31
-30 c-74 -71 -56 -186 37 -234 15 -8 202 -11 642 -11 l621 0 0 -502 c0 -484 1
-504 20 -536 11 -18 34 -41 52 -52 75 -46 27 -70 1093 546 539 311 990 575
1003 587 49 46 49 148 -1 195 -13 12 -464 276 -1002 587 -1065 615 -1017 591
-1092 545z m963 -802 c403 -233 733 -425 733 -428 0 -5 -1449 -841 -1469 -848
-7 -2 -10 300 -10 847 0 468 3 851 6 851 4 0 337 -190 740 -422z"/>
<path d="M2168 2817 c-52 -15 -64 -23 -126 -81 -179 -170 -45 -480 208 -479
113 0 199 53 249 155 52 103 41 212 -28 304 -66 88 -196 131 -303 101z"/>
<path d="M3896 3765 c-301 -57 -522 -239 -605 -499 -37 -116 -49 -196 -30
-196 8 0 104 -14 214 -30 110 -16 205 -30 212 -30 6 0 23 36 38 79 31 94 89
187 138 225 87 66 216 89 341 62 205 -46 304 -209 224 -371 -28 -55 -83 -111
-221 -222 -206 -164 -292 -269 -339 -413 -16 -50 -22 -98 -26 -212 l-4 -148
173 0 c96 0 197 -3 225 -6 l51 -6 5 103 c8 172 31 208 258 393 272 223 374
373 387 572 21 314 -211 584 -587 681 -123 32 -336 40 -454 18z"/>
<path d="M3986 1810 c-101 -32 -176 -138 -176 -248 0 -67 19 -118 64 -169 191
-218 534 -15 440 260 -17 51 -75 117 -126 143 -38 20 -158 28 -202 14z"/>
</g>
</svg>
