<?xml version="1.0" standalone="no"?>
<!DOCTYPE svg PUBLIC "-//W3C//DTD SVG 20010904//EN"
 "http://www.w3.org/TR/2001/REC-SVG-20010904/DTD/svg10.dtd">
<svg version="1.0" xmlns="http://www.w3.org/2000/svg"
 width="500.000000pt" height="500.000000pt" viewBox="0 0 500.000000 500.000000"
 preserveAspectRatio="xMidYMid meet">
<metadata>
Created by potrace 1.15, written by Peter Selinger 2001-2017
</metadata>
<g transform="translate(0.000000,500.000000) scale(0.100000,-0.100000)"
fill="#000000" stroke="none">
<path d="M2325 4774 c-16 -2 -70 -9 -120 -15 -549 -66 -1081 -355 -1442 -784
-282 -334 -450 -707 -520 -1148 -24 -156 -24 -498 0 -654 90 -567 361 -1056
782 -1410 334 -282 707 -450 1148 -520 156 -24 498 -24 654 0 355 56 650 170
931 358 487 325 820 798 957 1362 46 189 59 307 59 537 0 230 -13 348 -59 537
-115 472 -374 893 -740 1200 -332 280 -708 450 -1140 518 -95 15 -445 28 -510
19z m363 -274 c1083 -96 1898 -1062 1814 -2153 -86 -1108 -1048 -1934 -2155
-1849 -1108 86 -1934 1048 -1849 2155 87 1123 1063 1947 2190 1847z"/>
<path d="M2435 4263 c-238 -20 -386 -65 -555 -169 -201 -123 -357 -321 -429
-544 -23 -68 -61 -244 -61 -278 0 -20 -28 -15 439 -87 91 -14 168 -22 171 -18
4 5 17 44 30 88 92 311 247 445 514 445 123 0 196 -17 291 -69 158 -86 229
-253 179 -421 -32 -108 -113 -203 -299 -354 -412 -332 -524 -545 -525 -993 0
-67 3 -124 8 -126 4 -3 142 -6 307 -8 l300 -4 6 145 c6 157 20 210 78 294 34
48 125 138 236 232 205 172 349 321 422 437 47 74 92 174 115 254 32 108 31
310 -1 428 -98 363 -410 627 -856 724 -57 13 -255 32 -300 29 -16 -1 -48 -3
-70 -5z"/>
<path d="M2424 1451 c-177 -46 -302 -247 -265 -428 32 -162 139 -273 295 -305
163 -35 349 88 395 259 48 179 -25 360 -180 443 -50 26 -74 33 -137 36 -42 2
-91 0 -108 -5z"/>
</g>
</svg>
