<?xml version="1.0" standalone="no"?>
<!DOCTYPE svg PUBLIC "-//W3C//DTD SVG 20010904//EN"
 "http://www.w3.org/TR/2001/REC-SVG-20010904/DTD/svg10.dtd">
<svg version="1.0" xmlns="http://www.w3.org/2000/svg"
 width="500.000000pt" height="500.000000pt" viewBox="0 0 500.000000 500.000000"
 preserveAspectRatio="xMidYMid meet">
<metadata>
Created by potrace 1.15, written by Peter Selinger 2001-2017
</metadata>
<g transform="translate(0.000000,500.000000) scale(0.100000,-0.100000)"
fill="#000000" stroke="none">
<path d="M3930 4845 c-260 -56 -465 -240 -547 -490 -18 -58 -27 -110 -31 -186
-6 -137 14 -231 75 -359 39 -81 59 -107 137 -185 100 -100 176 -146 306 -187
63 -19 96 -23 210 -23 125 1 141 3 223 32 108 38 181 81 263 156 102 93 180
227 215 367 23 91 18 271 -10 360 -67 215 -190 361 -386 455 -147 71 -305 91
-455 60z m305 -61 c179 -42 353 -180 433 -344 55 -113 72 -183 72 -305 0 -121
-17 -192 -71 -303 -122 -249 -405 -401 -676 -363 -161 23 -282 82 -392 192
-79 78 -132 165 -168 274 -21 66 -26 99 -26 190 -1 129 16 205 70 315 53 106
188 241 293 292 155 75 301 91 465 52z"/>
<path d="M3575 3100 c-163 -44 -352 -113 -532 -193 -105 -47 -251 -104 -324
-127 -72 -23 -170 -59 -217 -81 -47 -21 -85 -39 -86 -39 -1 0 -1 33 -1 73 0
98 -31 162 -95 195 -49 25 -102 24 -128 -2 -8 -8 -16 -43 -19 -82 -5 -61 -10
-75 -45 -122 -44 -59 -129 -158 -265 -310 -106 -119 -258 -299 -326 -389 -69
-90 -351 -320 -1040 -848 -296 -226 -298 -228 -279 -247 19 -19 21 -18 193
113 492 375 926 718 1061 836 36 32 92 92 124 133 75 98 178 220 341 403 73
81 162 185 199 230 68 85 136 210 127 233 -8 21 21 17 51 -7 33 -26 61 -116
51 -167 -14 -73 -28 -87 -160 -154 -69 -35 -125 -66 -125 -69 0 -3 6 -13 13
-23 13 -17 29 -10 248 101 181 93 270 131 384 168 81 26 234 86 339 132 232
103 525 203 597 203 27 0 28 -1 13 -27 -19 -39 -18 -66 7 -97 12 -15 20 -29
17 -31 -2 -2 -59 -29 -128 -59 -68 -31 -133 -64 -144 -75 -58 -51 -161 -113
-232 -140 -116 -42 -213 -88 -251 -117 -32 -25 -33 -27 -18 -44 42 -47 112
-35 353 59 182 70 315 133 387 180 49 33 90 51 114 51 19 0 34 -39 46 -115 l7
-40 -149 -111 c-166 -125 -241 -166 -398 -219 -60 -20 -142 -52 -183 -70 -67
-31 -72 -36 -62 -55 14 -26 16 -26 96 11 38 16 115 46 171 65 99 32 222 90
288 133 l30 20 29 -25 28 -25 -103 -102 c-119 -117 -162 -143 -354 -212 -193
-70 -256 -106 -305 -175 l-21 -29 22 -11 c19 -11 26 -7 63 29 38 37 47 41 92
41 55 0 134 24 220 66 45 22 57 24 69 14 14 -12 14 -15 0 -30 -8 -9 -15 -24
-15 -33 0 -21 -156 -152 -205 -172 -20 -9 -102 -29 -181 -44 -79 -16 -163 -38
-186 -49 -24 -12 -68 -30 -98 -42 -30 -12 -112 -55 -181 -95 -69 -41 -170 -95
-225 -121 -54 -25 -144 -67 -199 -92 -79 -37 -116 -62 -175 -118 -41 -39 -102
-91 -135 -116 -64 -49 -370 -356 -630 -633 -235 -251 -213 -222 -190 -244 20
-19 22 -17 145 117 212 229 651 672 725 730 39 31 95 81 125 111 42 43 79 67
155 103 260 121 338 159 435 218 108 64 256 131 345 156 28 7 99 23 158 34
130 25 159 38 262 124 44 36 84 66 89 66 5 0 23 12 38 27 41 39 38 85 -8 131
-20 20 -32 38 -27 39 78 26 284 204 347 300 28 42 31 70 11 128 -5 17 8 32 73
82 83 65 112 107 112 165 0 46 -34 96 -78 115 -50 21 -128 5 -202 -42 -90 -58
-217 -119 -350 -170 -69 -26 -132 -51 -140 -55 -26 -14 -125 -41 -115 -31 6 5
68 32 139 60 97 39 152 68 219 117 62 45 135 85 239 131 117 52 156 74 175
100 69 90 -3 204 -127 202 -25 0 -76 -9 -115 -19z"/>
</g>
</svg>
