<?xml version="1.0" standalone="no"?>
<!DOCTYPE svg PUBLIC "-//W3C//DTD SVG 20010904//EN"
 "http://www.w3.org/TR/2001/REC-SVG-20010904/DTD/svg10.dtd">
<svg version="1.0" xmlns="http://www.w3.org/2000/svg"
 width="500.000000pt" height="500.000000pt" viewBox="0 0 500.000000 500.000000"
 preserveAspectRatio="xMidYMid meet">
<metadata>
Created by potrace 1.15, written by Peter Selinger 2001-2017
</metadata>
<g transform="translate(0.000000,500.000000) scale(0.100000,-0.100000)"
fill="#000000" stroke="none">
<path d="M2387 4750 c-141 -16 -312 -72 -437 -142 -136 -76 -301 -227 -388
-356 -315 -462 -257 -1078 137 -1473 137 -136 275 -221 464 -284 l102 -34 3
-51 3 -50 -38 0 c-60 -1 -113 -31 -182 -105 -156 -167 -297 -394 -421 -676
-86 -195 -194 -550 -235 -769 -15 -87 -55 -439 -55 -497 l0 -33 223 0 223 0
18 183 c21 214 35 296 81 472 44 168 149 476 159 464 1 -2 -12 -224 -29 -494
-18 -269 -34 -520 -37 -558 l-4 -67 523 0 c491 0 523 1 523 18 0 9 -18 267
-40 572 -21 305 -37 556 -36 558 6 5 80 -189 119 -313 76 -238 108 -392 133
-653 l18 -182 223 0 223 0 0 29 c0 54 -40 415 -56 501 -39 217 -138 543 -230
759 -162 379 -424 747 -558 783 l-46 12 0 51 0 52 51 11 c290 67 585 307 731
596 85 168 122 331 122 531 -1 437 -243 829 -632 1025 -202 101 -438 144 -655
120z m273 -205 c168 -25 301 -81 438 -185 269 -203 414 -541 373 -872 -27
-223 -113 -399 -276 -564 -189 -192 -408 -284 -674 -284 -450 0 -813 282 -938
730 -28 103 -26 357 5 469 47 173 140 329 266 449 92 87 145 123 259 177 182
86 350 110 547 80z"/>
<path d="M2367 4334 c-137 -33 -267 -132 -319 -244 -24 -51 -62 -199 -53 -208
3 -4 274 -41 302 -42 7 0 17 19 24 42 33 123 104 188 204 188 83 0 167 -53
179 -112 11 -54 -24 -108 -127 -193 -175 -145 -216 -218 -224 -397 l-6 -108
162 0 161 0 0 63 c1 93 22 131 127 220 116 98 175 164 210 235 25 51 28 68 28
157 0 91 -3 105 -30 158 -56 112 -188 207 -336 242 -79 18 -224 18 -302 -1z"/>
<path d="M2445 3184 c-127 -66 -138 -241 -21 -314 138 -85 302 33 272 195 -8
43 -59 103 -103 121 -43 19 -111 17 -148 -2z"/>
</g>
</svg>
