<?xml version="1.0" standalone="no"?>
<!DOCTYPE svg PUBLIC "-//W3C//DTD SVG 20010904//EN"
 "http://www.w3.org/TR/2001/REC-SVG-20010904/DTD/svg10.dtd">
<svg version="1.0" xmlns="http://www.w3.org/2000/svg"
 width="500.000000pt" height="500.000000pt" viewBox="0 0 500.000000 500.000000"
 preserveAspectRatio="xMidYMid meet">
<metadata>
Created by potrace 1.15, written by Peter Selinger 2001-2017
</metadata>
<g transform="translate(0.000000,500.000000) scale(0.100000,-0.100000)"
fill="#000000" stroke="none">
<path d="M3359 4278 c-1 -281 -2 -308 -14 -264 -8 27 -24 60 -38 73 -22 23
-27 23 -88 14 -35 -5 -100 -13 -145 -17 -71 -6 -85 -4 -124 16 -29 15 -69 24
-119 27 -67 5 -100 0 -266 -41 -104 -25 -246 -54 -315 -65 -138 -20 -197 -45
-361 -147 -47 -30 -89 -54 -93 -54 -3 0 -6 70 -6 155 0 97 -4 155 -10 155 -6
0 -10 -63 -10 -168 l0 -168 -74 -52 c-41 -29 -164 -120 -273 -204 -215 -165
-257 -188 -407 -220 -112 -23 -422 -34 -581 -20 -80 7 -112 7 -117 -2 -14 -20
-8 -54 10 -61 9 -4 116 -9 238 -12 316 -8 508 16 651 81 29 14 128 83 221 154
197 152 319 242 326 242 4 0 6 -279 6 -620 0 -404 3 -620 10 -620 6 0 11 222
12 632 l3 633 94 62 c174 115 235 142 379 164 70 10 201 38 292 61 202 51 298
56 370 19 41 -22 53 -23 140 -18 52 4 119 10 148 13 57 7 74 -9 20 -20 -58
-12 -142 -119 -177 -228 -7 -20 -20 -40 -30 -43 -42 -13 -157 -21 -203 -14
-47 8 -57 5 -143 -36 -51 -25 -115 -51 -142 -57 -26 -7 -58 -23 -70 -35 -12
-12 -35 -29 -51 -37 -36 -19 -39 -25 -47 -114 l-7 -69 76 -12 c42 -6 92 -11
110 -11 40 0 319 94 428 143 87 40 187 103 195 124 3 7 -9 35 -26 62 l-32 49
21 54 c24 64 83 144 113 154 16 5 30 -4 64 -39 l43 -46 -2 -322 -3 -323 -165
-92 c-168 -93 -215 -128 -353 -262 -70 -67 -77 -77 -69 -100 4 -14 13 -27 19
-29 7 -3 66 47 133 109 120 112 251 201 345 235 86 30 305 84 405 98 58 8 128
22 155 30 65 20 290 61 385 70 41 4 108 16 149 26 85 22 239 25 292 7 19 -6
47 -20 63 -31 l28 -20 -57 -23 c-81 -33 -122 -67 -136 -113 l-11 -39 -70 -7
c-39 -3 -100 -15 -136 -24 -75 -21 -415 -168 -459 -199 -46 -32 -94 -49 -312
-108 -267 -71 -425 -121 -481 -149 -25 -13 -89 -57 -144 -99 -95 -73 -162
-107 -240 -121 -35 -7 -37 -9 -30 -39 3 -17 8 -33 10 -35 7 -8 109 20 160 43
27 13 98 59 156 103 118 90 149 104 393 173 467 132 406 120 666 130 129 5
270 14 314 20 90 13 229 7 278 -13 l32 -13 -46 -16 c-61 -21 -125 -62 -146
-94 -14 -22 -15 -31 -5 -57 7 -17 8 -35 4 -39 -4 -4 -147 -25 -317 -48 -171
-22 -364 -51 -430 -65 -139 -29 -244 -45 -525 -80 l-203 -25 -113 -60 c-62
-33 -120 -60 -128 -60 -16 0 -21 -26 -10 -54 10 -27 42 -18 159 44 l112 60
222 28 222 27 222 -57 c122 -32 251 -65 287 -74 132 -32 270 -130 270 -191 0
-23 0 -23 -19 -4 -31 31 -78 52 -132 58 -47 6 -51 4 -83 -30 l-34 -37 -314 45
c-447 64 -617 78 -823 71 -93 -3 -191 -9 -217 -12 l-48 -6 0 236 0 236 -80 0
-80 0 0 -232 0 -231 -138 7 c-174 8 -350 28 -539 62 -131 24 -174 27 -368 27
-145 0 -266 -6 -353 -16 -241 -30 -424 -18 -620 42 l-63 19 -10 -25 c-5 -14
-8 -30 -6 -36 8 -24 256 -80 407 -92 56 -4 132 -1 220 10 341 40 558 38 832
-9 146 -25 419 -54 558 -58 l75 -3 3 -292 2 -293 -146 0 c-113 0 -145 -3 -141
-12 8 -22 357 -533 365 -535 6 -2 360 513 370 539 2 4 -62 8 -142 8 l-146 0 0
289 0 289 68 6 c287 27 481 15 1033 -64 265 -38 355 -54 428 -80 104 -35 128
-34 171 9 98 97 32 237 -154 326 -50 24 -127 51 -171 60 -44 9 -109 25 -145
35 -36 10 -85 24 -110 31 l-45 12 105 23 c58 12 231 38 385 58 237 31 554 83
618 102 46 14 67 147 33 212 -21 40 -68 76 -131 97 -73 25 -237 30 -364 11
-58 -9 -154 -16 -215 -15 l-111 0 50 24 c144 70 308 135 366 145 35 5 118 19
184 30 153 25 192 36 221 65 29 29 48 94 40 138 -10 54 -76 122 -144 148 -78
30 -232 31 -352 2 -47 -12 -130 -26 -185 -32 -112 -13 -264 -42 -370 -71 -38
-10 -106 -23 -150 -29 -44 -6 -91 -14 -105 -17 -17 -4 -6 6 30 31 72 49 108
83 128 120 22 42 21 158 -3 208 -18 38 -105 144 -227 276 l-68 73 0 334 c0
290 -2 334 -15 334 -13 0 -15 -42 -16 -312z m126 -567 c131 -148 145 -172 145
-245 0 -41 -6 -69 -16 -85 -15 -20 -137 -106 -201 -140 l-23 -12 0 291 c0 159
2 290 4 290 2 0 43 -45 91 -99z m-407 -53 c7 -7 12 -15 12 -19 0 -24 -247
-132 -430 -189 -84 -26 -111 -30 -156 -24 -50 6 -54 8 -54 33 0 31 60 80 126
101 21 7 73 29 114 48 69 32 83 35 185 38 61 2 126 7 145 13 19 5 37 9 41 10
3 1 10 -4 17 -11z m1632 -1008 c36 -71 32 -76 -76 -96 -94 -18 -97 -18 -110 1
-30 41 -15 64 70 109 70 37 91 34 116 -14z"/>
<path d="M90 500 l0 -90 2410 0 2410 0 0 90 0 90 -2410 0 -2410 0 0 -90z"/>
</g>
</svg>
