<?xml version="1.0" standalone="no"?>
<!DOCTYPE svg PUBLIC "-//W3C//DTD SVG 20010904//EN"
 "http://www.w3.org/TR/2001/REC-SVG-20010904/DTD/svg10.dtd">
<svg version="1.0" xmlns="http://www.w3.org/2000/svg"
 width="500.000000pt" height="500.000000pt" viewBox="0 0 500.000000 500.000000"
 preserveAspectRatio="xMidYMid meet">
<metadata>
Created by potrace 1.15, written by Peter Selinger 2001-2017
</metadata>
<g transform="translate(0.000000,500.000000) scale(0.100000,-0.100000)"
fill="#000000" stroke="none">
<path d="M2355 4715 c-80 -118 -148 -222 -151 -230 -5 -13 11 -15 110 -15
l116 0 0 -240 0 -240 75 0 75 0 0 240 0 240 121 0 c66 0 119 4 117 8 -9 22
-304 451 -310 452 -4 0 -72 -97 -153 -215z"/>
<path d="M2643 3927 c-24 -39 -47 -78 -52 -86 -7 -11 -23 -2 -77 42 -38 31
-71 54 -75 49 -4 -4 -14 -30 -23 -59 -16 -49 -19 -52 -59 -58 -186 -28 -315
-67 -434 -130 -311 -165 -487 -448 -552 -891 -12 -77 -23 -153 -26 -171 -5
-25 -14 -36 -49 -53 -68 -32 -125 -128 -126 -211 -1 -105 71 -215 156 -238 41
-11 41 -11 63 -91 79 -290 252 -553 469 -717 42 -31 78 -58 80 -59 1 0 6 -57
10 -125 6 -115 8 -124 27 -124 19 0 20 8 23 103 2 77 6 103 15 99 143 -62 187
-78 263 -98 74 -19 114 -23 239 -23 188 0 262 16 462 101 9 3 13 -21 15 -94 3
-90 5 -98 23 -98 19 0 20 8 23 112 l3 113 77 52 c98 65 254 221 319 318 99
149 173 308 208 451 15 61 20 67 55 83 94 41 144 149 120 259 -14 66 -51 129
-95 163 l-35 26 0 107 c0 171 -41 370 -105 516 -43 96 -128 216 -207 291 -136
129 -310 218 -531 271 l-117 28 -11 35 c-5 19 -13 68 -16 108 -3 39 -9 72 -12
72 -3 0 -25 -33 -48 -73z m-96 -155 l52 -44 21 34 c11 18 20 36 20 41 0 4 4 7
9 7 4 0 12 -19 17 -41 l9 -42 110 -22 c173 -36 301 -85 417 -161 240 -155 379
-401 418 -741 17 -145 13 -151 -45 -70 -74 102 -152 241 -183 329 -15 43 -30
78 -34 78 -19 0 -92 -79 -128 -138 l-39 -65 -63 64 c-83 83 -113 123 -163 221
l-42 80 -66 -94 c-73 -103 -177 -212 -247 -258 -42 -28 -137 -66 -144 -59 -2
2 2 40 10 84 7 44 13 111 13 149 1 68 -24 186 -39 186 -4 0 -13 -14 -21 -32
-21 -51 -106 -175 -157 -230 -50 -54 -162 -151 -168 -146 -2 2 10 46 26 98 17
52 27 97 22 101 -4 4 -16 10 -28 13 -17 5 -28 -4 -58 -49 -58 -83 -213 -226
-332 -304 -116 -77 -302 -176 -312 -167 -12 13 18 256 46 366 123 486 409 731
930 795 28 4 52 11 52 15 0 5 4 21 10 35 11 30 14 29 87 -33z m409 -664 c38
-63 186 -219 239 -254 24 -16 29 -16 33 -4 12 36 88 174 97 176 6 2 28 -36 50
-83 43 -93 135 -238 211 -330 l47 -58 -6 -170 c-4 -116 -12 -197 -26 -256 -61
-267 -180 -490 -355 -665 -421 -423 -1036 -424 -1457 -5 -146 147 -246 311
-314 515 -49 147 -66 244 -72 396 l-5 135 137 69 c170 85 318 183 419 277 42
39 78 70 80 68 2 -2 -7 -26 -20 -53 l-24 -50 21 -22 22 -23 75 52 c96 66 215
178 267 250 22 31 44 56 48 57 11 0 -25 -269 -39 -291 -7 -12 45 -16 101 -7
124 19 258 120 394 296 18 23 34 42 35 42 2 0 20 -28 42 -62z m-1623 -896 c6
-34 -20 -24 -56 21 -54 66 -49 188 10 252 l28 30 7 -140 c4 -77 9 -150 11
-163z"/>
<path d="M2932 2720 c-41 -10 -57 -24 -49 -45 5 -12 13 -14 34 -8 16 5 60 8
100 7 61 0 82 -5 145 -36 40 -20 101 -62 135 -93 62 -55 83 -62 83 -25 0 26
-101 113 -179 153 -97 51 -187 67 -269 47z"/>
<path d="M2170 2713 c-102 -17 -234 -84 -307 -156 -46 -44 -52 -61 -27 -71 11
-4 34 11 70 43 68 62 171 114 258 131 59 11 67 15 64 34 -3 22 -16 26 -58 19z"/>
<path d="M2072 2337 c-37 -21 -62 -68 -62 -115 0 -90 100 -148 179 -104 74 40
88 131 32 195 -22 24 -37 30 -77 34 -30 2 -58 -2 -72 -10z"/>
<path d="M2924 2320 c-39 -16 -74 -68 -74 -112 0 -101 101 -161 187 -108 40
24 56 54 56 105 0 89 -87 149 -169 115z"/>
<path d="M2680 1805 c-33 -35 -99 -65 -144 -65 -40 0 -81 18 -134 58 -25 19
-36 22 -44 14 -16 -16 23 -57 84 -88 55 -28 121 -31 174 -9 52 22 114 74 114
96 0 26 -22 24 -50 -6z"/>
<path d="M2237 1464 c-33 -33 35 -70 185 -100 138 -28 292 -9 406 50 33 17 42
43 18 52 -8 3 -32 -4 -55 -15 -136 -70 -349 -64 -532 13 -8 4 -18 3 -22 0z"/>
<path d="M2430 770 l0 -240 -116 0 c-91 0 -115 -3 -111 -13 9 -23 299 -447
305 -447 4 1 76 103 160 228 l152 227 -120 3 -120 3 0 239 0 240 -75 0 -75 0
0 -240z"/>
</g>
</svg>
