<?xml version="1.0" standalone="no"?>
<!DOCTYPE svg PUBLIC "-//W3C//DTD SVG 20010904//EN"
 "http://www.w3.org/TR/2001/REC-SVG-20010904/DTD/svg10.dtd">
<svg version="1.0" xmlns="http://www.w3.org/2000/svg"
 width="500.000000pt" height="500.000000pt" viewBox="0 0 500.000000 500.000000"
 preserveAspectRatio="xMidYMid meet">
<metadata>
Created by potrace 1.15, written by Peter Selinger 2001-2017
</metadata>
<g transform="translate(0.000000,500.000000) scale(0.100000,-0.100000)"
fill="#000000" stroke="none">
<path d="M2475 4814 c-219 -32 -375 -106 -522 -247 -131 -126 -223 -288 -260
-461 -23 -107 -20 -281 6 -391 68 -283 280 -525 548 -627 76 -29 83 -34 83
-59 0 -23 -6 -28 -44 -38 -41 -10 -90 -58 -593 -571 -301 -308 -552 -572 -557
-586 -24 -73 66 -182 256 -312 82 -55 109 -80 114 -100 47 -207 142 -381 288
-527 93 -92 196 -164 303 -211 41 -17 69 -34 63 -36 -9 -3 -29 -233 -30 -355
l0 -33 381 0 382 0 -7 132 c-4 73 -9 160 -12 193 l-6 61 78 34 c227 99 424
294 529 523 74 162 106 357 87 529 -7 57 -14 112 -17 123 -5 15 2 24 30 39 56
31 105 90 105 129 0 48 -26 79 -225 264 -99 92 -297 286 -439 431 -143 144
-270 265 -283 268 -15 4 -23 14 -23 28 0 20 8 25 58 35 253 56 484 238 604
476 57 113 80 210 86 362 4 123 1 156 -17 237 -91 392 -433 675 -836 690 -55
3 -113 2 -130 0z m274 -198 c343 -93 570 -423 531 -770 -35 -302 -262 -556
-555 -621 -113 -25 -273 -17 -380 19 -229 78 -416 281 -471 511 -22 91 -22
250 0 335 73 286 305 496 601 544 52 8 218 -3 274 -18z m357 -2727 c46 -77 44
-118 -13 -167 -69 -61 -183 -77 -265 -38 -102 49 -80 135 54 206 64 35 168 71
180 64 4 -3 23 -32 44 -65z m-1028 -431 c72 -36 132 -96 132 -134 0 -59 -106
-113 -196 -100 -90 12 -184 83 -184 139 0 10 18 49 41 87 l40 69 52 -16 c29
-8 80 -29 115 -45z"/>
<path d="M2222 3997 c-101 -57 -59 -207 58 -207 34 0 48 6 76 34 28 28 34 42
34 76 0 34 -6 48 -34 76 -27 27 -42 34 -72 34 -22 -1 -49 -6 -62 -13z"/>
<path d="M2793 3986 c-116 -52 -55 -235 70 -212 62 12 106 83 87 141 -22 68
-93 100 -157 71z"/>
<path d="M2760 3545 c-63 -51 -142 -85 -200 -85 -57 0 -135 33 -191 80 -53 45
-68 48 -92 22 -27 -29 -20 -47 33 -95 155 -139 359 -135 522 11 52 47 59 69
30 95 -27 25 -41 21 -102 -28z"/>
</g>
</svg>
