<?xml version="1.0" standalone="no"?>
<!DOCTYPE svg PUBLIC "-//W3C//DTD SVG 20010904//EN"
 "http://www.w3.org/TR/2001/REC-SVG-20010904/DTD/svg10.dtd">
<svg version="1.0" xmlns="http://www.w3.org/2000/svg"
 width="500.000000pt" height="500.000000pt" viewBox="0 0 500.000000 500.000000"
 preserveAspectRatio="xMidYMid meet">
<metadata>
Created by potrace 1.15, written by Peter Selinger 2001-2017
</metadata>
<g transform="translate(0.000000,500.000000) scale(0.100000,-0.100000)"
fill="#000000" stroke="none">
<path d="M2810 4729 c-19 -34 -38 -66 -42 -72 -4 -6 -23 4 -49 26 -23 21 -46
37 -50 37 -4 0 -14 -19 -21 -42 l-14 -42 -75 -13 c-354 -60 -553 -290 -610
-707 -12 -83 -14 -90 -44 -107 -34 -20 -69 -75 -80 -126 -15 -71 37 -172 98
-192 29 -10 35 -18 46 -64 20 -84 105 -249 170 -330 57 -72 140 -148 202 -184
16 -10 29 -22 29 -28 0 -6 -62 -41 -137 -79 -388 -192 -601 -336 -668 -451
-24 -40 -72 -93 -81 -87 -2 1 -18 2 -35 2 -22 0 -41 -10 -65 -34 -31 -31 -34
-39 -34 -92 0 -33 7 -84 15 -114 8 -30 15 -70 15 -87 0 -18 7 -50 16 -72 15
-38 15 -39 -42 -192 -31 -85 -92 -236 -136 -337 -93 -217 -111 -282 -112 -422
-1 -93 2 -110 24 -154 59 -115 196 -210 350 -242 86 -18 192 -14 242 11 63 29
99 117 118 280 5 50 14 104 20 120 16 50 1 -152 -26 -338 -13 -93 -24 -177
-24 -188 0 -19 19 -19 773 -19 426 0 890 3 1032 7 l258 6 -6 756 c-6 818 -7
834 -64 1015 -58 186 -163 328 -331 449 -95 68 -260 155 -349 183 -51 15 -64
24 -72 46 -9 25 -7 29 47 59 31 17 96 70 143 118 132 132 218 295 255 483 15
75 20 87 45 102 90 53 90 231 1 295 -25 17 -32 31 -37 69 -11 86 -56 226 -92
292 -20 37 -68 96 -108 136 -86 86 -211 153 -347 186 -95 23 -96 25 -99 117
-1 20 -4 46 -7 58 -6 20 -11 15 -42 -38z m-66 -159 c34 -31 34 -31 49 -10 l14
21 6 -21 c3 -13 13 -20 29 -20 45 0 182 -40 253 -74 187 -89 299 -249 335
-480 6 -38 9 -70 6 -73 -10 -11 -119 192 -131 244 -3 18 -10 35 -15 38 -12 8
-75 -49 -101 -92 l-22 -35 -48 48 c-27 27 -66 81 -87 122 l-39 73 -38 -58
c-51 -76 -129 -159 -184 -195 -25 -15 -48 -28 -52 -28 -4 0 -5 41 -2 90 5 71
2 103 -12 150 l-18 59 -41 -73 c-47 -80 -108 -159 -145 -183 -23 -15 -24 -14
-17 3 21 54 18 69 -13 80 -29 12 -31 10 -71 -42 -44 -59 -131 -135 -215 -189
-57 -36 -149 -85 -161 -85 -12 0 5 142 26 225 75 287 263 453 560 494 48 6 77
15 82 25 12 21 12 21 52 -14z m386 -569 c33 -29 62 -52 64 -50 2 2 15 30 29
62 14 31 28 57 31 57 3 0 20 -28 37 -62 17 -35 58 -100 90 -145 l59 -81 0 -92
c0 -232 -92 -454 -254 -615 -66 -66 -99 -89 -176 -127 -118 -57 -179 -72 -300
-71 -372 4 -677 340 -706 778 l-6 90 106 53 c59 30 142 80 185 112 l78 58 24
-24 24 -24 55 37 c30 20 81 63 113 95 32 32 60 58 62 58 1 0 -4 -33 -11 -72
-8 -40 -14 -77 -14 -82 0 -14 113 0 151 19 57 29 132 91 173 143 l39 50 43
-57 c23 -31 70 -81 104 -110z m-503 -1191 c92 -14 199 -7 286 20 33 11 61 18
62 17 0 -1 10 -21 21 -44 l21 -41 -51 -26 c-126 -63 -246 -86 -351 -67 -97 18
-275 115 -235 129 8 3 26 17 40 32 l25 27 52 -18 c28 -9 87 -23 130 -29z
m-266 -83 c21 -19 63 -46 93 -60 175 -86 373 -74 561 34 81 47 80 47 210 -16
133 -64 240 -139 330 -230 90 -90 138 -171 179 -303 55 -175 56 -202 63 -970
l6 -712 -137 0 c-100 0 -138 3 -141 13 -2 6 -23 335 -46 730 l-43 717 -37 0
-38 0 5 -52 c6 -73 84 -1359 84 -1392 l0 -26 -780 0 c-617 0 -780 3 -780 13 0
6 7 55 15 107 22 137 85 903 75 913 -4 5 -20 7 -36 5 -31 -3 -27 8 -75 -203
l-24 -100 -11 120 c-10 115 -10 122 12 165 36 75 53 89 132 110 110 31 195 73
251 125 90 84 104 178 41 278 -41 65 -50 134 -25 192 43 101 61 201 46 248
-29 88 -161 135 -274 98 -37 -12 -90 -65 -101 -98 -5 -15 -14 -18 -40 -15 -48
6 -101 -14 -130 -48 -21 -25 -29 -28 -61 -23 l-36 6 33 34 c34 35 158 123 263
185 93 56 348 188 363 188 8 0 31 -15 53 -33z m-163 -261 c16 -8 32 -23 36
-31 10 -26 7 -86 -7 -140 -12 -45 -16 -51 -50 -59 -95 -24 -207 62 -207 159 0
40 34 81 73 88 41 8 125 -2 155 -17z m-283 -124 c6 -8 24 -35 40 -61 38 -57
117 -101 181 -101 l45 0 -7 -52 c-4 -29 -7 -54 -8 -55 0 -1 -34 -5 -73 -8
l-73 -8 0 61 c0 66 -5 74 -39 65 -19 -5 -21 -10 -16 -47 8 -49 -10 -157 -32
-201 -40 -79 -85 -95 -127 -45 -34 41 -48 98 -50 197 l-1 83 -27 0 -28 0 0
-72 c1 -68 7 -115 25 -180 6 -25 4 -28 -16 -28 -68 0 -122 74 -135 183 -6 51
-9 57 -30 57 -22 0 -24 -4 -24 -43 0 -24 7 -66 15 -92 8 -27 12 -51 10 -53 -2
-3 -17 1 -33 7 -46 19 -90 71 -101 121 -26 111 -5 150 79 150 44 0 51 3 64 29
26 50 96 64 159 32 l37 -19 19 44 c15 33 27 45 53 52 40 12 80 5 93 -16z m300
-361 c55 -80 51 -153 -12 -218 l-36 -38 -7 25 c-6 24 -9 25 -66 22 -42 -3 -73
2 -100 13 l-39 18 41 12 c56 18 92 42 110 76 16 32 18 77 4 99 -7 12 -3 16 18
21 51 12 59 9 87 -30z m-669 -98 c27 -3 67 -15 88 -26 22 -12 61 -21 90 -22
28 -1 69 -9 90 -19 21 -10 49 -15 62 -12 17 5 24 1 29 -14 13 -41 64 -64 155
-70 l85 -6 -60 -28 c-33 -15 -96 -37 -140 -49 l-81 -21 -89 28 c-119 37 -171
65 -238 126 -52 48 -75 79 -98 138 l-9 24 34 -21 c18 -12 55 -24 82 -28z m73
-237 c26 -14 79 -35 117 -47 38 -12 70 -23 72 -24 2 -2 -4 -18 -13 -35 -15
-29 -20 -31 -48 -26 -46 9 -172 71 -227 111 -65 48 -83 77 -69 109 l11 24 55
-44 c30 -24 76 -55 102 -68z m-14 -130 c49 -24 102 -48 116 -54 32 -13 34 -24
49 -278 18 -293 -7 -512 -64 -569 -55 -55 -245 -34 -371 39 -58 35 -129 114
-150 169 -31 82 -3 264 64 410 21 45 64 145 95 222 31 77 61 150 67 163 9 23
9 23 56 -18 26 -23 88 -61 138 -84z"/>
<path d="M2390 3767 c-38 -19 -55 -61 -40 -98 23 -54 84 -66 125 -24 31 30 32
66 3 99 -29 31 -57 39 -88 23z"/>
<path d="M3010 3750 c-43 -43 -31 -106 26 -132 30 -14 66 0 90 36 45 70 -57
155 -116 96z"/>
<path d="M2814 3445 c-47 -38 -82 -41 -128 -10 -42 28 -66 27 -66 -4 0 -28 76
-71 124 -71 43 0 70 12 109 48 55 52 21 84 -39 37z"/>
<path d="M2443 3233 c-44 -17 18 -80 133 -135 81 -38 143 -45 224 -24 90 23
214 87 218 113 5 35 -26 34 -97 -1 -95 -48 -174 -70 -229 -62 -56 8 -135 43
-186 85 -40 32 -42 33 -63 24z"/>
</g>
</svg>
