<?xml version="1.0" standalone="no"?>
<!DOCTYPE svg PUBLIC "-//W3C//DTD SVG 20010904//EN"
 "http://www.w3.org/TR/2001/REC-SVG-20010904/DTD/svg10.dtd">
<svg version="1.0" xmlns="http://www.w3.org/2000/svg"
 width="500.000000pt" height="500.000000pt" viewBox="0 0 500.000000 500.000000"
 preserveAspectRatio="xMidYMid meet">
<metadata>
Created by potrace 1.15, written by Peter Selinger 2001-2017
</metadata>
<g transform="translate(0.000000,500.000000) scale(0.100000,-0.100000)"
fill="#000000" stroke="none">
<path d="M1780 4843 c-469 -46 -869 -251 -1152 -592 -242 -291 -370 -626 -385
-1002 -19 -495 156 -925 519 -1275 227 -218 527 -371 843 -430 153 -29 482
-26 625 5 227 48 457 147 637 274 135 95 324 289 416 427 382 577 382 1297 -1
1865 -277 411 -719 673 -1221 724 -98 10 -204 12 -281 4z m350 -84 c225 -30
463 -122 670 -260 131 -87 335 -291 423 -424 400 -606 359 -1370 -104 -1922
-233 -277 -569 -471 -934 -539 -136 -26 -429 -26 -565 -1 -781 146 -1344 851
-1307 1637 28 585 360 1096 882 1357 288 145 604 196 935 152z"/>
<path d="M1757 4657 c-9 -14 -32 -35 -51 -47 -28 -17 -36 -28 -36 -52 l0 -30
45 25 45 26 0 -125 0 -125 33 3 32 3 0 170 0 170 -26 3 c-19 2 -31 -4 -42 -21z"/>
<path d="M1921 4653 c-41 -39 -48 -69 -19 -77 38 -10 46 -7 52 19 8 31 61 39
78 12 17 -27 4 -51 -63 -124 -68 -73 -103 -128 -93 -145 3 -5 57 -8 120 -8
l114 0 0 30 0 30 -65 0 c-36 0 -65 4 -65 8 0 4 25 32 55 62 65 65 85 112 65
160 -26 64 -126 82 -179 33z"/>
<path d="M2560 4500 c-27 -27 -27 -83 2 -110 49 -45 128 -9 128 58 0 43 -30
72 -75 72 -22 0 -43 -8 -55 -20z"/>
<path d="M1091 4484 c-62 -79 43 -170 114 -99 49 49 16 125 -55 125 -30 0 -43
-6 -59 -26z"/>
<path d="M3133 4010 c-49 -20 -59 -96 -17 -129 54 -43 124 -10 124 58 0 57
-54 93 -107 71z"/>
<path d="M599 3951 c-17 -13 -23 -29 -23 -56 0 -46 31 -75 79 -75 65 0 99 84
52 128 -29 27 -77 28 -108 3z"/>
<path d="M434 3336 c-30 -30 -34 -40 -34 -86 0 -44 4 -56 29 -81 32 -31 75
-38 113 -18 19 10 20 9 13 -23 -4 -18 -12 -39 -17 -45 -15 -19 -45 -16 -61 7
-19 27 -77 18 -70 -10 15 -56 102 -83 156 -47 50 32 62 63 62 157 0 97 -17
140 -65 165 -49 25 -88 19 -126 -19z"/>
<path d="M3247 3354 c-34 -18 -54 -63 -35 -76 22 -13 43 -9 56 13 20 32 66 23
70 -14 3 -24 -2 -30 -27 -40 -40 -15 -45 -57 -6 -57 34 0 59 -39 46 -73 -5
-14 -15 -28 -21 -32 -19 -11 -58 4 -65 25 -6 20 -29 25 -59 14 -31 -12 26 -88
74 -97 41 -9 96 10 120 40 30 39 28 106 -6 132 l-26 20 21 27 c24 31 26 43 9
79 -23 51 -95 69 -151 39z"/>
<path d="M1853 3285 c-38 -16 -63 -60 -63 -111 0 -28 8 -44 34 -70 29 -29 41
-34 80 -34 122 0 160 163 50 215 -39 18 -59 18 -101 0z"/>
<path d="M3133 2530 c-49 -20 -59 -96 -17 -129 15 -12 37 -21 49 -21 38 0 75
37 75 75 0 58 -55 97 -107 75z"/>
<path d="M620 2517 c-76 -39 -51 -147 35 -147 35 0 75 42 75 78 0 27 -31 72
-50 72 -4 0 -14 2 -22 5 -7 3 -24 -1 -38 -8z"/>
<path d="M1848 2007 c-37 -30 -50 -69 -50 -152 0 -119 40 -175 125 -175 101 0
141 146 59 211 -26 20 -64 22 -103 5 -14 -6 -16 -2 -11 21 5 32 29 63 48 63 7
0 22 -10 33 -21 15 -16 27 -20 45 -15 33 8 32 17 0 55 -22 27 -33 31 -72 31
-34 0 -55 -6 -74 -23z"/>
<path d="M1143 1990 c-32 -13 -56 -55 -49 -85 16 -64 86 -86 131 -40 31 30 32
66 3 99 -27 29 -55 38 -85 26z"/>
<path d="M2650 1993 c-8 -3 -25 -15 -37 -26 -61 -55 12 -151 92 -121 17 7 45
54 45 78 0 36 -65 81 -100 69z"/>
<path d="M3880 4289 l0 -511 105 -1076 c58 -592 108 -1098 111 -1124 l6 -48
158 0 159 0 6 42 c3 24 53 526 110 1117 l105 1073 0 519 0 519 -380 0 -380 0
0 -511z"/>
<path d="M1860 1400 c-19 -19 -20 -33 -20 -325 l0 -304 -118 -3 -118 -3 149
-288 c82 -158 150 -287 152 -285 8 11 295 567 295 572 0 3 -52 6 -115 6 l-115
0 0 300 0 301 -25 24 c-29 30 -58 32 -85 5z"/>
<path d="M4160 1005 c-111 -31 -220 -132 -257 -240 -23 -66 -23 -184 0 -250
54 -155 228 -268 388 -251 98 10 167 42 235 110 81 81 108 148 108 266 0 118
-27 185 -108 266 -45 45 -77 67 -121 83 -78 29 -174 35 -245 16z"/>
</g>
</svg>
