<?xml version="1.0" standalone="no"?>
<!DOCTYPE svg PUBLIC "-//W3C//DTD SVG 20010904//EN"
 "http://www.w3.org/TR/2001/REC-SVG-20010904/DTD/svg10.dtd">
<svg version="1.0" xmlns="http://www.w3.org/2000/svg"
 width="500.000000pt" height="500.000000pt" viewBox="0 0 500.000000 500.000000"
 preserveAspectRatio="xMidYMid meet">
<metadata>
Created by potrace 1.15, written by Peter Selinger 2001-2017
</metadata>
<g transform="translate(0.000000,500.000000) scale(0.100000,-0.100000)"
fill="#000000" stroke="none">
<path d="M2790 4689 c-19 -34 -38 -66 -42 -71 -3 -7 -24 4 -52 27 -26 21 -49
36 -51 33 -3 -2 -11 -22 -18 -44 -14 -39 -14 -39 -92 -52 -345 -57 -550 -295
-605 -701 -13 -90 -14 -94 -46 -113 -50 -29 -89 -114 -80 -175 8 -61 46 -117
94 -142 34 -17 40 -27 56 -83 47 -170 180 -363 321 -465 25 -18 28 -25 19 -40
-23 -37 -77 -61 -260 -112 -330 -92 -467 -157 -519 -245 -92 -158 -222 -609
-371 -1291 l-56 -260 6 -130 c7 -146 24 -243 56 -305 18 -35 33 -47 96 -77 76
-36 143 -50 187 -39 14 3 56 30 94 60 39 29 108 80 154 111 46 32 96 70 111
83 15 14 30 23 33 21 2 -3 0 -56 -5 -119 -5 -63 -10 -130 -10 -147 l0 -33 773
0 c426 0 890 3 1032 7 l258 6 -6 756 c-6 818 -7 833 -63 1013 -45 144 -97 232
-199 334 -129 131 -349 266 -497 305 -31 9 -50 20 -54 32 -3 10 -4 19 -2 20
222 127 383 376 432 667 4 26 15 41 36 54 91 53 91 231 0 296 -24 17 -30 32
-44 112 -56 305 -233 492 -540 569 l-85 21 -6 47 c-3 25 -9 65 -13 88 l-7 42
-35 -60z m-54 -172 c21 -18 22 -18 37 3 14 20 15 20 19 2 4 -14 18 -21 58 -26
28 -4 90 -20 136 -35 256 -86 385 -253 429 -556 5 -38 5 -39 -11 -20 -34 43
-93 153 -113 210 -12 37 -25 59 -33 57 -14 -3 -86 -76 -105 -107 -12 -19 -15
-17 -58 30 -25 27 -62 82 -83 123 l-38 73 -40 -58 c-53 -79 -130 -160 -183
-195 -25 -15 -48 -28 -53 -28 -4 0 -5 44 -2 98 5 80 2 107 -14 152 l-19 55
-35 -70 c-38 -75 -95 -149 -142 -186 -25 -20 -29 -21 -23 -5 21 54 19 64 -10
80 l-30 15 -54 -67 c-30 -37 -89 -93 -130 -124 -69 -52 -213 -138 -233 -138
-13 0 1 134 24 224 25 99 76 205 134 277 87 110 267 201 424 216 45 4 70 12
80 24 17 19 21 18 68 -24z m269 -447 c35 -47 162 -167 169 -159 2 2 15 31 30
63 l27 60 45 -80 c24 -43 67 -108 94 -144 l49 -65 1 -85 c0 -241 -86 -454
-250 -620 -136 -138 -285 -203 -465 -204 -106 0 -175 15 -270 59 -153 70 -272
191 -356 360 -59 120 -88 227 -95 355 l-6 95 106 53 c59 30 142 80 185 112
l78 58 24 -24 24 -24 55 37 c30 20 81 63 113 95 32 32 60 58 62 58 1 0 -4 -33
-11 -72 -8 -40 -14 -77 -14 -82 0 -19 119 2 171 30 49 27 179 147 179 166 0
20 21 4 55 -42z m-525 -1269 c144 -51 305 -51 446 -1 l54 19 16 -31 c19 -38
18 -39 -91 -74 -97 -32 -240 -42 -341 -25 -69 12 -179 51 -221 79 l-23 14 23
29 c12 16 29 27 37 24 8 -2 53 -18 100 -34z m-140 -108 c128 -64 191 -78 355
-78 132 1 146 3 235 33 52 18 114 44 137 57 l42 23 73 -32 c224 -97 412 -252
491 -404 19 -37 47 -104 61 -150 55 -175 56 -202 63 -970 l6 -712 -137 0
c-100 0 -138 3 -141 13 -2 6 -23 336 -47 732 l-43 720 -35 -3 c-18 -1 -35 -4
-36 -5 0 -1 18 -312 42 -692 24 -379 43 -709 43 -732 l1 -43 -780 0 -780 0 0
53 c0 28 4 102 10 164 8 103 11 115 43 160 19 26 57 87 86 135 49 83 131 178
152 178 16 0 48 83 55 144 7 55 9 59 58 95 65 48 210 201 258 271 30 45 39 70
47 133 6 43 11 100 11 126 0 66 -26 159 -57 199 l-25 33 42 107 c32 79 43 122
44 162 1 95 -51 141 -130 114 -52 -18 -92 -64 -197 -229 l-88 -138 -18 29
c-30 48 -58 67 -109 72 -61 5 -128 -23 -125 -53 18 -147 17 -157 -20 -218 -45
-75 -62 -161 -54 -286 l6 -97 -92 -53 c-135 -79 -323 -199 -336 -214 -8 -11
-7 -20 9 -39 l20 -26 97 65 c54 35 149 94 211 130 l112 65 44 -40 c24 -22 85
-60 135 -84 84 -40 90 -45 90 -73 1 -75 -18 -115 -82 -178 -39 -40 -91 -109
-141 -190 -96 -158 -160 -228 -290 -320 -56 -39 -132 -95 -170 -124 -46 -36
-77 -53 -97 -53 -42 0 -154 54 -173 83 -24 35 -44 146 -52 272 -5 102 -3 123
30 280 139 650 270 1131 361 1320 40 82 82 115 212 166 76 30 472 149 483 145
3 0 43 -20 90 -43z m199 -255 c11 -32 -3 -87 -57 -213 -26 -60 -48 -112 -50
-115 -1 -3 11 -11 27 -17 60 -22 89 -132 71 -276 -10 -83 -15 -96 -51 -145
-56 -73 -166 -189 -212 -223 l-38 -27 -62 24 c-70 28 -159 79 -187 109 -26 28
-44 150 -36 245 6 78 44 176 73 187 11 4 14 26 12 102 l-2 96 27 3 c46 6 66
-22 66 -89 0 -58 15 -89 44 -89 23 0 69 63 236 323 80 125 120 155 139 105z"/>
<path d="M2345 3710 c-11 -12 -19 -36 -19 -57 0 -68 80 -98 129 -48 30 30 32
64 4 99 -26 33 -86 37 -114 6z"/>
<path d="M3003 3720 c-40 -16 -56 -77 -30 -111 15 -20 51 -39 72 -39 24 0 75
55 75 80 0 27 -52 80 -77 79 -10 0 -28 -4 -40 -9z"/>
<path d="M2786 3399 c-48 -36 -72 -36 -120 -4 -42 28 -47 30 -64 13 -17 -17 2
-45 48 -68 44 -22 100 -26 133 -9 36 19 77 62 77 81 0 26 -29 21 -74 -13z"/>
<path d="M2423 3193 c-55 -22 67 -122 191 -158 94 -27 218 -2 341 70 47 28 55
44 31 64 -11 10 -29 5 -83 -23 -179 -89 -270 -85 -414 20 -26 19 -48 34 -50
33 -2 0 -10 -3 -16 -6z"/>
</g>
</svg>
